<?xml version="1.0"?>
<COLLADA xmlns="http://www.collada.org/2005/11/COLLADASchema" version="1.4.1">
    <asset>
        <contributor>
            <authoring_tool>J3D Ripoff Exporter</authoring_tool>
        </contributor>
        <created>2026-07-03T01:45:32.184Z</created>
        <modified>2026-07-03T01:45:32.184Z</modified>
		<unit meter="0.01" name="centimeter" ></unit>
        <up_axis>Y_UP</up_axis>
    </asset>
    <library_images>
        <image id="tex0">
            <init_from>H_ma_new_main_s3tc.png</init_from>
        </image>
        <image id="tex1">
            <init_from>H_ma_polmask_cap_i4.png</init_from>
        </image>
        <image id="tex2">
            <init_from>H_ma_rak_dummy.png</init_from>
        </image>
        <image id="tex3">
            <init_from>H_toon_2_4i.png</init_from>
        </image>
    </library_images>
    <library_effects>
        <effect id="effect0">
            <profile_COMMON>
                <newparam sid="surface0">
                    <surface type="2D">
                        <init_from>tex0</init_from>
                    </surface>
                </newparam>
                <newparam sid="sampler0">
                    <sampler2D>
                        <source>surface0</source>
                    </sampler2D>
                </newparam>
                <technique sid="COMMON">
                    <blinn>
                        <diffuse>
                            <texture texture="sampler0" texcoord="UVSET0"></texture>
                        </diffuse>
                    </blinn>
                </technique>
            </profile_COMMON>
        </effect>
        <effect id="effect0_1">
            <profile_COMMON>
                <newparam sid="surface0_1">
                    <surface type="2D">
                        <init_from>tex1</init_from>
                    </surface>
                </newparam>
                <newparam sid="sampler0_1">
                    <sampler2D>
                        <source>surface0_1</source>
                    </sampler2D>
                </newparam>
                <technique sid="COMMON">
                    <blinn>
                        <diffuse>
                            <texture texture="sampler0_1" texcoord="UVSET0"></texture>
                        </diffuse>
                    </blinn>
                </technique>
            </profile_COMMON>
        </effect>
        <effect id="effect0_2">
            <profile_COMMON>
                <newparam sid="surface0_2">
                    <surface type="2D">
                        <init_from>tex2</init_from>
                    </surface>
                </newparam>
                <newparam sid="sampler0_2">
                    <sampler2D>
                        <source>surface0_2</source>
                    </sampler2D>
                </newparam>
                <technique sid="COMMON">
                    <blinn>
                        <diffuse>
                            <texture texture="sampler0_2" texcoord="UVSET0"></texture>
                        </diffuse>
                    </blinn>
                </technique>
            </profile_COMMON>
        </effect>
    </library_effects>
    <library_materials>
        <material id="mat0" name="_mat_hair">
            <instance_effect url="#effect0"></instance_effect>
        </material>
        <material id="mat0_1" name="_mat_hair_uv2">
            <instance_effect url="#effect0_1"></instance_effect>
        </material>
        <material id="mat0_2" name="_mat_hair_uv3">
            <instance_effect url="#effect0_2"></instance_effect>
        </material>
    </library_materials>
    <library_geometries>
        <geometry id="mesh0">
            <mesh>
                <source id="points0">
                    <float_array id="pointarray0" count="252">-14.15625 -12.806640625 19.572265625 -22.951171875 -20.12109375 14.201171875 -23.828125 -9.55859375 9.37890625 -28.294921875 -19.595703125 -0.439453125 -23.828125 -9.55859375 -9.37890625 -22.951171875 -20.12109375 -15.08203125 -14.15625 -12.806640625 -19.572265625 -16.9765625 -23.376953125 -23.447265625 -3.646484375 -21.943359375 -25.42578125 -7.869140625 -30.162109375 -25.611328125 11.435546875 -29.841796875 -24.712890625 6.65625 -38.896484375 -20.10546875 16.904296875 -37.75390625 -15.0234375 10.1640625 -43.208984375 -11.263671875 18.74609375 -36.912109375 -5.771484375 19.64453125 -38.982421875 -0.439453125 25.6875 -32.7265625 -8.080078125 29.763671875 -36.869140625 -0.736328125 29.953125 -31.72265625 -0.751953125 22.84765625 -29.05078125 10.03515625 25.314453125 -33.80859375 10.544921875 20.603515625 -25.29296875 12.888671875 23.134765625 -30.552734375 16.611328125 16.728515625 -29.08203125 21.935546875 19.8515625 -32.53125 20.958984375 15.40234375 -34.908203125 19.01953125 23.369140625 -35.90625 18.318359375 21 -37.486328125 12.484375 24.4765625 -35.404296875 14.40625 25.154296875 -37.7421875 13.1171875 -6.171875 -15.58984375 21.322265625 -3.623046875 -21.40625 24.583984375 -16.9765625 -23.376953125 22.564453125 -22.62109375 -31.49609375 11.583984375 -27.3828125 -30.607421875 -0.439453125 -22.505859375 -31.640625 -12.59375 -26.25 -33.873046875 -6.2109375 -23.48046875 -36.58984375 -0.439453125 24.501953125 -29.08984375 -8.59765625 27.60546875 -26.2421875 -3.669921875 24.478515625 -27.873046875 -7.8125 18.666015625 -27.76171875 -9.50390625 19.107421875 -24.810546875 -12.61328125 15.259765625 -25.033203125 -17.640625 16.34375 -25.61328125 -19.40625 9.23046875 -43.1953125 10.80078125 -2.013671875 -48.275390625 -0.439453125 -0.796875 -46.025390625 9.833984375 -16.1484375 -44.884765625 -0.439453125 -13.478515625 -42.654296875 10.7890625 -25.712890625 -34.001953125 7.220703125 25.232421875 -27.64453125 -15.095703125 24.962890625 -33.68359375 -14.771484375 12.892578125 -40.232421875 15.19921875 7.298828125 -38.779296875 20.703125 1.79296875 -42.177734375 15.005859375 -11.140625 -37.158203125 19.66015625 19.93359375 -37.912109375 9.173828125 23.95703125 -39.572265625 5.7109375 29.86328125 -37.775390625 4.87109375 25.271484375 -41.12890625 9.328125 20.681640625 -32.330078125 -20.677734375 12.056640625 -22.4765625 -21.58984375 8.0546875 -22.009765625 -21.330078125 -13.150390625 -42.69921875 -11.974609375 -0.90625 -46.255859375 -10.908203125 12.318359375 -22.20703125 21.150390625 9.115234375 -29.81640625 25.306640625 8.0546875 -22.009765625 21.33203125 2.9765625 -19.744140625 24.375 25.611328125 -25.7421875 3.400390625 18.666015625 -27.76171875 9.50390625 -7.94921875 -30.44140625 24.875 -10.79296875 -37.080078125 -21.501953125 1.7890625 -42.453125 -15.4609375 16.9609375 -25.9921875 18.705078125 15.259765625 -25.033203125 17.640625 -24.8359375 -40.724609375 -0.439453125 -26.310546875 -33.53515625 -0.439453125 -30.97265625 -30.46875 0.154296875 10.1640625 -44.6875 -0.111328125 20.96875 -28.333984375 0 -6.171875 -15.58984375 -21.322265625 2.9765625 -19.744140625 -24.375</float_array>
                    <technique_common>
                        <accessor count="84" source="#pointarray0" stride="3">
                            <param name="X" type="float"/>
                            <param name="Y" type="float"/>
                            <param name="Z" type="float"/>
                        </accessor>
                    </technique_common>
                </source>
                <source id="uvs0">
                    <float_array id="uvarray0" count="162">0.875 0.8046875 0.9375 0.84375 0.96875 0.76953125 0.98046875 0.84765625 0.890625 0.859375 0.78125 0.84765625 0.81640625 0.89453125 0.66015625 0.87890625 0.6953125 0.93359375 0.65625 0.890625 0.70703125 0.96484375 0.671875 0.87890625 0.65234375 0.875 0.54296875 0.90234375 0.58984375 0.9453125 0.58984375 0.92578125 0.5546875 0.87890625 0.5703125 0.8828125 0.5390625 0.89453125 0.58984375 0.921875 0.65625 0.89453125 0.6484375 0.921875 0.66796875 0.91015625 0.66015625 0.9375 0.59375 0.91015625 0.58203125 0.94140625 0.57421875 0.90625 0.81640625 0.80859375 0.91015625 0.875 0.94921875 0.88671875 0.94140625 0.90234375 0.921875 0.9140625 0.5546875 0.890625 0.5546875 0.875 0.57421875 0.8828125 0.6015625 0.88671875 0.59765625 0.87109375 0.62890625 0.8671875 0.62109375 0.875 0.765625 0.9921875 0.75390625 0.984375 0.86328125 0.96484375 0.85546875 0.953125 0.9375 0.90234375 0.55078125 0.88671875 0.546875 0.91796875 0.56640625 0.9453125 0.71484375 0.95703125 0.73828125 0.96875 0.84375 0.93359375 0.6484375 0.875 0.65625 0.91015625 0.63671875 0.9296875 0.6640625 0.94140625 0.65625 0.90234375 0.5859375 0.9140625 0.66015625 0.86328125 0.6328125 0.8671875 0.6875 0.85546875 0.6640625 0.86328125 0.6796875 0.890625 0.69140625 0.85546875 0.72265625 0.8359375 0.5625 0.875 0.6640625 0.91015625 0.6171875 0.875 0.93359375 0.94140625 0.96875 0.92578125 0.94140625 0.8984375 0.98046875 0.8828125 0.96484375 0.92578125 0.67578125 0.9140625 0.6640625 0.921875 0.71484375 0.94921875 0.58203125 0.88671875 0.56640625 0.89453125 0.6796875 0.9140625 0.734375 0.92578125 0.5859375 0.87109375 0.51953125 0.91796875 0.53515625 0.92578125</float_array>
                    <technique_common>
                        <accessor count="81" source="#uvarray0" stride="2">
                            <param name="S" type="float"/>
                            <param name="T" type="float"/>
                        </accessor>
                    </technique_common>
                </source>
                <vertices id="vertices0">
                    <input semantic="POSITION" source="#points0"/>
                </vertices>
                <polylist count="151" material="Material1">
                    <input offset="0" semantic="VERTEX" source="#vertices0"/>
                    <input offset="1" semantic="TEXCOORD" source="#uvs0" set="0"/>
                    <vcount>3 3 3 3 3 3 3 3 3 3 3 3 3 3 3 3 3 3 3 3 3 3 3 3 3 3 3 3 3 3 3 3 3 3 3 3 3 3 3 3 3 3 3 3 3 3 3 3 3 3 3 3 3 3 3 3 3 3 3 3 3 3 3 3 3 3 3 3 3 3 3 3 3 3 3 3 3 3 3 3 3 3 3 3 3 3 3 3 3 3 3 3 3 3 3 3 3 3 3 3 3 3 3 3 3 3 3 3 3 3 3 3 3 3 3 3 3 3 3 3 3 3 3 3 3 3 3 3 3 3 3 3 3 3 3 3 3 3 3 3 3 3 3 3 3 3 3 3 3 3 3</vcount>
                    <p>2 2 1 1 0 0 3 3 1 1 2 2 4 2 3 3 2 2 5 1 3 3 4 2 6 0 5 1 4 2 7 4 5 1 6 0 8 5 7 4 6 0 9 6 7 4 8 5 10 7 9 6 8 5 11 8 9 6 10 7 12 9 11 8 10 7 13 10 11 8 12 9 14 11 13 10 12 9 15 12 13 10 14 11 16 13 15 12 14 11 17 14 15 12 16 13 18 15 17 14 16 13 21 18 20 17 19 16 22 19 20 17 21 18 23 20 22 19 21 18 24 21 22 19 23 20 25 22 24 21 23 20 26 23 24 21 25 22 27 24 26 23 25 22 28 25 26 23 27 24 29 26 28 25 27 24 20 17 28 25 29 26 0 0 31 5 30 27 32 4 31 5 0 0 1 1 32 4 0 0 33 28 32 4 1 1 3 3 33 28 1 1 34 29 33 28 3 3 35 28 34 29 3 3 36 30 34 29 35 28 37 31 36 30 35 28 38 32 18 15 16 13 39 33 18 15 38 32 40 34 39 33 38 32 41 35 39 33 40 34 42 36 41 35 40 34 43 37 41 35 42 36 44 38 43 37 42 36 47 40 46 39 45 10 48 41 46 39 47 40 49 42 48 41 47 40 37 31 48 41 49 42 33 28 37 31 49 42 50 43 37 31 33 28 38 32 42 36 40 34 51 44 42 36 38 32 16 45 51 44 38 32 52 46 51 44 16 45 14 11 52 46 16 45 12 9 52 46 14 11 54 8 45 10 53 47 55 48 45 10 54 8 56 49 55 48 54 8 49 42 55 48 56 49 33 28 49 42 56 49 15 12 57 50 45 10 58 51 57 50 15 12 59 52 58 51 15 12 60 53 58 51 59 52 20 54 60 53 59 52 10 7 61 55 12 9 44 38 61 55 10 7 62 56 44 38 10 7 43 57 44 38 62 56 63 58 43 57 62 56 64 42 37 31 35 28 48 41 37 31 64 42 65 40 48 41 64 42 46 39 48 41 65 40 13 10 46 39 65 40 51 44 44 38 42 36 61 55 44 38 51 44 52 46 61 55 51 44 12 9 61 55 52 46 68 61 67 60 66 59 31 5 67 60 68 61 69 62 31 5 68 61 30 27 31 5 69 62 18 15 20 54 59 52 70 63 20 54 18 15 39 33 70 63 18 15 71 35 70 63 39 33 56 49 32 4 33 28 72 6 32 4 56 49 54 8 72 6 56 49 67 60 72 6 54 8 73 49 64 42 35 28 74 48 64 42 73 49 11 8 74 48 73 49 13 10 74 48 11 8 22 19 28 25 20 17 26 23 28 25 22 19 24 21 26 23 22 19 75 65 67 60 23 64 66 59 67 60 75 65 76 37 66 59 75 65 78 68 36 67 77 66 79 69 36 67 78 68 50 70 79 69 78 68 60 53 57 50 58 51 29 71 57 50 60 53 20 72 29 71 60 53 80 73 15 12 45 10 13 10 15 12 80 73 46 39 13 10 80 73 73 49 9 6 11 8 7 4 9 6 73 49 35 28 7 4 73 49 55 48 47 40 45 10 49 42 47 40 55 48 57 50 27 24 25 22 29 26 27 24 57 50 79 69 34 29 36 30 50 43 34 29 79 69 77 66 37 31 50 43 36 30 37 31 77 66 72 6 31 5 32 4 67 60 31 5 72 6 81 74 39 33 41 35 71 35 39 33 81 74 5 1 35 28 3 3 7 4 35 28 5 1 17 14 59 52 15 12 18 15 59 52 17 14 82 27 8 5 6 0 83 62 8 5 82 27 19 75 70 63 71 35 20 54 70 63 19 75 75 65 21 18 76 37 23 20 21 18 75 65 67 60 25 22 23 76 54 77 25 22 67 60 53 47 25 22 54 77 57 50 25 22 53 47 65 40 74 48 13 10 64 42 74 48 65 40 83 62 10 7 8 5 63 58 10 7 83 62 53 47 45 10 57 50 34 29 50 43 33 28 80 73 45 10 46 39 50 70 78 68 77 66 66 56 76 57 68 58 21 78 71 35 76 37 62 56 10 7 63 58 21 80 19 16 71 79</p>
                </polylist>
            </mesh>
        </geometry>
        <geometry id="mesh0_1">
            <mesh>
                <source id="points0_1">
                    <float_array id="pointarray0_1" count="252">-14.15625 -12.806640625 19.572265625 -22.951171875 -20.12109375 14.201171875 -23.828125 -9.55859375 9.37890625 -28.294921875 -19.595703125 -0.439453125 -23.828125 -9.55859375 -9.37890625 -22.951171875 -20.12109375 -15.08203125 -14.15625 -12.806640625 -19.572265625 -16.9765625 -23.376953125 -23.447265625 -3.646484375 -21.943359375 -25.42578125 -7.869140625 -30.162109375 -25.611328125 11.435546875 -29.841796875 -24.712890625 6.65625 -38.896484375 -20.10546875 16.904296875 -37.75390625 -15.0234375 10.1640625 -43.208984375 -11.263671875 18.74609375 -36.912109375 -5.771484375 19.64453125 -38.982421875 -0.439453125 25.6875 -32.7265625 -8.080078125 29.763671875 -36.869140625 -0.736328125 29.953125 -31.72265625 -0.751953125 22.84765625 -29.05078125 10.03515625 25.314453125 -33.80859375 10.544921875 20.603515625 -25.29296875 12.888671875 23.134765625 -30.552734375 16.611328125 16.728515625 -29.08203125 21.935546875 19.8515625 -32.53125 20.958984375 15.40234375 -34.908203125 19.01953125 23.369140625 -35.90625 18.318359375 21 -37.486328125 12.484375 24.4765625 -35.404296875 14.40625 25.154296875 -37.7421875 13.1171875 -6.171875 -15.58984375 21.322265625 -3.623046875 -21.40625 24.583984375 -16.9765625 -23.376953125 22.564453125 -22.62109375 -31.49609375 11.583984375 -27.3828125 -30.607421875 -0.439453125 -22.505859375 -31.640625 -12.59375 -26.25 -33.873046875 -6.2109375 -23.48046875 -36.58984375 -0.439453125 24.501953125 -29.08984375 -8.59765625 27.60546875 -26.2421875 -3.669921875 24.478515625 -27.873046875 -7.8125 18.666015625 -27.76171875 -9.50390625 19.107421875 -24.810546875 -12.61328125 15.259765625 -25.033203125 -17.640625 16.34375 -25.61328125 -19.40625 9.23046875 -43.1953125 10.80078125 -2.013671875 -48.275390625 -0.439453125 -0.796875 -46.025390625 9.833984375 -16.1484375 -44.884765625 -0.439453125 -13.478515625 -42.654296875 10.7890625 -25.712890625 -34.001953125 7.220703125 25.232421875 -27.64453125 -15.095703125 24.962890625 -33.68359375 -14.771484375 12.892578125 -40.232421875 15.19921875 7.298828125 -38.779296875 20.703125 1.79296875 -42.177734375 15.005859375 -11.140625 -37.158203125 19.66015625 19.93359375 -37.912109375 9.173828125 23.95703125 -39.572265625 5.7109375 29.86328125 -37.775390625 4.87109375 25.271484375 -41.12890625 9.328125 20.681640625 -32.330078125 -20.677734375 12.056640625 -22.4765625 -21.58984375 8.0546875 -22.009765625 -21.330078125 -13.150390625 -42.69921875 -11.974609375 -0.90625 -46.255859375 -10.908203125 12.318359375 -22.20703125 21.150390625 9.115234375 -29.81640625 25.306640625 8.0546875 -22.009765625 21.33203125 2.9765625 -19.744140625 24.375 25.611328125 -25.7421875 3.400390625 18.666015625 -27.76171875 9.50390625 -7.94921875 -30.44140625 24.875 -10.79296875 -37.080078125 -21.501953125 1.7890625 -42.453125 -15.4609375 16.9609375 -25.9921875 18.705078125 15.259765625 -25.033203125 17.640625 -24.8359375 -40.724609375 -0.439453125 -26.310546875 -33.53515625 -0.439453125 -30.97265625 -30.46875 0.154296875 10.1640625 -44.6875 -0.111328125 20.96875 -28.333984375 0 -6.171875 -15.58984375 -21.322265625 2.9765625 -19.744140625 -24.375</float_array>
                    <technique_common>
                        <accessor count="84" source="#pointarray0_1" stride="3">
                            <param name="X" type="float"/>
                            <param name="Y" type="float"/>
                            <param name="Z" type="float"/>
                        </accessor>
                    </technique_common>
                </source>
                <source id="uvs0_1">
                    <float_array id="uvarray0_1" count="168">0.8203125 0.73828125 0.703125 0.890625 0.65625 0.90234375 0.5 0.94921875 0.34765625 0.90625 0.296875 0.8984375 0.1796875 0.74609375 0.1796875 0.796875 0.07421875 0.57421875 0.1015625 0.6484375 0.07421875 0.3203125 0.13671875 0.41796875 0.25390625 0.2265625 0.34375 0.35546875 0.40625 0.1953125 0.4921875 0.1796875 0.3671875 0.078125 0.49609375 0.02734375 0.49609375 0.0234375 0.65625 0.1171875 0.6875 0.03515625 0.7109375 0.16015625 0.7734375 0.0546875 0.88671875 0.15234375 0.88671875 0.09375 0.8359375 0.21875 0.828125 0.0390625 0.73828125 0.09765625 0.74609375 0.03515625 0.70703125 0.078125 0.84765625 0.6015625 0.921875 0.5625 0.8203125 0.7890625 0.64453125 0.89453125 0.5 0.9140625 0.359375 0.8984375 0.41015625 0.90234375 0.5 0.85546875 0.359375 0.09765625 0.44140625 0.09375 0.390625 0.13671875 0.33984375 0.19140625 0.29296875 0.19140625 0.20703125 0.25390625 0.18359375 0.23828125 0.6484375 0.3515625 0.49609375 0.52734375 0.63671875 0.5078125 0.5 0.73046875 0.6640625 0.71875 0.62109375 0.890625 0.25390625 0.08984375 0.2578125 0.09375 0.7421875 0.28515625 0.8984375 0.37890625 0.75 0.4765625 0.80078125 0.69140625 0.6484375 0.171875 0.6015625 0.08203125 0.5859375 0.02734375 0.66796875 0.0390625 0.1640625 0.16796875 0.140625 0.30859375 0.1484375 0.375 0.33203125 0.72265625 0.35546875 0.51171875 0.84765625 0.296875 0.9375 0.3515625 0.84375 0.36328125 0.89453125 0.44921875 0.5546875 0.10546875 0.6484375 0.1875 0.89453125 0.63671875 0.19921875 0.69921875 0.24609375 0.48046875 0.8046875 0.21875 0.78125 0.24609375 0.5 0.87890625 0.5 0.90234375 0.51171875 0.9765625 0.49609375 0.35546875 0.4921875 0.15234375 0.1484375 0.61328125 0.09765625 0.4609375</float_array>
                    <technique_common>
                        <accessor count="84" source="#uvarray0_1" stride="2">
                            <param name="S" type="float"/>
                            <param name="T" type="float"/>
                        </accessor>
                    </technique_common>
                </source>
                <vertices id="vertices0_1">
                    <input semantic="POSITION" source="#points0_1"/>
                </vertices>
                <polylist count="151" material="Material1">
                    <input offset="0" semantic="VERTEX" source="#vertices0_1"/>
                    <input offset="1" semantic="TEXCOORD" source="#uvs0_1" set="0"/>
                    <vcount>3 3 3 3 3 3 3 3 3 3 3 3 3 3 3 3 3 3 3 3 3 3 3 3 3 3 3 3 3 3 3 3 3 3 3 3 3 3 3 3 3 3 3 3 3 3 3 3 3 3 3 3 3 3 3 3 3 3 3 3 3 3 3 3 3 3 3 3 3 3 3 3 3 3 3 3 3 3 3 3 3 3 3 3 3 3 3 3 3 3 3 3 3 3 3 3 3 3 3 3 3 3 3 3 3 3 3 3 3 3 3 3 3 3 3 3 3 3 3 3 3 3 3 3 3 3 3 3 3 3 3 3 3 3 3 3 3 3 3 3 3 3 3 3 3 3 3 3 3 3 3</vcount>
                    <p>2 2 1 1 0 0 3 3 1 1 2 2 4 4 3 3 2 2 5 5 3 3 4 4 6 6 5 5 4 4 7 7 5 5 6 6 8 8 7 7 6 6 9 9 7 7 8 8 10 10 9 9 8 8 11 11 9 9 10 10 12 12 11 11 10 10 13 13 11 11 12 12 14 14 13 13 12 12 15 15 13 13 14 14 16 16 15 15 14 14 17 17 15 15 16 16 18 18 17 17 16 16 21 21 20 20 19 19 22 22 20 20 21 21 23 23 22 22 21 21 24 24 22 22 23 23 25 25 24 24 23 23 26 26 24 24 25 25 27 27 26 26 25 25 28 28 26 26 27 27 29 29 28 28 27 27 20 20 28 28 29 29 0 0 31 31 30 30 32 32 31 31 0 0 1 1 32 32 0 0 33 33 32 32 1 1 3 3 33 33 1 1 34 34 33 33 3 3 35 35 34 34 3 3 36 36 34 34 35 35 37 37 36 36 35 35 38 38 18 18 16 16 39 39 18 18 38 38 40 40 39 39 38 38 41 41 39 39 40 40 42 42 41 41 40 40 43 43 41 41 42 42 44 44 43 43 42 42 47 47 46 46 45 45 48 48 46 46 47 47 49 49 48 48 47 47 37 37 48 48 49 49 33 33 37 37 49 49 50 50 37 37 33 33 38 38 42 42 40 40 51 51 42 42 38 38 16 16 51 51 38 38 52 52 51 51 16 16 14 14 52 52 16 16 12 12 52 52 14 14 54 54 45 45 53 53 55 55 45 45 54 54 56 56 55 55 54 54 49 49 55 55 56 56 33 33 49 49 56 56 15 15 57 57 45 45 58 58 57 57 15 15 59 59 58 58 15 15 60 60 58 58 59 59 20 20 60 60 59 59 10 10 61 61 12 12 44 44 61 61 10 10 62 62 44 44 10 10 43 43 44 44 62 62 63 63 43 43 62 62 64 64 37 37 35 35 48 48 37 37 64 64 65 65 48 48 64 64 46 46 48 48 65 65 13 13 46 46 65 65 51 51 44 44 42 42 61 61 44 44 51 51 52 52 61 61 51 51 12 12 61 61 52 52 68 68 67 67 66 66 31 31 67 67 68 68 69 69 31 31 68 68 30 30 31 31 69 69 18 18 20 20 59 59 70 70 20 20 18 18 39 39 70 70 18 18 71 71 70 70 39 39 56 56 32 32 33 33 72 72 32 32 56 56 54 54 72 72 56 56 67 67 72 72 54 54 73 73 64 64 35 35 74 74 64 64 73 73 11 11 74 74 73 73 13 13 74 74 11 11 22 22 28 28 20 20 26 26 28 28 22 22 24 24 26 26 22 22 75 75 67 67 23 23 66 66 67 67 75 75 76 76 66 66 75 75 78 78 36 36 77 77 79 79 36 36 78 78 50 50 79 79 78 78 60 60 57 57 58 58 29 29 57 57 60 60 20 20 29 29 60 60 80 80 15 15 45 45 13 13 15 15 80 80 46 46 13 13 80 80 73 73 9 9 11 11 7 7 9 9 73 73 35 35 7 7 73 73 55 55 47 47 45 45 49 49 47 47 55 55 57 57 27 27 25 25 29 29 27 27 57 57 79 79 34 34 36 36 50 50 34 34 79 79 77 77 37 37 50 50 36 36 37 37 77 77 72 72 31 31 32 32 67 67 31 31 72 72 81 81 39 39 41 41 71 71 39 39 81 81 5 5 35 35 3 3 7 7 35 35 5 5 17 17 59 59 15 15 18 18 59 59 17 17 82 82 8 8 6 6 83 83 8 8 82 82 19 19 70 70 71 71 20 20 70 70 19 19 75 75 21 21 76 76 23 23 21 21 75 75 67 67 25 25 23 23 54 54 25 25 67 67 53 53 25 25 54 54 57 57 25 25 53 53 65 65 74 74 13 13 64 64 74 74 65 65 83 83 10 10 8 8 63 63 10 10 83 83 53 53 45 45 57 57 34 34 50 50 33 33 80 80 45 45 46 46 50 50 78 78 77 77 66 66 76 76 68 68 21 21 71 71 76 76 62 62 10 10 63 63 21 21 19 19 71 71</p>
                </polylist>
            </mesh>
        </geometry>
        <geometry id="mesh0_2">
            <mesh>
                <source id="points0_2">
                    <float_array id="pointarray0_2" count="252">-14.15625 -12.806640625 19.572265625 -22.951171875 -20.12109375 14.201171875 -23.828125 -9.55859375 9.37890625 -28.294921875 -19.595703125 -0.439453125 -23.828125 -9.55859375 -9.37890625 -22.951171875 -20.12109375 -15.08203125 -14.15625 -12.806640625 -19.572265625 -16.9765625 -23.376953125 -23.447265625 -3.646484375 -21.943359375 -25.42578125 -7.869140625 -30.162109375 -25.611328125 11.435546875 -29.841796875 -24.712890625 6.65625 -38.896484375 -20.10546875 16.904296875 -37.75390625 -15.0234375 10.1640625 -43.208984375 -11.263671875 18.74609375 -36.912109375 -5.771484375 19.64453125 -38.982421875 -0.439453125 25.6875 -32.7265625 -8.080078125 29.763671875 -36.869140625 -0.736328125 29.953125 -31.72265625 -0.751953125 22.84765625 -29.05078125 10.03515625 25.314453125 -33.80859375 10.544921875 20.603515625 -25.29296875 12.888671875 23.134765625 -30.552734375 16.611328125 16.728515625 -29.08203125 21.935546875 19.8515625 -32.53125 20.958984375 15.40234375 -34.908203125 19.01953125 23.369140625 -35.90625 18.318359375 21 -37.486328125 12.484375 24.4765625 -35.404296875 14.40625 25.154296875 -37.7421875 13.1171875 -6.171875 -15.58984375 21.322265625 -3.623046875 -21.40625 24.583984375 -16.9765625 -23.376953125 22.564453125 -22.62109375 -31.49609375 11.583984375 -27.3828125 -30.607421875 -0.439453125 -22.505859375 -31.640625 -12.59375 -26.25 -33.873046875 -6.2109375 -23.48046875 -36.58984375 -0.439453125 24.501953125 -29.08984375 -8.59765625 27.60546875 -26.2421875 -3.669921875 24.478515625 -27.873046875 -7.8125 18.666015625 -27.76171875 -9.50390625 19.107421875 -24.810546875 -12.61328125 15.259765625 -25.033203125 -17.640625 16.34375 -25.61328125 -19.40625 9.23046875 -43.1953125 10.80078125 -2.013671875 -48.275390625 -0.439453125 -0.796875 -46.025390625 9.833984375 -16.1484375 -44.884765625 -0.439453125 -13.478515625 -42.654296875 10.7890625 -25.712890625 -34.001953125 7.220703125 25.232421875 -27.64453125 -15.095703125 24.962890625 -33.68359375 -14.771484375 12.892578125 -40.232421875 15.19921875 7.298828125 -38.779296875 20.703125 1.79296875 -42.177734375 15.005859375 -11.140625 -37.158203125 19.66015625 19.93359375 -37.912109375 9.173828125 23.95703125 -39.572265625 5.7109375 29.86328125 -37.775390625 4.87109375 25.271484375 -41.12890625 9.328125 20.681640625 -32.330078125 -20.677734375 12.056640625 -22.4765625 -21.58984375 8.0546875 -22.009765625 -21.330078125 -13.150390625 -42.69921875 -11.974609375 -0.90625 -46.255859375 -10.908203125 12.318359375 -22.20703125 21.150390625 9.115234375 -29.81640625 25.306640625 8.0546875 -22.009765625 21.33203125 2.9765625 -19.744140625 24.375 25.611328125 -25.7421875 3.400390625 18.666015625 -27.76171875 9.50390625 -7.94921875 -30.44140625 24.875 -10.79296875 -37.080078125 -21.501953125 1.7890625 -42.453125 -15.4609375 16.9609375 -25.9921875 18.705078125 15.259765625 -25.033203125 17.640625 -24.8359375 -40.724609375 -0.439453125 -26.310546875 -33.53515625 -0.439453125 -30.97265625 -30.46875 0.154296875 10.1640625 -44.6875 -0.111328125 20.96875 -28.333984375 0 -6.171875 -15.58984375 -21.322265625 2.9765625 -19.744140625 -24.375</float_array>
                    <technique_common>
                        <accessor count="84" source="#pointarray0_2" stride="3">
                            <param name="X" type="float"/>
                            <param name="Y" type="float"/>
                            <param name="Z" type="float"/>
                        </accessor>
                    </technique_common>
                </source>
                <source id="uvs0_2">
                    <float_array id="uvarray0_2" count="182">0.65234375 0.7109375 0.58984375 0.6171875 0.55859375 0.75 0.49609375 0.62109375 0.4375 0.75 0.40625 0.6171875 0.34375 0.7109375 0.34765625 0.57421875 0.26953125 0.59375 0.29296875 0.484375 0.17578125 0.48828125 0.19140625 0.375 0.109375 0.38671875 0.125 0.31640625 0.04296875 0.3984375 0 0.37109375 0.04296875 0.453125 0 0.3984375 0 0.46484375 0.93359375 0.5 0.9375 0.4375 0.91015625 0.546875 0.8984375 0.48046875 0.85546875 0.5 0.87109375 0.45703125 0.859375 0.42578125 0.89453125 0.41015625 0.9140625 0.390625 0.9140625 0.41796875 0.921875 0.38671875 0.70703125 0.67578125 0.7265625 0.59765625 0.6484375 0.57421875 0.57421875 0.46875 0.49609375 0.48046875 0.41796875 0.46484375 0.4609375 0.4375 0.49609375 0.40234375 0.05078125 0.5 0.01953125 0.53515625 0.046875 0.515625 0.0703125 0.515625 0.08984375 0.5546875 0.1328125 0.55078125 0.1328125 0.54296875 0.86328125 0.31640625 0.46875 0.25 0.7421875 0.28125 0.49609375 0.296875 0.609375 0.32421875 0.54296875 0.4375 0.08203125 0.51953125 0.08203125 0.44140625 0.86328125 0.35546875 0.8046875 0.375 0.7734375 0.33203125 0.66796875 0.39453125 0.9296875 0.38671875 1 0.37109375 0.9609375 0.36328125 0.97265625 0.38671875 0.94140625 0.34375 0.12109375 0.45703125 0.1640625 0.5859375 0.1875 0.58984375 0.37890625 0.32421875 0.25390625 0.27734375 0.8359375 0.58984375 0.8046875 0.4921875 0.80859375 0.58984375 0.76953125 0.62109375 1 0.46484375 0.9765625 0.54296875 1.01953125 0.53515625 0.921875 0.515625 0.703125 0.48046875 0.3203125 0.3984375 0.22265625 0.328125 0.8671875 0.5390625 0.86328125 0.55078125 0.49609375 0.34765625 0.49609375 0.44140625 0.5 0.48046875 0.99609375 0.296875 1.125 0.31640625 1.46875 0.25 1.0703125 0.515625 0.99609375 0.5078125 1 0.3984375 0.2890625 0.67578125 0.2265625 0.62109375</float_array>
                    <technique_common>
                        <accessor count="91" source="#uvarray0_2" stride="2">
                            <param name="S" type="float"/>
                            <param name="T" type="float"/>
                        </accessor>
                    </technique_common>
                </source>
                <vertices id="vertices0_2">
                    <input semantic="POSITION" source="#points0_2"/>
                </vertices>
                <polylist count="151" material="Material1">
                    <input offset="0" semantic="VERTEX" source="#vertices0_2"/>
                    <input offset="1" semantic="TEXCOORD" source="#uvs0_2" set="0"/>
                    <vcount>3 3 3 3 3 3 3 3 3 3 3 3 3 3 3 3 3 3 3 3 3 3 3 3 3 3 3 3 3 3 3 3 3 3 3 3 3 3 3 3 3 3 3 3 3 3 3 3 3 3 3 3 3 3 3 3 3 3 3 3 3 3 3 3 3 3 3 3 3 3 3 3 3 3 3 3 3 3 3 3 3 3 3 3 3 3 3 3 3 3 3 3 3 3 3 3 3 3 3 3 3 3 3 3 3 3 3 3 3 3 3 3 3 3 3 3 3 3 3 3 3 3 3 3 3 3 3 3 3 3 3 3 3 3 3 3 3 3 3 3 3 3 3 3 3 3 3 3 3 3 3</vcount>
                    <p>2 2 1 1 0 0 3 3 1 1 2 2 4 4 3 3 2 2 5 5 3 3 4 4 6 6 5 5 4 4 7 7 5 5 6 6 8 8 7 7 6 6 9 9 7 7 8 8 10 10 9 9 8 8 11 11 9 9 10 10 12 12 11 11 10 10 13 13 11 11 12 12 14 14 13 13 12 12 15 15 13 13 14 14 16 16 15 15 14 14 17 17 15 15 16 16 18 18 17 17 16 16 21 21 20 20 19 19 22 22 20 20 21 21 23 23 22 22 21 21 24 24 22 22 23 23 25 25 24 24 23 23 26 26 24 24 25 25 27 27 26 26 25 25 28 28 26 26 27 27 29 29 28 28 27 27 20 20 28 28 29 29 0 0 31 31 30 30 32 32 31 31 0 0 1 1 32 32 0 0 33 33 32 32 1 1 3 3 33 33 1 1 34 34 33 33 3 3 35 35 34 34 3 3 36 36 34 34 35 35 37 37 36 36 35 35 38 38 18 18 16 16 39 39 18 18 38 38 40 40 39 39 38 38 41 41 39 39 40 40 42 42 41 41 40 40 43 43 41 41 42 42 44 44 43 43 42 42 47 47 46 46 45 45 48 48 46 46 47 47 49 49 48 48 47 47 37 37 48 48 49 49 33 33 37 37 49 49 50 50 37 37 33 33 38 38 42 42 40 40 51 51 42 42 38 38 16 16 51 51 38 38 52 52 51 51 16 16 14 14 52 52 16 16 12 12 52 52 14 14 54 54 45 45 53 53 55 55 45 45 54 54 56 56 55 55 54 54 49 49 55 55 56 56 33 33 49 49 56 56 15 58 57 57 45 45 58 59 57 57 15 58 59 60 58 59 15 58 60 61 58 59 59 60 20 20 60 61 59 60 10 10 61 62 12 12 44 44 61 62 10 10 62 63 44 44 10 10 43 43 44 44 62 63 63 64 43 43 62 63 64 65 37 37 35 35 48 48 37 37 64 65 65 66 48 48 64 65 46 46 48 48 65 66 13 13 46 46 65 66 51 51 44 44 42 42 61 62 44 44 51 51 52 52 61 62 51 51 12 12 61 62 52 52 68 69 67 68 66 67 31 31 67 68 68 69 69 70 31 31 68 69 30 30 31 31 69 70 18 71 20 20 59 60 70 72 20 20 18 71 39 73 70 72 18 71 71 74 70 72 39 73 56 56 32 32 33 33 72 75 32 32 56 56 54 54 72 75 56 56 67 68 72 75 54 54 73 76 64 65 35 35 74 77 64 65 73 76 11 11 74 77 73 76 13 13 74 77 11 11 22 22 28 28 20 20 26 26 28 28 22 22 24 24 26 26 22 22 75 78 67 68 23 23 66 67 67 68 75 78 76 79 66 67 75 78 78 81 36 36 77 80 79 82 36 36 78 81 50 50 79 82 78 81 60 61 57 57 58 59 29 29 57 57 60 61 20 20 29 29 60 61 80 83 15 58 45 45 13 84 15 58 80 83 46 85 13 84 80 83 73 76 9 9 11 11 7 7 9 9 73 76 35 35 7 7 73 76 55 55 47 47 45 45 49 49 47 47 55 55 57 57 27 27 25 25 29 29 27 27 57 57 79 82 34 34 36 36 50 50 34 34 79 82 77 80 37 37 50 50 36 36 37 37 77 80 72 75 31 31 32 32 67 68 31 31 72 75 81 87 39 73 41 86 71 74 39 73 81 87 5 5 35 35 3 3 7 7 35 35 5 5 17 88 59 60 15 58 18 71 59 60 17 88 82 89 8 8 6 6 83 90 8 8 82 89 19 19 70 72 71 74 20 20 70 72 19 19 75 78 21 21 76 79 23 23 21 21 75 78 67 68 25 25 23 23 54 54 25 25 67 68 53 53 25 25 54 54 57 57 25 25 53 53 65 66 74 77 13 13 64 65 74 77 65 66 83 90 10 10 8 8 63 64 10 10 83 90 53 53 45 45 57 57 34 34 50 50 33 33 80 83 45 45 46 46 50 50 78 81 77 80 66 67 76 79 68 69 21 21 71 74 76 79 62 63 10 10 63 64 21 21 19 19 71 74</p>
                </polylist>
            </mesh>
        </geometry>
    </library_geometries>
    <library_controllers>
        <controller id="controller0">
            <skin source="#mesh0">
                <bind_shape_matrix>1 0 0 0 0 1 0 0 0 0 1 0 0 0 0 1</bind_shape_matrix>
                <source id="joints0">
                    <Name_array id="JointArr0" count="4">jointnode-1 jointnode0 jointnode1 jointnode2</Name_array>
                    <technique_common>
                        <accessor source="#JointArr0" count="4">
                            <param name="JOINT" type="Name" />
                        </accessor>
                    </technique_common>
                </source>
                <source id="matrices0">
                    <float_array id="MatArr0" count="64">1 0 0 0 0 1 0 0 0 0 1 0 0 0 0 1 1 0 0 0 0 1 0 0 0 0 1 0 0 0 0 1 1 0 0 0 0 1 0 0 0 0 1 0 0 0 0 1 1 0 0 0 0 1 0 0 0 0 1 0 0 0 0 1</float_array>
                    <technique_common>
                        <accessor source="#MatArr0" count="4" stride="16">
                            <param type="float4x4" />
                        </accessor>
                    </technique_common>
                </source>
                <source id="weights0">
                    <float_array id="WeightArr0" count="7">1 0.800000011920929 0.20000000298023224 0.6000000238418579 0.4000000059604645 0.699999988079071 0.30000001192092896</float_array>
                    <technique_common>
                        <accessor source="#WeightArr0" count="1">
                            <param type="float" />
                        </accessor>
                    </technique_common>
                </source>
                <joints>
                    <input semantic="JOINT" source="#joints0" />
                    <input semantic="INV_BIND_MATRIX" source="#matrices0" />
                </joints>
                <vertex_weights count="84">
                    <input semantic="JOINT" offset="0" source="#joints0" />
                    <input semantic="WEIGHT" offset="1" source="#weights0" />
                    <vcount>1 1 1 1 1 1 1 1 1 1 2 1 1 1 1 1 2 2 2 1 2 1 2 2 2 1 2 2 2 2 1 1 1 1 1 1 1 1 1 1 1 1 1 1 1 1 1 1 1 1 1 1 2 1 1 1 1 1 2 2 2 2 1 1 1 1 1 1 1 1 1 1 1 1 1 1 1 2 1 2 1 1 1 1</vcount>
                    <v>2 0 2 0 2 0 2 0 2 0 2 0 2 0 2 0 2 0 2 0 2 1 3 2 2 0 2 0 2 0 2 0 2 0 2 3 3 4 2 4 3 3 2 3 3 4 2 0 2 3 3 4 2 0 2 3 3 4 2 1 3 2 2 3 3 4 2 0 2 4 3 3 2 4 3 3 2 4 3 3 2 4 3 3 2 0 2 0 2 0 2 0 2 0 2 0 2 0 2 0 2 0 2 0 2 0 2 0 2 0 2 0 2 0 2 0 2 0 2 0 2 0 2 0 2 0 2 0 2 3 3 4 2 0 2 0 2 0 2 0 2 0 2 4 3 3 2 4 3 3 2 4 3 3 2 3 3 4 2 0 2 0 2 0 2 0 2 0 2 0 2 0 2 0 2 0 2 0 2 0 2 0 2 0 2 0 2 0 2 5 3 6 2 0 2 5 3 6 2 0 2 0 2 0 2 0</v>
                </vertex_weights>
            </skin>
        </controller>
        <controller id="controller0_1">
            <skin source="#mesh0_1">
                <bind_shape_matrix>1 0 0 0 0 1 0 0 0 0 1 0 0 0 0 1</bind_shape_matrix>
                <source id="joints0_1">
                    <Name_array id="JointArr0_1" count="4">jointnode-1 jointnode0 jointnode1 jointnode2</Name_array>
                    <technique_common>
                        <accessor source="#JointArr0_1" count="4">
                            <param name="JOINT" type="Name" />
                        </accessor>
                    </technique_common>
                </source>
                <source id="matrices0_1">
                    <float_array id="MatArr0_1" count="64">1 0 0 0 0 1 0 0 0 0 1 0 0 0 0 1 1 0 0 0 0 1 0 0 0 0 1 0 0 0 0 1 1 0 0 0 0 1 0 0 0 0 1 0 0 0 0 1 1 0 0 0 0 1 0 0 0 0 1 0 0 0 0 1</float_array>
                    <technique_common>
                        <accessor source="#MatArr0_1" count="4" stride="16">
                            <param type="float4x4" />
                        </accessor>
                    </technique_common>
                </source>
                <source id="weights0_1">
                    <float_array id="WeightArr0_1" count="7">1 0.800000011920929 0.20000000298023224 0.6000000238418579 0.4000000059604645 0.699999988079071 0.30000001192092896</float_array>
                    <technique_common>
                        <accessor source="#WeightArr0_1" count="1">
                            <param type="float" />
                        </accessor>
                    </technique_common>
                </source>
                <joints>
                    <input semantic="JOINT" source="#joints0_1" />
                    <input semantic="INV_BIND_MATRIX" source="#matrices0_1" />
                </joints>
                <vertex_weights count="84">
                    <input semantic="JOINT" offset="0" source="#joints0_1" />
                    <input semantic="WEIGHT" offset="1" source="#weights0_1" />
                    <vcount>1 1 1 1 1 1 1 1 1 1 2 1 1 1 1 1 2 2 2 1 2 1 2 2 2 1 2 2 2 2 1 1 1 1 1 1 1 1 1 1 1 1 1 1 1 1 1 1 1 1 1 1 2 1 1 1 1 1 2 2 2 2 1 1 1 1 1 1 1 1 1 1 1 1 1 1 1 2 1 2 1 1 1 1</vcount>
                    <v>2 0 2 0 2 0 2 0 2 0 2 0 2 0 2 0 2 0 2 0 2 1 3 2 2 0 2 0 2 0 2 0 2 0 2 3 3 4 2 4 3 3 2 3 3 4 2 0 2 3 3 4 2 0 2 3 3 4 2 1 3 2 2 3 3 4 2 0 2 4 3 3 2 4 3 3 2 4 3 3 2 4 3 3 2 0 2 0 2 0 2 0 2 0 2 0 2 0 2 0 2 0 2 0 2 0 2 0 2 0 2 0 2 0 2 0 2 0 2 0 2 0 2 0 2 0 2 0 2 3 3 4 2 0 2 0 2 0 2 0 2 0 2 4 3 3 2 4 3 3 2 4 3 3 2 3 3 4 2 0 2 0 2 0 2 0 2 0 2 0 2 0 2 0 2 0 2 0 2 0 2 0 2 0 2 0 2 0 2 5 3 6 2 0 2 5 3 6 2 0 2 0 2 0 2 0</v>
                </vertex_weights>
            </skin>
        </controller>
        <controller id="controller0_2">
            <skin source="#mesh0_2">
                <bind_shape_matrix>1 0 0 0 0 1 0 0 0 0 1 0 0 0 0 1</bind_shape_matrix>
                <source id="joints0_2">
                    <Name_array id="JointArr0_2" count="4">jointnode-1 jointnode0 jointnode1 jointnode2</Name_array>
                    <technique_common>
                        <accessor source="#JointArr0_2" count="4">
                            <param name="JOINT" type="Name" />
                        </accessor>
                    </technique_common>
                </source>
                <source id="matrices0_2">
                    <float_array id="MatArr0_2" count="64">1 0 0 0 0 1 0 0 0 0 1 0 0 0 0 1 1 0 0 0 0 1 0 0 0 0 1 0 0 0 0 1 1 0 0 0 0 1 0 0 0 0 1 0 0 0 0 1 1 0 0 0 0 1 0 0 0 0 1 0 0 0 0 1</float_array>
                    <technique_common>
                        <accessor source="#MatArr0_2" count="4" stride="16">
                            <param type="float4x4" />
                        </accessor>
                    </technique_common>
                </source>
                <source id="weights0_2">
                    <float_array id="WeightArr0_2" count="7">1 0.800000011920929 0.20000000298023224 0.6000000238418579 0.4000000059604645 0.699999988079071 0.30000001192092896</float_array>
                    <technique_common>
                        <accessor source="#WeightArr0_2" count="1">
                            <param type="float" />
                        </accessor>
                    </technique_common>
                </source>
                <joints>
                    <input semantic="JOINT" source="#joints0_2" />
                    <input semantic="INV_BIND_MATRIX" source="#matrices0_2" />
                </joints>
                <vertex_weights count="84">
                    <input semantic="JOINT" offset="0" source="#joints0_2" />
                    <input semantic="WEIGHT" offset="1" source="#weights0_2" />
                    <vcount>1 1 1 1 1 1 1 1 1 1 2 1 1 1 1 1 2 2 2 1 2 1 2 2 2 1 2 2 2 2 1 1 1 1 1 1 1 1 1 1 1 1 1 1 1 1 1 1 1 1 1 1 2 1 1 1 1 1 2 2 2 2 1 1 1 1 1 1 1 1 1 1 1 1 1 1 1 2 1 2 1 1 1 1</vcount>
                    <v>2 0 2 0 2 0 2 0 2 0 2 0 2 0 2 0 2 0 2 0 2 1 3 2 2 0 2 0 2 0 2 0 2 0 2 3 3 4 2 4 3 3 2 3 3 4 2 0 2 3 3 4 2 0 2 3 3 4 2 1 3 2 2 3 3 4 2 0 2 4 3 3 2 4 3 3 2 4 3 3 2 4 3 3 2 0 2 0 2 0 2 0 2 0 2 0 2 0 2 0 2 0 2 0 2 0 2 0 2 0 2 0 2 0 2 0 2 0 2 0 2 0 2 0 2 0 2 0 2 3 3 4 2 0 2 0 2 0 2 0 2 0 2 4 3 3 2 4 3 3 2 4 3 3 2 3 3 4 2 0 2 0 2 0 2 0 2 0 2 0 2 0 2 0 2 0 2 0 2 0 2 0 2 0 2 0 2 0 2 5 3 6 2 0 2 5 3 6 2 0 2 0 2 0 2 0</v>
                </vertex_weights>
            </skin>
        </controller>
    </library_controllers>
    <library_visual_scenes>
        <visual_scene id="VisualSceneNode">
            <node id="node0" name="m0" type="NODE">
                <instance_controller url="#controller0">
                    <skeleton>#jointnode-1</skeleton>
                    <bind_material>
                        <technique_common>
                            <instance_material symbol="Material1" target="#mat0">
                                <bind_vertex_input semantic="UVSET0" input_semantic="TEXCOORD" input_set="0"></bind_vertex_input>
                            </instance_material>
                        </technique_common>
                    </bind_material>
                </instance_controller>
            </node>
            <node id="node0_1" name="m0_1" type="NODE">
                <instance_controller url="#controller0_1">
                    <skeleton>#jointnode-1</skeleton>
                    <bind_material>
                        <technique_common>
                            <instance_material symbol="Material1" target="#mat0_1">
                                <bind_vertex_input semantic="UVSET0" input_semantic="TEXCOORD" input_set="0"></bind_vertex_input>
                            </instance_material>
                        </technique_common>
                    </bind_material>
                </instance_controller>
            </node>
            <node id="node0_2" name="m0_2" type="NODE">
                <instance_controller url="#controller0_2">
                    <skeleton>#jointnode-1</skeleton>
                    <bind_material>
                        <technique_common>
                            <instance_material symbol="Material1" target="#mat0_2">
                                <bind_vertex_input semantic="UVSET0" input_semantic="TEXCOORD" input_set="0"></bind_vertex_input>
                            </instance_material>
                        </technique_common>
                    </bind_material>
                </instance_controller>
            </node>
            <node id="jointnode-1" name="root" sid="jointnode-1" type="JOINT">
                <node id="jointnode0" name="M_head_cap3" sid="jointnode0" type="JOINT">
                    <node id="jointnode1" name="null_weight_A" sid="jointnode1" type="JOINT">
                        <node id="jointnode2" name="null_weight_B" sid="jointnode2" type="JOINT">
                        </node>
                    </node>
                </node>
            </node>
        </visual_scene>
    </library_visual_scenes>
    <scene>
        <instance_visual_scene url="#VisualSceneNode"></instance_visual_scene>
    </scene>
</COLLADA>
