<?xml version="1.0"?>
<COLLADA xmlns="http://www.collada.org/2005/11/COLLADASchema" version="1.4.1">
    <asset>
        <contributor>
            <authoring_tool>J3D Ripoff Exporter</authoring_tool>
        </contributor>
        <created>2026-07-03T01:45:27.416Z</created>
        <modified>2026-07-03T01:45:27.416Z</modified>
		<unit meter="0.01" name="centimeter" ></unit>
        <up_axis>Y_UP</up_axis>
    </asset>
    <library_images>
        <image id="tex0">
            <init_from>H_ma_new_main_s3tc.png</init_from>
        </image>
        <image id="tex1">
            <init_from>H_ma_polmask_cap_i4.png</init_from>
        </image>
        <image id="tex2">
            <init_from>H_ma_rak_dummy.png</init_from>
        </image>
        <image id="tex3">
            <init_from>H_toon_2_4i.png</init_from>
        </image>
    </library_images>
    <library_effects>
        <effect id="effect0">
            <profile_COMMON>
                <newparam sid="surface0">
                    <surface type="2D">
                        <init_from>tex0</init_from>
                    </surface>
                </newparam>
                <newparam sid="sampler0">
                    <sampler2D>
                        <source>surface0</source>
                    </sampler2D>
                </newparam>
                <technique sid="COMMON">
                    <blinn>
                        <diffuse>
                            <texture texture="sampler0" texcoord="UVSET0"></texture>
                        </diffuse>
                    </blinn>
                </technique>
            </profile_COMMON>
        </effect>
        <effect id="effect0_1">
            <profile_COMMON>
                <newparam sid="surface0_1">
                    <surface type="2D">
                        <init_from>tex1</init_from>
                    </surface>
                </newparam>
                <newparam sid="sampler0_1">
                    <sampler2D>
                        <source>surface0_1</source>
                    </sampler2D>
                </newparam>
                <technique sid="COMMON">
                    <blinn>
                        <diffuse>
                            <texture texture="sampler0_1" texcoord="UVSET0"></texture>
                        </diffuse>
                    </blinn>
                </technique>
            </profile_COMMON>
        </effect>
        <effect id="effect0_2">
            <profile_COMMON>
                <newparam sid="surface0_2">
                    <surface type="2D">
                        <init_from>tex2</init_from>
                    </surface>
                </newparam>
                <newparam sid="sampler0_2">
                    <sampler2D>
                        <source>surface0_2</source>
                    </sampler2D>
                </newparam>
                <technique sid="COMMON">
                    <blinn>
                        <diffuse>
                            <texture texture="sampler0_2" texcoord="UVSET0"></texture>
                        </diffuse>
                    </blinn>
                </technique>
            </profile_COMMON>
        </effect>
    </library_effects>
    <library_materials>
        <material id="mat0" name="_mat_cap">
            <instance_effect url="#effect0"></instance_effect>
        </material>
        <material id="mat0_1" name="_mat_cap_uv2">
            <instance_effect url="#effect0_1"></instance_effect>
        </material>
        <material id="mat0_2" name="_mat_cap_uv3">
            <instance_effect url="#effect0_2"></instance_effect>
        </material>
    </library_materials>
    <library_geometries>
        <geometry id="mesh0">
            <mesh>
                <source id="points0">
                    <float_array id="pointarray0" count="264">22.958984375 -35.322265625 0 23.748046875 -41.115234375 0 21.064453125 -34.1484375 8.685546875 20.97265625 -44.607421875 10.712890625 17.30859375 -30.466796875 15.609375 16.712890625 -40.560546875 18.751953125 9.140625 -34.46875 25.64453125 11.625 -47.810546875 16.078125 5.521484375 -42.08984375 22.564453125 1.34765625 -45.197265625 16.439453125 -8.9609375 -37.36328125 18.150390625 -1.802734375 -46.455078125 9.208984375 -10.919921875 -39.515625 11.70703125 -10.92578125 -40.076171875 0 -22.390625 -29.71875 0 -10.919921875 -39.515625 -11.70703125 -21.958984375 -28.435546875 -9.365234375 -8.9609375 -37.36328125 -18.150390625 9.140625 -34.46875 -25.64453125 -2.732421875 -25.583984375 -28.880859375 -5.904296875 -31.66015625 -26.97265625 -18.974609375 -22.31640625 -22.486328125 -20.810546875 -26.626953125 -16.494140625 -27.796875 -20.771484375 -12.107421875 -26.705078125 -26.2421875 -11.0078125 -30.873046875 -21.845703125 0 -28.9296875 -27.5078125 0 -26.705078125 -26.2421875 11.0078125 -21.958984375 -28.435546875 9.365234375 -20.810546875 -26.626953125 16.494140625 21.064453125 -34.1484375 -8.685546875 17.30859375 -30.466796875 -15.609375 20.97265625 -44.607421875 -10.712890625 16.712890625 -40.560546875 -18.751953125 11.625 -47.810546875 -16.076171875 5.521484375 -42.08984375 -22.564453125 -27.796875 -20.771484375 12.107421875 -28.943359375 -15.173828125 0 -25.962890625 -15.11328125 -12.525390625 -15.8984375 -17.234375 -23.115234375 9.53515625 -23.73828125 -21.833984375 22.7578125 -25.541015625 -21.265625 8.0546875 -22.009765625 -21.33203125 22.8203125 -24.162109375 -20.736328125 15.259765625 -25.033203125 -17.640625 31.185546875 -27.087890625 -16.13671875 18.666015625 -27.76171875 -9.50390625 35.58203125 -29.544921875 -7.953125 20.96875 -28.333984375 0 36.8671875 -29.8359375 0 -0.529296875 -19.716796875 -26.357421875 -14.15625 -12.806640625 -19.572265625 -23.828125 -9.55859375 -9.37890625 -5.904296875 -31.66015625 26.97265625 -2.732421875 -25.583984375 28.880859375 -18.974609375 -22.31640625 22.486328125 -15.8984375 -17.234375 23.115234375 -25.962890625 -15.11328125 12.525390625 -23.828125 -9.55859375 9.37890625 22.80859375 -47.55078125 0 14.744140625 -50.5859375 -10.71484375 16.58203125 -52.826171875 0 8.44140625 -52.744140625 0 9.53515625 -23.73828125 21.833984375 -0.529296875 -19.716796875 26.357421875 -14.15625 -12.806640625 19.572265625 18.666015625 -27.76171875 9.50390625 31.185546875 -27.087890625 16.13671875 15.259765625 -25.033203125 17.640625 22.8203125 -24.162109375 20.73828125 8.0546875 -22.009765625 21.33203125 22.7578125 -25.541015625 21.265625 14.744140625 -50.5859375 10.71484375 6.46875 -50.490234375 9.962890625 1.34765625 -45.197265625 -16.439453125 -1.802734375 -46.455078125 -9.208984375 6.46875 -50.490234375 -9.9609375 1.658203125 -50.373046875 0 31.1328125 -28.537109375 17.01953125 35.6015625 -31.2109375 8.314453125 37.00390625 -31.546875 0 35.58203125 -29.544921875 7.953125 35.6015625 -31.2109375 -8.314453125 31.1328125 -28.537109375 -17.01953125 2.9765625 -19.744140625 24.375 -6.171875 -15.58984375 21.322265625 2.9765625 -19.744140625 -24.375 -6.171875 -15.58984375 -21.322265625</float_array>
                    <technique_common>
                        <accessor count="88" source="#pointarray0" stride="3">
                            <param name="X" type="float"/>
                            <param name="Y" type="float"/>
                            <param name="Z" type="float"/>
                        </accessor>
                    </technique_common>
                </source>
                <source id="uvs0">
                    <float_array id="uvarray0" count="108">0.7578129768371582 0.06575101613998413 0.7578129768371582 0.09833699464797974 0.8354030251502991 0.063260018825531 0.8536970019340515 0.11942201852798462 0.9198060035705566 0.08384597301483154 0.9193019866943359 0.12095499038696289 0.9500849843025208 0.14732998609542847 0.9016389846801758 0.16849100589752197 0.9319180250167847 0.18152499198913574 0.9041619896888733 0.2006930112838745 0.9054239988327026 0.24516302347183228 0.8473889827728271 0.21679401397705078 0.8612669706344604 0.25589698553085327 0.7615979909896851 0.239795982837677 0.7636110186576843 0.3007490038871765 0.8448650240898132 0.29614901542663574 0.9621970057487488 0.22426998615264893 0.937595009803772 0.23232001066207886 0.9394879937171936 0.29787397384643555 0.8969079852104187 0.29844897985458374 0.8590589761734009 0.3410019874572754 0.8467580080032349 0.3289260268211365 0.7626649737358093 0.33467698097229004 0.7607730031013489 0.3151249885559082 0.7603939771652222 0.35453498363494873 0.8741980195045471 0.3513529896736145 0.9593579769134521 0.3001739978790283 0.9599260091781616 0.10132700204849243 0.9417589902877808 0.06774497032165527 0.9750660061836243 0.09350699186325073 0.9463009834289551 0.05670398473739624 0.9455440044403076 0.039682984352111816 0.9076949954032898 0.034623026847839355 0.8584910035133362 0.01208198070526123 0.8372960090637207 0.018981993198394775 0.7593269944190979 0.002880990505218506 0.7585700154304504 0.010701000690460205 0.9754440188407898 0.21679401397705078 0.9877449870109558 0.3001739978790283 0.89028400182724 0.3663039803504944 0.7578129768371582 0.13705599308013916 0.851173996925354 0.15162301063537598 0.7590739727020264 0.16542398929595947 0.7590739727020264 0.18765902519226074 0.8439189791679382 0.18459200859069824 0.7606509923934937 0.2006930112838745 0.9064689874649048 0.042321979999542236 0.8380529880523682 0.02588200569152832 0.7597050070762634 0.05348402261734009 0.7578129768371582 0.017141997814178467 0.9915300011634827 0.16216599941253662 0.9943689703941345 0.22829502820968628 0.8899509906768799 0.3661379814147949 0.7576010227203369 0.3661379814147949</float_array>
                    <technique_common>
                        <accessor count="54" source="#uvarray0" stride="2">
                            <param name="S" type="float"/>
                            <param name="T" type="float"/>
                        </accessor>
                    </technique_common>
                </source>
                <vertices id="vertices0">
                    <input semantic="POSITION" source="#points0"/>
                </vertices>
                <polylist count="159" material="Material1">
                    <input offset="0" semantic="VERTEX" source="#vertices0"/>
                    <input offset="1" semantic="TEXCOORD" source="#uvs0" set="0"/>
                    <vcount>3 3 3 3 3 3 3 3 3 3 3 3 3 3 3 3 3 3 3 3 3 3 3 3 3 3 3 3 3 3 3 3 3 3 3 3 3 3 3 3 3 3 3 3 3 3 3 3 3 3 3 3 3 3 3 3 3 3 3 3 3 3 3 3 3 3 3 3 3 3 3 3 3 3 3 3 3 3 3 3 3 3 3 3 3 3 3 3 3 3 3 3 3 3 3 3 3 3 3 3 3 3 3 3 3 3 3 3 3 3 3 3 3 3 3 3 3 3 3 3 3 3 3 3 3 3 3 3 3 3 3 3 3 3 3 3 3 3 3 3 3 3 3 3 3 3 3 3 3 3 3 3 3 3 3 3 3 3 3</vcount>
                    <p>2 2 1 1 0 0 3 3 1 1 2 2 4 4 3 3 2 2 5 5 3 3 4 4 6 6 5 5 4 4 7 7 5 5 6 6 8 8 7 7 6 6 9 9 7 7 8 8 10 10 9 9 8 8 11 11 9 9 10 10 12 12 11 11 10 10 13 13 11 11 12 12 14 14 13 13 12 12 15 12 13 13 14 14 16 15 15 12 14 14 17 10 15 12 16 15 20 17 19 16 18 6 21 18 19 16 20 17 22 19 21 18 20 17 23 20 21 18 22 19 24 21 23 20 22 19 25 22 23 20 24 21 26 23 25 22 24 21 27 21 25 22 26 23 28 15 27 21 26 23 29 19 27 21 28 15 32 3 31 4 30 2 33 5 31 4 32 3 34 7 33 5 32 3 18 6 33 5 34 7 35 8 18 6 34 7 20 17 18 6 35 8 17 10 20 17 35 8 22 19 20 17 17 10 16 15 22 19 17 10 36 20 27 21 29 19 25 22 27 21 36 20 37 24 25 22 36 20 23 20 25 22 37 24 38 25 23 20 37 24 21 18 23 20 38 25 39 26 21 18 38 25 19 16 21 18 39 26 42 29 41 28 40 27 43 30 41 28 42 29 44 31 43 30 42 29 45 32 43 30 44 31 46 33 45 32 44 31 47 34 45 32 46 33 48 35 47 34 46 33 49 36 47 34 48 35 18 6 31 4 33 5 40 27 31 4 18 6 19 16 40 27 18 6 50 37 40 27 19 16 39 26 50 37 19 16 51 38 50 37 39 26 52 39 51 38 39 26 54 16 53 17 6 6 55 18 53 17 54 16 56 26 55 18 54 16 57 25 55 18 56 26 58 39 57 25 56 26 37 24 57 25 58 39 1 1 30 2 0 0 32 3 30 2 1 1 59 40 32 3 1 1 60 41 32 3 59 40 61 42 60 41 59 40 62 43 60 41 61 42 63 27 6 6 4 4 54 16 6 6 63 27 64 37 54 16 63 27 56 26 54 16 64 37 65 38 56 26 64 37 58 39 56 26 65 38 68 31 67 32 66 33 69 30 67 32 68 31 70 29 69 30 68 31 71 28 69 30 70 29 63 27 71 28 70 29 4 4 71 28 63 27 3 3 59 40 1 1 72 41 59 40 3 3 7 7 72 41 3 3 73 44 72 41 7 7 9 9 73 44 7 7 11 11 73 44 9 9 74 9 35 8 34 7 17 10 35 8 74 9 75 11 17 10 74 9 15 12 17 10 75 11 13 13 15 12 75 11 60 41 34 7 32 3 76 44 34 7 60 41 62 43 76 44 60 41 77 45 76 44 62 43 16 15 24 21 22 19 26 23 24 21 16 15 14 14 26 23 16 15 28 15 26 23 14 14 62 43 73 44 77 45 72 41 73 44 62 43 61 42 72 41 62 43 59 40 72 41 61 42 76 44 74 9 34 7 75 11 74 9 76 44 77 45 75 11 76 44 13 13 75 11 77 45 55 18 29 19 53 17 36 20 29 19 55 18 57 25 36 20 55 18 37 24 36 20 57 25 78 46 67 32 69 30 79 47 67 32 78 46 2 2 79 47 78 46 0 48 79 47 2 2 80 49 79 47 0 48 81 34 79 47 80 49 49 36 81 34 80 49 48 35 81 34 49 36 10 10 29 19 28 15 53 17 29 19 10 10 8 8 53 17 10 10 6 6 53 17 8 8 80 49 47 34 49 36 82 47 47 34 80 49 0 48 82 47 80 49 30 2 82 47 0 48 82 47 45 32 47 34 83 46 45 32 82 47 30 2 83 46 82 47 31 4 83 46 30 2 83 46 43 30 45 32 41 28 43 30 83 46 31 4 41 28 83 46 40 27 41 28 31 4 81 34 67 32 79 47 66 33 67 32 81 34 48 35 66 33 81 34 85 51 64 37 84 50 65 38 64 37 85 51 71 28 78 46 69 30 4 4 78 46 71 28 12 12 28 15 14 14 10 10 28 15 12 12 52 39 38 25 37 24 39 26 38 25 52 39 11 11 77 45 73 44 13 13 77 45 11 11 42 29 50 37 86 50 40 27 50 37 42 29 87 51 50 37 51 38 86 50 50 37 87 51 70 29 64 37 63 27 84 50 64 37 70 29 52 53 37 24 58 52 3 3 5 5 7 7 78 46 4 4 2 2</p>
                </polylist>
            </mesh>
        </geometry>
        <geometry id="mesh0_1">
            <mesh>
                <source id="points0_1">
                    <float_array id="pointarray0_1" count="264">22.958984375 -35.322265625 0 23.748046875 -41.115234375 0 21.064453125 -34.1484375 8.685546875 20.97265625 -44.607421875 10.712890625 17.30859375 -30.466796875 15.609375 16.712890625 -40.560546875 18.751953125 9.140625 -34.46875 25.64453125 11.625 -47.810546875 16.078125 5.521484375 -42.08984375 22.564453125 1.34765625 -45.197265625 16.439453125 -8.9609375 -37.36328125 18.150390625 -1.802734375 -46.455078125 9.208984375 -10.919921875 -39.515625 11.70703125 -10.92578125 -40.076171875 0 -22.390625 -29.71875 0 -10.919921875 -39.515625 -11.70703125 -21.958984375 -28.435546875 -9.365234375 -8.9609375 -37.36328125 -18.150390625 9.140625 -34.46875 -25.64453125 -2.732421875 -25.583984375 -28.880859375 -5.904296875 -31.66015625 -26.97265625 -18.974609375 -22.31640625 -22.486328125 -20.810546875 -26.626953125 -16.494140625 -27.796875 -20.771484375 -12.107421875 -26.705078125 -26.2421875 -11.0078125 -30.873046875 -21.845703125 0 -28.9296875 -27.5078125 0 -26.705078125 -26.2421875 11.0078125 -21.958984375 -28.435546875 9.365234375 -20.810546875 -26.626953125 16.494140625 21.064453125 -34.1484375 -8.685546875 17.30859375 -30.466796875 -15.609375 20.97265625 -44.607421875 -10.712890625 16.712890625 -40.560546875 -18.751953125 11.625 -47.810546875 -16.076171875 5.521484375 -42.08984375 -22.564453125 -27.796875 -20.771484375 12.107421875 -28.943359375 -15.173828125 0 -25.962890625 -15.11328125 -12.525390625 -15.8984375 -17.234375 -23.115234375 9.53515625 -23.73828125 -21.833984375 22.7578125 -25.541015625 -21.265625 8.0546875 -22.009765625 -21.33203125 22.8203125 -24.162109375 -20.736328125 15.259765625 -25.033203125 -17.640625 31.185546875 -27.087890625 -16.13671875 18.666015625 -27.76171875 -9.50390625 35.58203125 -29.544921875 -7.953125 20.96875 -28.333984375 0 36.8671875 -29.8359375 0 -0.529296875 -19.716796875 -26.357421875 -14.15625 -12.806640625 -19.572265625 -23.828125 -9.55859375 -9.37890625 -5.904296875 -31.66015625 26.97265625 -2.732421875 -25.583984375 28.880859375 -18.974609375 -22.31640625 22.486328125 -15.8984375 -17.234375 23.115234375 -25.962890625 -15.11328125 12.525390625 -23.828125 -9.55859375 9.37890625 22.80859375 -47.55078125 0 14.744140625 -50.5859375 -10.71484375 16.58203125 -52.826171875 0 8.44140625 -52.744140625 0 9.53515625 -23.73828125 21.833984375 -0.529296875 -19.716796875 26.357421875 -14.15625 -12.806640625 19.572265625 18.666015625 -27.76171875 9.50390625 31.185546875 -27.087890625 16.13671875 15.259765625 -25.033203125 17.640625 22.8203125 -24.162109375 20.73828125 8.0546875 -22.009765625 21.33203125 22.7578125 -25.541015625 21.265625 14.744140625 -50.5859375 10.71484375 6.46875 -50.490234375 9.962890625 1.34765625 -45.197265625 -16.439453125 -1.802734375 -46.455078125 -9.208984375 6.46875 -50.490234375 -9.9609375 1.658203125 -50.373046875 0 31.1328125 -28.537109375 17.01953125 35.6015625 -31.2109375 8.314453125 37.00390625 -31.546875 0 35.58203125 -29.544921875 7.953125 35.6015625 -31.2109375 -8.314453125 31.1328125 -28.537109375 -17.01953125 2.9765625 -19.744140625 24.375 -6.171875 -15.58984375 21.322265625 2.9765625 -19.744140625 -24.375 -6.171875 -15.58984375 -21.322265625</float_array>
                    <technique_common>
                        <accessor count="88" source="#pointarray0_1" stride="3">
                            <param name="X" type="float"/>
                            <param name="Y" type="float"/>
                            <param name="Z" type="float"/>
                        </accessor>
                    </technique_common>
                </source>
                <source id="uvs0_1">
                    <float_array id="uvarray0_1" count="176">0.4762110114097595 0.19694602489471436 0.4761120080947876 0.18578499555587769 0.6357740163803101 0.22223299741744995 0.6729580163955688 0.2231839895248413 0.7632330060005188 0.27413398027420044 0.8209329843521118 0.28200799226760864 0.94828200340271 0.38787102699279785 0.7725070118904114 0.35439997911453247 0.8922420144081116 0.43958401679992676 0.7804489731788635 0.4996410012245178 0.8131120204925537 0.6451170146465302 0.6482279896736145 0.5454530119895935 0.695169985294342 0.6739160120487213 0.48043501377105713 0.6760259866714478 0.48186400532722473 0.8380980044603348 0.26569899916648865 0.6779539883136749 0.31001201272010803 0.8336039930582047 0.14726799726486206 0.6513769924640656 0.007584000006318092 0.396714985370636 -0.050314001739025116 0.5651519894599915 -0.014921999536454678 0.6096810102462769 0.06901700049638748 0.7936750054359436 0.17915000021457672 0.8186089992523193 0.2604590058326721 0.9166050031781197 0.2804900109767914 0.9009839966893196 0.4829219877719879 0.9580130018293858 0.48267900943756104 0.9305469989776611 0.684315025806427 0.8971880003809929 0.6536089777946472 0.830374002456665 0.784184992313385 0.8129210025072098 0.3171199858188629 0.22522902488708496 0.19059699773788452 0.2795180082321167 0.2799589931964874 0.22687900066375732 0.1330450028181076 0.288474977016449 0.1827390044927597 0.35994499921798706 0.0645269975066185 0.44736599922180176 0.7046170234680176 0.9124289974570274 0.482681006193161 0.9307430014014244 0.2525779902935028 0.890745997428894 0.05709899961948395 0.7503110021352768 0.07743000239133835 0.3904950022697449 0.08617699891328812 0.2034670114517212 0.0868230015039444 0.4113349914550781 0.09587399661540985 0.2024880051612854 0.15362000465393066 0.3088439702987671 0.17919699847698212 0.08342897891998291 0.30242300033569336 0.2592819929122925 0.3287389874458313 0.019882023334503174 0.47645899653434753 0.22508901357650757 0.47447699308395386 0.0003160238265991211 -0.004290999844670296 0.5335800051689148 0.12184199690818787 0.7250460088253021 0.3100239932537079 0.8600399941205978 0.9745399951934814 0.6003789901733398 1.009140968322754 0.5551919937133789 0.8938599824905396 0.7859199941158295 0.905010998249054 0.7423389852046967 0.7120410203933716 0.8864260017871857 0.6540629863739014 0.8568049967288971 0.4762290120124817 0.1990780234336853 0.28071001172065735 0.31493300199508667 0.4770059883594513 0.28711098432540894 0.4780200123786926 0.40219199657440186 0.8783379793167114 0.3829650282859802 0.962568998336792 0.5244899988174438 0.8398330211639404 0.7182959914207458 0.6510689854621887 0.2560039758682251 0.7711730003356934 0.07786399126052856 0.8007209897041321 0.3027610182762146 0.85658198595047 0.1953359842300415 0.8693140149116516 0.40397900342941284 0.8662949800491333 0.19613301753997803 0.6737589836120605 0.3112369775772095 0.6609939932823181 0.4283459782600403 0.17735999822616577 0.5053110122680664 0.31036698818206787 0.5486299991607666 0.295538991689682 0.43178099393844604 0.47886601090431213 0.4980829954147339 0.7873449921607971 0.07846099138259888 0.6271560192108154 0.016794025897979736 0.47446000576019287 -0.001593947410583496 0.6205350160598755 0.017139017581939697 0.3221130073070526 0.019662022590637207 0.1630380004644394 0.08433002233505249 0.9257659912109375 0.47525298595428467 0.8709120154380798 0.6051290035247803 0.031638000160455704 0.483659029006958 0.08877299726009369 0.6124820113182068</float_array>
                    <technique_common>
                        <accessor count="88" source="#uvarray0_1" stride="2">
                            <param name="S" type="float"/>
                            <param name="T" type="float"/>
                        </accessor>
                    </technique_common>
                </source>
                <vertices id="vertices0_1">
                    <input semantic="POSITION" source="#points0_1"/>
                </vertices>
                <polylist count="159" material="Material1">
                    <input offset="0" semantic="VERTEX" source="#vertices0_1"/>
                    <input offset="1" semantic="TEXCOORD" source="#uvs0_1" set="0"/>
                    <vcount>3 3 3 3 3 3 3 3 3 3 3 3 3 3 3 3 3 3 3 3 3 3 3 3 3 3 3 3 3 3 3 3 3 3 3 3 3 3 3 3 3 3 3 3 3 3 3 3 3 3 3 3 3 3 3 3 3 3 3 3 3 3 3 3 3 3 3 3 3 3 3 3 3 3 3 3 3 3 3 3 3 3 3 3 3 3 3 3 3 3 3 3 3 3 3 3 3 3 3 3 3 3 3 3 3 3 3 3 3 3 3 3 3 3 3 3 3 3 3 3 3 3 3 3 3 3 3 3 3 3 3 3 3 3 3 3 3 3 3 3 3 3 3 3 3 3 3 3 3 3 3 3 3 3 3 3 3 3 3</vcount>
                    <p>2 2 1 1 0 0 3 3 1 1 2 2 4 4 3 3 2 2 5 5 3 3 4 4 6 6 5 5 4 4 7 7 5 5 6 6 8 8 7 7 6 6 9 9 7 7 8 8 10 10 9 9 8 8 11 11 9 9 10 10 12 12 11 11 10 10 13 13 11 11 12 12 14 14 13 13 12 12 15 15 13 13 14 14 16 16 15 15 14 14 17 17 15 15 16 16 20 20 19 19 18 18 21 21 19 19 20 20 22 22 21 21 20 20 23 23 21 21 22 22 24 24 23 23 22 22 25 25 23 23 24 24 26 26 25 25 24 24 27 27 25 25 26 26 28 28 27 27 26 26 29 29 27 27 28 28 32 32 31 31 30 30 33 33 31 31 32 32 34 34 33 33 32 32 18 18 33 33 34 34 35 35 18 18 34 34 20 20 18 18 35 35 17 17 20 20 35 35 22 22 20 20 17 17 16 16 22 22 17 17 36 36 27 27 29 29 25 25 27 27 36 36 37 37 25 25 36 36 23 23 25 25 37 37 38 38 23 23 37 37 21 21 23 23 38 38 39 39 21 21 38 38 19 19 21 21 39 39 42 42 41 41 40 40 43 43 41 41 42 42 44 44 43 43 42 42 45 45 43 43 44 44 46 46 45 45 44 44 47 47 45 45 46 46 48 48 47 47 46 46 49 49 47 47 48 48 18 18 31 31 33 33 40 40 31 31 18 18 19 19 40 40 18 18 50 50 40 40 19 19 39 39 50 50 19 19 51 51 50 50 39 39 52 52 51 51 39 39 54 54 53 53 6 6 55 55 53 53 54 54 56 56 55 55 54 54 57 57 55 55 56 56 58 58 57 57 56 56 37 37 57 57 58 58 1 1 30 30 0 0 32 32 30 30 1 1 59 59 32 32 1 1 60 60 32 32 59 59 61 61 60 60 59 59 62 62 60 60 61 61 63 63 6 6 4 4 54 54 6 6 63 63 64 64 54 54 63 63 56 56 54 54 64 64 65 65 56 56 64 64 58 58 56 56 65 65 68 68 67 67 66 66 69 69 67 67 68 68 70 70 69 69 68 68 71 71 69 69 70 70 63 63 71 71 70 70 4 4 71 71 63 63 3 3 59 59 1 1 72 72 59 59 3 3 7 7 72 72 3 3 73 73 72 72 7 7 9 9 73 73 7 7 11 11 73 73 9 9 74 74 35 35 34 34 17 17 35 35 74 74 75 75 17 17 74 74 15 15 17 17 75 75 13 13 15 15 75 75 60 60 34 34 32 32 76 76 34 34 60 60 62 62 76 76 60 60 77 77 76 76 62 62 16 16 24 24 22 22 26 26 24 24 16 16 14 14 26 26 16 16 28 28 26 26 14 14 62 62 73 73 77 77 72 72 73 73 62 62 61 61 72 72 62 62 59 59 72 72 61 61 76 76 74 74 34 34 75 75 74 74 76 76 77 77 75 75 76 76 13 13 75 75 77 77 55 55 29 29 53 53 36 36 29 29 55 55 57 57 36 36 55 55 37 37 36 36 57 57 78 78 67 67 69 69 79 79 67 67 78 78 2 2 79 79 78 78 0 0 79 79 2 2 80 80 79 79 0 0 81 81 79 79 80 80 49 49 81 81 80 80 48 48 81 81 49 49 10 10 29 29 28 28 53 53 29 29 10 10 8 8 53 53 10 10 6 6 53 53 8 8 80 80 47 47 49 49 82 82 47 47 80 80 0 0 82 82 80 80 30 30 82 82 0 0 82 82 45 45 47 47 83 83 45 45 82 82 30 30 83 83 82 82 31 31 83 83 30 30 83 83 43 43 45 45 41 41 43 43 83 83 31 31 41 41 83 83 40 40 41 41 31 31 81 81 67 67 79 79 66 66 67 67 81 81 48 48 66 66 81 81 85 85 64 64 84 84 65 65 64 64 85 85 71 71 78 78 69 69 4 4 78 78 71 71 12 12 28 28 14 14 10 10 28 28 12 12 52 52 38 38 37 37 39 39 38 38 52 52 11 11 77 77 73 73 13 13 77 77 11 11 42 42 50 50 86 86 40 40 50 50 42 42 87 87 50 50 51 51 86 86 50 50 87 87 70 70 64 64 63 63 84 84 64 64 70 70 52 52 37 37 58 58 3 3 5 5 7 7 78 78 4 4 2 2</p>
                </polylist>
            </mesh>
        </geometry>
        <geometry id="mesh0_2">
            <mesh>
                <source id="points0_2">
                    <float_array id="pointarray0_2" count="264">22.958984375 -35.322265625 0 23.748046875 -41.115234375 0 21.064453125 -34.1484375 8.685546875 20.97265625 -44.607421875 10.712890625 17.30859375 -30.466796875 15.609375 16.712890625 -40.560546875 18.751953125 9.140625 -34.46875 25.64453125 11.625 -47.810546875 16.078125 5.521484375 -42.08984375 22.564453125 1.34765625 -45.197265625 16.439453125 -8.9609375 -37.36328125 18.150390625 -1.802734375 -46.455078125 9.208984375 -10.919921875 -39.515625 11.70703125 -10.92578125 -40.076171875 0 -22.390625 -29.71875 0 -10.919921875 -39.515625 -11.70703125 -21.958984375 -28.435546875 -9.365234375 -8.9609375 -37.36328125 -18.150390625 9.140625 -34.46875 -25.64453125 -2.732421875 -25.583984375 -28.880859375 -5.904296875 -31.66015625 -26.97265625 -18.974609375 -22.31640625 -22.486328125 -20.810546875 -26.626953125 -16.494140625 -27.796875 -20.771484375 -12.107421875 -26.705078125 -26.2421875 -11.0078125 -30.873046875 -21.845703125 0 -28.9296875 -27.5078125 0 -26.705078125 -26.2421875 11.0078125 -21.958984375 -28.435546875 9.365234375 -20.810546875 -26.626953125 16.494140625 21.064453125 -34.1484375 -8.685546875 17.30859375 -30.466796875 -15.609375 20.97265625 -44.607421875 -10.712890625 16.712890625 -40.560546875 -18.751953125 11.625 -47.810546875 -16.076171875 5.521484375 -42.08984375 -22.564453125 -27.796875 -20.771484375 12.107421875 -28.943359375 -15.173828125 0 -25.962890625 -15.11328125 -12.525390625 -15.8984375 -17.234375 -23.115234375 9.53515625 -23.73828125 -21.833984375 22.7578125 -25.541015625 -21.265625 8.0546875 -22.009765625 -21.33203125 22.8203125 -24.162109375 -20.736328125 15.259765625 -25.033203125 -17.640625 31.185546875 -27.087890625 -16.13671875 18.666015625 -27.76171875 -9.50390625 35.58203125 -29.544921875 -7.953125 20.96875 -28.333984375 0 36.8671875 -29.8359375 0 -0.529296875 -19.716796875 -26.357421875 -14.15625 -12.806640625 -19.572265625 -23.828125 -9.55859375 -9.37890625 -5.904296875 -31.66015625 26.97265625 -2.732421875 -25.583984375 28.880859375 -18.974609375 -22.31640625 22.486328125 -15.8984375 -17.234375 23.115234375 -25.962890625 -15.11328125 12.525390625 -23.828125 -9.55859375 9.37890625 22.80859375 -47.55078125 0 14.744140625 -50.5859375 -10.71484375 16.58203125 -52.826171875 0 8.44140625 -52.744140625 0 9.53515625 -23.73828125 21.833984375 -0.529296875 -19.716796875 26.357421875 -14.15625 -12.806640625 19.572265625 18.666015625 -27.76171875 9.50390625 31.185546875 -27.087890625 16.13671875 15.259765625 -25.033203125 17.640625 22.8203125 -24.162109375 20.73828125 8.0546875 -22.009765625 21.33203125 22.7578125 -25.541015625 21.265625 14.744140625 -50.5859375 10.71484375 6.46875 -50.490234375 9.962890625 1.34765625 -45.197265625 -16.439453125 -1.802734375 -46.455078125 -9.208984375 6.46875 -50.490234375 -9.9609375 1.658203125 -50.373046875 0 31.1328125 -28.537109375 17.01953125 35.6015625 -31.2109375 8.314453125 37.00390625 -31.546875 0 35.58203125 -29.544921875 7.953125 35.6015625 -31.2109375 -8.314453125 31.1328125 -28.537109375 -17.01953125 2.9765625 -19.744140625 24.375 -6.171875 -15.58984375 21.322265625 2.9765625 -19.744140625 -24.375 -6.171875 -15.58984375 -21.322265625</float_array>
                    <technique_common>
                        <accessor count="88" source="#pointarray0_2" stride="3">
                            <param name="X" type="float"/>
                            <param name="Y" type="float"/>
                            <param name="Z" type="float"/>
                        </accessor>
                    </technique_common>
                </source>
                <source id="uvs0_2">
                    <float_array id="uvarray0_2" count="194">1 0.45228397846221924 1 0.38533902168273926 0.9284390211105347 0.4658510088920593 0.9141950011253357 0.344992995262146 0.8677229881286621 0.5083889961242676 0.8501380085945129 0.3917580246925354 0.7870330214500427 0.46215301752090454 0.8278759717941284 0.3079789876937866 0.7672610282897949 0.374068021774292 0.733443021774292 0.33816099166870117 0.6568650007247925 0.428691029548645 0.6726070046424866 0.32362401485443115 0.6109259724617004 0.4038190245628357 0.5 0.39735299348831177 0.5 0.5170280039310455 0.3890739977359772 0.4038190245628357 0.44299599528312683 0.5318579971790314 0.3431349992752075 0.428691029548645 0.21296699345111847 0.46215301752090454 0.2815290093421936 0.5648159980773926 0.3010979890823364 0.4945939779281616 0.37340500950813293 0.6025849878787994 0.4037869870662689 0.5527549982070923 0.44049400091171265 0.6204310059547424 0.4436280131340027 0.557200014591217 0.5 0.6080139875411987 0.5 0.5425829887390137 0.5563719868659973 0.557200014591217 0.5570039749145508 0.5318579971790314 0.5962129831314087 0.5527549982070923 0.07156100124120712 0.4658510088920593 0.1322769969701767 0.5083889961242676 0.0858059972524643 0.344992995262146 0.14986200630664825 0.3917580246925354 0.1721239984035492 0.3079789876937866 0.23273900151252747 0.374068021774292 0.5595059990882874 0.6204299926757812 0.5 0.6851049959659576 0.43516600131988525 0.6858159899711609 0.3593539893627167 0.661298006772995 0.20414499938488007 0.5861349999904633 0.1311129927635193 0.5653060078620911 0.21342399716377258 0.606115996837616 0.1288589984178543 0.5812540054321289 0.1537330001592636 0.5711790025234222 0.08291800320148468 0.5474390089511871 0.08708299696445465 0.5396449863910675 0.0381850004196167 0.5190429985523224 0 0.533037006855011 0 0.5156750082969666 0.271575003862381 0.6326070129871368 0.36483898758888245 0.712462991476059 0.4465959966182709 0.75 0.6989020109176636 0.4945939779281616 0.7184709906578064 0.5648150146007538 0.6265950202941895 0.6025849878787994 0.6406459808349609 0.661298006772995 0.5648339986801147 0.6858150064945221 0.5534039735794067 0.75 0 0.45228397846221924 0 0.38533902168273926 0 0.31098300218582153 0.11814700067043304 0.27588802576065063 0 0.25 0 0.25094902515411377 0.7958549857139587 0.5861349999904633 0.7284250259399414 0.6326059997081757 0.6351609826087952 0.712462991476059 0.9129170179367065 0.5396449863910675 0.9170820116996765 0.5474390089511871 0.8462669849395752 0.5711790025234222 0.8711410164833069 0.5812540054321289 0.786575973033905 0.606115996837616 0.8688870072364807 0.5653060078620911 1 0.31098300218582153 0.8818529844284058 0.27588802576065063 0.8024219870567322 0.2770019769668579 0.2665570080280304 0.33816099166870117 0.3273929953575134 0.32362401485443115 0.19757799804210663 0.2770019769668579 0.5 0.2783550024032593 1.5 0.2783550024032593 1 0.25094902515411377 1 0.25 0.9132480025291443 0.530692994594574 0.9601749777793884 0.49978697299957275 1 0.4959139823913574 0.9618149995803833 0.5190429985523224 1 0.5156750082969666 1 0.533037006855011 0 0.4959139823913574 0.03982499986886978 0.49978697299957275 0.08675199747085571 0.530692994594574 0.7494239807128906 0.6322909891605377 0.6849330067634583 0.680294007062912 0.250575989484787 0.6322909891605377 0.31506699323654175 0.680294007062912</float_array>
                    <technique_common>
                        <accessor count="97" source="#uvarray0_2" stride="2">
                            <param name="S" type="float"/>
                            <param name="T" type="float"/>
                        </accessor>
                    </technique_common>
                </source>
                <vertices id="vertices0_2">
                    <input semantic="POSITION" source="#points0_2"/>
                </vertices>
                <polylist count="159" material="Material1">
                    <input offset="0" semantic="VERTEX" source="#vertices0_2"/>
                    <input offset="1" semantic="TEXCOORD" source="#uvs0_2" set="0"/>
                    <vcount>3 3 3 3 3 3 3 3 3 3 3 3 3 3 3 3 3 3 3 3 3 3 3 3 3 3 3 3 3 3 3 3 3 3 3 3 3 3 3 3 3 3 3 3 3 3 3 3 3 3 3 3 3 3 3 3 3 3 3 3 3 3 3 3 3 3 3 3 3 3 3 3 3 3 3 3 3 3 3 3 3 3 3 3 3 3 3 3 3 3 3 3 3 3 3 3 3 3 3 3 3 3 3 3 3 3 3 3 3 3 3 3 3 3 3 3 3 3 3 3 3 3 3 3 3 3 3 3 3 3 3 3 3 3 3 3 3 3 3 3 3 3 3 3 3 3 3 3 3 3 3 3 3 3 3 3 3 3 3</vcount>
                    <p>2 2 1 1 0 0 3 3 1 1 2 2 4 4 3 3 2 2 5 5 3 3 4 4 6 6 5 5 4 4 7 7 5 5 6 6 8 8 7 7 6 6 9 9 7 7 8 8 10 10 9 9 8 8 11 11 9 9 10 10 12 12 11 11 10 10 13 13 11 11 12 12 14 14 13 13 12 12 15 15 13 13 14 14 16 16 15 15 14 14 17 17 15 15 16 16 20 20 19 19 18 18 21 21 19 19 20 20 22 22 21 21 20 20 23 23 21 21 22 22 24 24 23 23 22 22 25 25 23 23 24 24 26 26 25 25 24 24 27 27 25 25 26 26 28 28 27 27 26 26 29 29 27 27 28 28 32 32 31 31 30 30 33 33 31 31 32 32 34 34 33 33 32 32 18 18 33 33 34 34 35 35 18 18 34 34 20 20 18 18 35 35 17 17 20 20 35 35 22 22 20 20 17 17 16 16 22 22 17 17 36 36 27 27 29 29 25 25 27 27 36 36 37 37 25 25 36 36 23 23 25 25 37 37 38 38 23 23 37 37 21 21 23 23 38 38 39 39 21 21 38 38 19 19 21 21 39 39 42 42 41 41 40 40 43 43 41 41 42 42 44 44 43 43 42 42 45 45 43 43 44 44 46 46 45 45 44 44 47 47 45 45 46 46 48 48 47 47 46 46 49 49 47 47 48 48 18 18 31 31 33 33 40 40 31 31 18 18 19 19 40 40 18 18 50 50 40 40 19 19 39 39 50 50 19 19 51 51 50 50 39 39 52 52 51 51 39 39 54 54 53 53 6 6 55 55 53 53 54 54 56 56 55 55 54 54 57 57 55 55 56 56 58 58 57 57 56 56 37 37 57 57 58 58 1 60 30 30 0 59 32 32 30 30 1 60 59 61 32 32 1 60 60 62 32 32 59 61 61 63 60 62 59 61 62 64 60 62 61 63 63 65 6 6 4 4 54 54 6 6 63 65 64 66 54 54 63 65 56 56 54 54 64 66 65 67 56 56 64 66 58 58 56 56 65 67 68 70 67 69 66 68 69 71 67 69 68 70 70 72 69 71 68 70 71 73 69 71 70 72 63 65 71 73 70 72 4 4 71 73 63 65 3 3 59 74 1 1 72 75 59 74 3 3 7 7 72 75 3 3 73 76 72 75 7 7 9 9 73 76 7 7 11 11 73 76 9 9 74 77 35 35 34 34 17 17 35 35 74 77 75 78 17 17 74 77 15 15 17 17 75 78 13 13 15 15 75 78 60 62 34 34 32 32 76 79 34 34 60 62 62 64 76 79 60 62 77 80 76 79 62 64 16 16 24 24 22 22 26 26 24 24 16 16 14 14 26 26 16 16 28 28 26 26 14 14 62 82 73 76 77 81 72 75 73 76 62 82 61 83 72 75 62 82 59 74 72 75 61 83 76 79 74 77 34 34 75 78 74 77 76 79 77 80 75 78 76 79 13 13 75 78 77 80 55 55 29 29 53 53 36 36 29 29 55 55 57 57 36 36 55 55 37 37 36 36 57 57 78 84 67 69 69 71 79 85 67 69 78 84 2 2 79 85 78 84 0 0 79 85 2 2 80 86 79 85 0 0 81 87 79 85 80 86 49 88 81 87 80 86 48 89 81 87 49 88 10 10 29 29 28 28 53 53 29 29 10 10 8 8 53 53 10 10 6 6 53 53 8 8 80 90 47 47 49 49 82 91 47 47 80 90 0 59 82 91 80 90 30 30 82 91 0 59 82 91 45 45 47 47 83 92 45 45 82 91 30 30 83 92 82 91 31 31 83 92 30 30 83 92 43 43 45 45 41 41 43 43 83 92 31 31 41 41 83 92 40 40 41 41 31 31 81 87 67 69 79 85 66 68 67 69 81 87 48 89 66 68 81 87 85 94 64 66 84 93 65 67 64 66 85 94 71 73 78 84 69 71 4 4 78 84 71 73 12 12 28 28 14 14 10 10 28 28 12 12 52 52 38 38 37 37 39 39 38 38 52 52 11 11 77 80 73 76 13 13 77 80 11 11 42 42 50 50 86 95 40 40 50 50 42 42 87 96 50 50 51 51 86 95 50 50 87 96 70 72 64 66 63 65 84 93 64 66 70 72 52 52 37 37 58 58 3 3 5 5 7 7 78 84 4 4 2 2</p>
                </polylist>
            </mesh>
        </geometry>
    </library_geometries>
    <library_controllers>
        <controller id="controller0">
            <skin source="#mesh0">
                <bind_shape_matrix>1 0 0 0 0 1 0 0 0 0 1 0 0 0 0 1</bind_shape_matrix>
                <source id="joints0">
                    <Name_array id="JointArr0" count="3">jointnode-1 jointnode0 jointnode1</Name_array>
                    <technique_common>
                        <accessor source="#JointArr0" count="3">
                            <param name="JOINT" type="Name" />
                        </accessor>
                    </technique_common>
                </source>
                <source id="matrices0">
                    <float_array id="MatArr0" count="48">1 0 0 0 0 1 0 0 0 0 1 0 0 0 0 1 1 0 0 0 0 1 0 0 0 0 1 0 0 0 0 1 1 0 0 0 0 1 0 0 0 0 1 0 0 0 0 1</float_array>
                    <technique_common>
                        <accessor source="#MatArr0" count="3" stride="16">
                            <param type="float4x4" />
                        </accessor>
                    </technique_common>
                </source>
                <source id="weights0">
                    <float_array id="WeightArr0" count="8">1 0.699999988079071 0.30000001192092896 0.5 0.800000011920929 0.20000000298023224 0.6000000238418579 0.4000000059604645</float_array>
                    <technique_common>
                        <accessor source="#WeightArr0" count="1">
                            <param type="float" />
                        </accessor>
                    </technique_common>
                </source>
                <joints>
                    <input semantic="JOINT" source="#joints0" />
                    <input semantic="INV_BIND_MATRIX" source="#matrices0" />
                </joints>
                <vertex_weights count="88">
                    <input semantic="JOINT" offset="0" source="#joints0" />
                    <input semantic="WEIGHT" offset="1" source="#weights0" />
                    <vcount>2 2 2 2 2 2 2 2 2 2 2 2 2 1 2 2 2 2 2 2 2 2 2 2 2 2 2 2 2 2 2 2 2 2 2 2 2 2 2 2 1 2 1 2 1 2 1 2 1 2 1 1 1 2 2 2 2 2 1 2 2 2 2 1 1 1 1 2 1 2 1 2 2 2 2 2 2 2 2 2 2 2 2 2 1 1 1 1</vcount>
                    <v>1 4 2 5 1 4 2 5 1 4 2 5 1 1 2 2 1 4 2 5 1 1 2 2 1 1 2 2 1 3 2 3 1 3 2 3 1 2 2 1 1 2 2 1 1 5 2 4 1 5 2 4 2 0 1 3 2 3 1 5 2 4 1 3 2 3 1 2 2 1 1 1 2 2 1 4 2 5 1 3 2 3 1 1 2 2 1 3 2 3 1 2 2 1 1 3 2 3 1 6 2 7 1 3 2 3 1 6 2 7 1 3 2 3 1 3 2 3 1 4 2 5 1 4 2 5 1 1 2 2 1 1 2 2 1 3 2 3 1 3 2 3 1 6 2 7 1 4 2 5 1 4 2 5 1 4 2 5 1 0 1 1 2 2 1 0 1 1 2 2 1 0 1 1 2 2 1 0 1 1 2 2 1 0 1 1 2 2 1 0 1 0 1 0 1 3 2 3 1 4 2 5 1 1 2 2 1 4 2 5 1 4 2 5 1 0 1 1 2 2 1 3 2 3 1 3 2 3 1 2 2 1 1 0 1 0 1 0 1 0 1 1 2 2 1 0 1 1 2 2 1 0 1 1 2 2 1 3 2 3 1 2 2 1 1 2 2 1 1 5 2 4 1 2 2 1 1 5 2 4 1 1 2 2 1 1 2 2 1 1 2 2 1 1 2 2 1 1 2 2 1 1 2 2 1 0 1 0 1 0 1 0</v>
                </vertex_weights>
            </skin>
        </controller>
        <controller id="controller0_1">
            <skin source="#mesh0_1">
                <bind_shape_matrix>1 0 0 0 0 1 0 0 0 0 1 0 0 0 0 1</bind_shape_matrix>
                <source id="joints0_1">
                    <Name_array id="JointArr0_1" count="3">jointnode-1 jointnode0 jointnode1</Name_array>
                    <technique_common>
                        <accessor source="#JointArr0_1" count="3">
                            <param name="JOINT" type="Name" />
                        </accessor>
                    </technique_common>
                </source>
                <source id="matrices0_1">
                    <float_array id="MatArr0_1" count="48">1 0 0 0 0 1 0 0 0 0 1 0 0 0 0 1 1 0 0 0 0 1 0 0 0 0 1 0 0 0 0 1 1 0 0 0 0 1 0 0 0 0 1 0 0 0 0 1</float_array>
                    <technique_common>
                        <accessor source="#MatArr0_1" count="3" stride="16">
                            <param type="float4x4" />
                        </accessor>
                    </technique_common>
                </source>
                <source id="weights0_1">
                    <float_array id="WeightArr0_1" count="8">1 0.699999988079071 0.30000001192092896 0.5 0.800000011920929 0.20000000298023224 0.6000000238418579 0.4000000059604645</float_array>
                    <technique_common>
                        <accessor source="#WeightArr0_1" count="1">
                            <param type="float" />
                        </accessor>
                    </technique_common>
                </source>
                <joints>
                    <input semantic="JOINT" source="#joints0_1" />
                    <input semantic="INV_BIND_MATRIX" source="#matrices0_1" />
                </joints>
                <vertex_weights count="88">
                    <input semantic="JOINT" offset="0" source="#joints0_1" />
                    <input semantic="WEIGHT" offset="1" source="#weights0_1" />
                    <vcount>2 2 2 2 2 2 2 2 2 2 2 2 2 1 2 2 2 2 2 2 2 2 2 2 2 2 2 2 2 2 2 2 2 2 2 2 2 2 2 2 1 2 1 2 1 2 1 2 1 2 1 1 1 2 2 2 2 2 1 2 2 2 2 1 1 1 1 2 1 2 1 2 2 2 2 2 2 2 2 2 2 2 2 2 1 1 1 1</vcount>
                    <v>1 4 2 5 1 4 2 5 1 4 2 5 1 1 2 2 1 4 2 5 1 1 2 2 1 1 2 2 1 3 2 3 1 3 2 3 1 2 2 1 1 2 2 1 1 5 2 4 1 5 2 4 2 0 1 3 2 3 1 5 2 4 1 3 2 3 1 2 2 1 1 1 2 2 1 4 2 5 1 3 2 3 1 1 2 2 1 3 2 3 1 2 2 1 1 3 2 3 1 6 2 7 1 3 2 3 1 6 2 7 1 3 2 3 1 3 2 3 1 4 2 5 1 4 2 5 1 1 2 2 1 1 2 2 1 3 2 3 1 3 2 3 1 6 2 7 1 4 2 5 1 4 2 5 1 4 2 5 1 0 1 1 2 2 1 0 1 1 2 2 1 0 1 1 2 2 1 0 1 1 2 2 1 0 1 1 2 2 1 0 1 0 1 0 1 3 2 3 1 4 2 5 1 1 2 2 1 4 2 5 1 4 2 5 1 0 1 1 2 2 1 3 2 3 1 3 2 3 1 2 2 1 1 0 1 0 1 0 1 0 1 1 2 2 1 0 1 1 2 2 1 0 1 1 2 2 1 3 2 3 1 2 2 1 1 2 2 1 1 5 2 4 1 2 2 1 1 5 2 4 1 1 2 2 1 1 2 2 1 1 2 2 1 1 2 2 1 1 2 2 1 1 2 2 1 0 1 0 1 0 1 0</v>
                </vertex_weights>
            </skin>
        </controller>
        <controller id="controller0_2">
            <skin source="#mesh0_2">
                <bind_shape_matrix>1 0 0 0 0 1 0 0 0 0 1 0 0 0 0 1</bind_shape_matrix>
                <source id="joints0_2">
                    <Name_array id="JointArr0_2" count="3">jointnode-1 jointnode0 jointnode1</Name_array>
                    <technique_common>
                        <accessor source="#JointArr0_2" count="3">
                            <param name="JOINT" type="Name" />
                        </accessor>
                    </technique_common>
                </source>
                <source id="matrices0_2">
                    <float_array id="MatArr0_2" count="48">1 0 0 0 0 1 0 0 0 0 1 0 0 0 0 1 1 0 0 0 0 1 0 0 0 0 1 0 0 0 0 1 1 0 0 0 0 1 0 0 0 0 1 0 0 0 0 1</float_array>
                    <technique_common>
                        <accessor source="#MatArr0_2" count="3" stride="16">
                            <param type="float4x4" />
                        </accessor>
                    </technique_common>
                </source>
                <source id="weights0_2">
                    <float_array id="WeightArr0_2" count="8">1 0.699999988079071 0.30000001192092896 0.5 0.800000011920929 0.20000000298023224 0.6000000238418579 0.4000000059604645</float_array>
                    <technique_common>
                        <accessor source="#WeightArr0_2" count="1">
                            <param type="float" />
                        </accessor>
                    </technique_common>
                </source>
                <joints>
                    <input semantic="JOINT" source="#joints0_2" />
                    <input semantic="INV_BIND_MATRIX" source="#matrices0_2" />
                </joints>
                <vertex_weights count="88">
                    <input semantic="JOINT" offset="0" source="#joints0_2" />
                    <input semantic="WEIGHT" offset="1" source="#weights0_2" />
                    <vcount>2 2 2 2 2 2 2 2 2 2 2 2 2 1 2 2 2 2 2 2 2 2 2 2 2 2 2 2 2 2 2 2 2 2 2 2 2 2 2 2 1 2 1 2 1 2 1 2 1 2 1 1 1 2 2 2 2 2 1 2 2 2 2 1 1 1 1 2 1 2 1 2 2 2 2 2 2 2 2 2 2 2 2 2 1 1 1 1</vcount>
                    <v>1 4 2 5 1 4 2 5 1 4 2 5 1 1 2 2 1 4 2 5 1 1 2 2 1 1 2 2 1 3 2 3 1 3 2 3 1 2 2 1 1 2 2 1 1 5 2 4 1 5 2 4 2 0 1 3 2 3 1 5 2 4 1 3 2 3 1 2 2 1 1 1 2 2 1 4 2 5 1 3 2 3 1 1 2 2 1 3 2 3 1 2 2 1 1 3 2 3 1 6 2 7 1 3 2 3 1 6 2 7 1 3 2 3 1 3 2 3 1 4 2 5 1 4 2 5 1 1 2 2 1 1 2 2 1 3 2 3 1 3 2 3 1 6 2 7 1 4 2 5 1 4 2 5 1 4 2 5 1 0 1 1 2 2 1 0 1 1 2 2 1 0 1 1 2 2 1 0 1 1 2 2 1 0 1 1 2 2 1 0 1 0 1 0 1 3 2 3 1 4 2 5 1 1 2 2 1 4 2 5 1 4 2 5 1 0 1 1 2 2 1 3 2 3 1 3 2 3 1 2 2 1 1 0 1 0 1 0 1 0 1 1 2 2 1 0 1 1 2 2 1 0 1 1 2 2 1 3 2 3 1 2 2 1 1 2 2 1 1 5 2 4 1 2 2 1 1 5 2 4 1 1 2 2 1 1 2 2 1 1 2 2 1 1 2 2 1 1 2 2 1 1 2 2 1 0 1 0 1 0 1 0</v>
                </vertex_weights>
            </skin>
        </controller>
    </library_controllers>
    <library_visual_scenes>
        <visual_scene id="VisualSceneNode">
            <node id="node0" name="m0" type="NODE">
                <instance_controller url="#controller0">
                    <skeleton>#jointnode-1</skeleton>
                    <bind_material>
                        <technique_common>
                            <instance_material symbol="Material1" target="#mat0">
                                <bind_vertex_input semantic="UVSET0" input_semantic="TEXCOORD" input_set="0"></bind_vertex_input>
                            </instance_material>
                        </technique_common>
                    </bind_material>
                </instance_controller>
            </node>
            <node id="node0_1" name="m0_1" type="NODE">
                <instance_controller url="#controller0_1">
                    <skeleton>#jointnode-1</skeleton>
                    <bind_material>
                        <technique_common>
                            <instance_material symbol="Material1" target="#mat0_1">
                                <bind_vertex_input semantic="UVSET0" input_semantic="TEXCOORD" input_set="0"></bind_vertex_input>
                            </instance_material>
                        </technique_common>
                    </bind_material>
                </instance_controller>
            </node>
            <node id="node0_2" name="m0_2" type="NODE">
                <instance_controller url="#controller0_2">
                    <skeleton>#jointnode-1</skeleton>
                    <bind_material>
                        <technique_common>
                            <instance_material symbol="Material1" target="#mat0_2">
                                <bind_vertex_input semantic="UVSET0" input_semantic="TEXCOORD" input_set="0"></bind_vertex_input>
                            </instance_material>
                        </technique_common>
                    </bind_material>
                </instance_controller>
            </node>
            <node id="jointnode-1" name="root" sid="jointnode-1" type="JOINT">
                <node id="jointnode0" name="null_weight_A" sid="jointnode0" type="JOINT">
                    <node id="jointnode1" name="null_weight_B" sid="jointnode1" type="JOINT">
                    </node>
                </node>
            </node>
        </visual_scene>
    </library_visual_scenes>
    <scene>
        <instance_visual_scene url="#VisualSceneNode"></instance_visual_scene>
    </scene>
</COLLADA>
