# WaveFront *.obj file (generated by CINEMA 4D)
mtllib ma_glass1.mtl

g m1_VC
usemtl vertexColors
v 24.918945 -15.595703 2.318359
v 24.667969 -22.34375 2.682617
v 24.103516 -8.670898 5.166016
v 22.438477 -23.824219 10.945313
v 22.714844 -7.572266 11.095703
v 20.9375 -9.701172 17.225586
v 24.103516 -8.670898 -5.166016
v 22.714844 -7.572266 -11.095703
v 22.438477 -23.824219 -10.945313
v 20.9375 -9.701172 -17.225586
v 20.208008 -21.358398 -19.393555
v 24.918945 -15.595703 -2.318359
v 24.667969 -22.34375 -2.682617
v 20.208008 -21.358398 19.393555

vt 0.484375 0.015625 0
vt 0.015625 0.984375 0
vt 0.015625 0.015625 0
vt 0.015625 0.984375 0
vt 0.015625 0.015625 0
vt 0.015625 0.015625 0
vt 0.015625 0.015625 0
vt 0.515625 0.015625 0
vt 0.015625 0.015625 0
vt 0.015625 0.984375 0
vt 0.015625 0.015625 0
vt 0.015625 0.984375 0
vt 0.984375 0.015625 0
vt 0.015625 0.984375 0
vt 0.515625 0.984375 0
vt 0.015625 0.984375 0

f 3/3 2/2 1/1 
f 4/4 2/2 3/3 
f 5/5 4/4 3/3 
f 6/6 4/4 5/5 
f 9/10 8/9 7/7 
f 10/11 8/9 9/10 
f 11/12 10/11 9/10 
f 13/15 7/8 12/13 
f 9/10 7/7 13/14 
f 6/6 14/16 4/4 

g m0
usemtl _mat_sunglass_A_flame
v 20.395508 -6.533203 -22.460938
v 20.368164 -25.397461 -22.460938
v 25.726563 -6.533203 0
v 25.698242 -25.397461 0
v 20.395508 -6.533203 22.460938
v 20.368164 -25.397461 22.460938
v 20.476563 -22.786133 -20.930664
v 20.380859 -15.521484 -20.367188
v -15.895508 -18.871094 -24.948242
v -15.899414 -7.507813 -22.71875
v 20.476563 -22.786133 20.930664
v -15.895508 -18.871094 24.948242
v 20.380859 -15.521484 20.367188
v -15.899414 -7.507813 22.71875

vt 0 0.265625 0
vt 0 1 0
vt 0.96875 0.265625 0
vt 0.96875 1 0
vt 0 0.265625 0
vt 0 1 0
vt 0.006696 0.263393 0
vt 0.008929 0.004464 0
vt 0.993304 0.272321 0
vt 1 0 0
vt 0.006696 0.263393 0
vt 0.993304 0.272321 0
vt 0.008929 0.004464 0
vt 1 0 0

f 17/19 16/18 15/17 
f 18/20 16/18 17/19 
f 19/21 18/20 17/19 
f 20/22 18/20 19/21 
f 23/25 22/24 21/23 
f 24/26 22/24 23/25 
f 27/29 26/28 25/27 
f 28/30 26/28 27/29 

