<?xml version="1.0"?>
<COLLADA xmlns="http://www.collada.org/2005/11/COLLADASchema" version="1.4.1">
    <asset>
        <contributor>
            <authoring_tool>J3D Ripoff Exporter</authoring_tool>
        </contributor>
        <created>2026-07-03T01:46:31.768Z</created>
        <modified>2026-07-03T01:46:31.768Z</modified>
		<unit meter="0.01" name="centimeter" ></unit>
        <up_axis>Y_UP</up_axis>
    </asset>
    <library_images>
        <image id="tex0">
            <init_from>H_ma_new_main_s3tc.png</init_from>
        </image>
        <image id="tex1">
            <init_from>H_ma_polmask_hand_i4.png</init_from>
        </image>
        <image id="tex2">
            <init_from>H_ma_rak_dummy.png</init_from>
        </image>
        <image id="tex3">
            <init_from>H_toon_2_4i.png</init_from>
        </image>
    </library_images>
    <library_effects>
        <effect id="effect0">
            <profile_COMMON>
                <newparam sid="surface0">
                    <surface type="2D">
                        <init_from>tex0</init_from>
                    </surface>
                </newparam>
                <newparam sid="sampler0">
                    <sampler2D>
                        <source>surface0</source>
                    </sampler2D>
                </newparam>
                <technique sid="COMMON">
                    <blinn>
                        <diffuse>
                            <texture texture="sampler0" texcoord="UVSET0"></texture>
                        </diffuse>
                    </blinn>
                </technique>
            </profile_COMMON>
        </effect>
        <effect id="effect0_1">
            <profile_COMMON>
                <newparam sid="surface0_1">
                    <surface type="2D">
                        <init_from>tex1</init_from>
                    </surface>
                </newparam>
                <newparam sid="sampler0_1">
                    <sampler2D>
                        <source>surface0_1</source>
                    </sampler2D>
                </newparam>
                <technique sid="COMMON">
                    <blinn>
                        <diffuse>
                            <texture texture="sampler0_1" texcoord="UVSET0"></texture>
                        </diffuse>
                    </blinn>
                </technique>
            </profile_COMMON>
        </effect>
        <effect id="effect0_2">
            <profile_COMMON>
                <newparam sid="surface0_2">
                    <surface type="2D">
                        <init_from>tex2</init_from>
                    </surface>
                </newparam>
                <newparam sid="sampler0_2">
                    <sampler2D>
                        <source>surface0_2</source>
                    </sampler2D>
                </newparam>
                <technique sid="COMMON">
                    <blinn>
                        <diffuse>
                            <texture texture="sampler0_2" texcoord="UVSET0"></texture>
                        </diffuse>
                    </blinn>
                </technique>
            </profile_COMMON>
        </effect>
    </library_effects>
    <library_materials>
        <material id="mat0" name="_mat_hand2_R">
            <instance_effect url="#effect0"></instance_effect>
        </material>
        <material id="mat0_1" name="_mat_hand2_R_uv2">
            <instance_effect url="#effect0_1"></instance_effect>
        </material>
        <material id="mat0_2" name="_mat_hand2_R_uv3">
            <instance_effect url="#effect0_2"></instance_effect>
        </material>
    </library_materials>
    <library_geometries>
        <geometry id="mesh0">
            <mesh>
                <source id="points0">
                    <float_array id="pointarray0" count="264">23.0146484375 9.80859375 3.2724609375 21.865234375 8.32421875 2.2275390625 22.6123046875 11.6103515625 -0.0029296875 22.5517578125 7.2666015625 -0.4150390625 21.662109375 11.783203125 -3.615234375 21.3291015625 7.28515625 -3.32421875 16.95703125 10.52734375 -4.509765625 18.130859375 6.416015625 -3.7822265625 11.0673828125 6.48046875 5.0859375 9.341796875 0.6962890625 5.96484375 4.2998046875 -4.78125 6.927734375 8.8056640625 -6.59765625 6.93359375 9.052734375 -9.6103515625 5.9990234375 14.087890625 -8.5625 7.0654296875 14.6630859375 -12.2392578125 6.5625 18.7705078125 -7.384765625 6.392578125 20.3828125 -9.9013671875 7.416015625 24.55859375 -6.4306640625 4.7392578125 22.7587890625 -11.0517578125 4.73046875 -0.958984375 7.6201171875 5.755859375 -0.998046875 8.87109375 -2.9736328125 1.6240234375 9.8955078125 7.0888671875 1.873046875 11.19140625 -3.564453125 3.8681640625 7.6484375 5.54296875 4.1650390625 8.5205078125 -3.0322265625 9.8017578125 11.4443359375 2.8330078125 12.4970703125 12.296875 -7.9677734375 18.51171875 11.830078125 -9.6982421875 26.6259765625 11.724609375 -6.1728515625 25.525390625 11.3623046875 3.0126953125 25.322265625 7.3134765625 2.466796875 -0.6298828125 1.134765625 -7.173828125 2.2412109375 1.9072265625 -8.6572265625 4.4921875 1.037109375 -7.1064453125 9.7236328125 0.89453125 -10.8623046875 4.4658203125 -7.72265625 -2.92578125 8.9130859375 -9.7822265625 -6.2392578125 9.8359375 -11.376953125 0.0791015625 13.794921875 -11.0166015625 -4.5927734375 18.984375 -10.1689453125 -0.17578125 18.1044921875 -7.1826171875 0.9111328125 16.015625 -7.0556640625 3.8876953125 24.8486328125 5.3486328125 4.54296875 23.5361328125 3.0947265625 3.40234375 23.8896484375 6.75 0.1328125 23.7734375 1.8984375 0.6162109375 23.4951171875 6.8056640625 -3.40625 23.2939453125 1.5849609375 -3.2626953125 19.1220703125 0.5419921875 -3.478515625 18.853515625 -4.564453125 -3.2509765625 29.7392578125 1.6259765625 3.1142578125 26.7939453125 1.416015625 -0.41796875 29.3076171875 1.3623046875 -7.517578125 24.326171875 1.4013671875 -3.724609375 18.458984375 0.9423828125 -11.5947265625 28.88671875 1.873046875 -6.765625 28.09375 1.8427734375 4.1318359375 24.03125 -4.67578125 -3.8017578125 18.193359375 -4.78515625 -11.5380859375 29.3623046875 -4.2919921875 -7.3603515625 29.767578125 -3.552734375 3.5732421875 27.0625 0.1142578125 4.140625 -0.9990234375 -7.6376953125 -2.671875 -0.857421875 -4.345703125 6.86328125 2.0673828125 -8.7841796875 -3.3134765625 1.92578125 -4.984375 8.623046875 15.830078125 -13.4736328125 3.2109375 24.287109375 -4.103515625 -3.4248046875 26.59375 -3.857421875 -0.12890625 25.69921875 -1.90234375 2.8798828125 19.1171875 -9.9111328125 -3.6943359375 24.240234375 -9.6953125 -3.46484375 18.091796875 -10.271484375 -9.7978515625 28.044921875 -10.1376953125 -7.923828125 28.1533203125 -4.7568359375 -8.6591796875 25.9599609375 -4.4462890625 -0.9912109375 25.7001953125 -9.7275390625 -1.10546875 30.5888671875 -9.9521484375 0.005859375 30.80859375 -4.3056640625 0.466796875 28.4912109375 -5.9814453125 2.4765625 27.8232421875 6.8447265625 3.8759765625 28.58203125 6.802734375 -6.666015625 26.345703125 7.322265625 -5.974609375 22.3173828125 -6.748046875 0.4775390625 18.8427734375 -5.9951171875 1.5361328125 26.7451171875 -7.990234375 1.9375 18.5458984375 6.6044921875 -10.46875 22.865234375 -4.318359375 3.146484375</float_array>
                    <technique_common>
                        <accessor count="88" source="#pointarray0" stride="3">
                            <param name="X" type="float"/>
                            <param name="Y" type="float"/>
                            <param name="Z" type="float"/>
                        </accessor>
                    </technique_common>
                </source>
                <source id="uvs0">
                    <float_array id="uvarray0" count="262">0.7168049812316895 0.16668301820755005 0.7173609733581543 0.1574609875679016 0.7041800022125244 0.17708498239517212 0.7029269933700562 0.15070199966430664 0.666670024394989 0.17753201723098755 0.6680219769477844 0.1503000259399414 0.6263049840927124 0.16950297355651855 0.6322399973869324 0.1441749930381775 0.5752750039100647 0.14464998245239258 0.5725070238113403 0.10756802558898926 0.5395370125770569 0.07639002799987793 0.5642489790916443 0.06388098001480103 0.5630980134010315 0.045773983001708984 0.5950610041618347 0.048246026039123535 0.5927550196647644 0.026652991771697998 0.6412860155105591 0.035835981369018555 0.6328740119934082 0.019747018814086914 0.6626160144805908 0.008163988590240479 0.6323840022087097 0.00434499979019165 0.5108529925346375 0.33824801445007324 0.5106059908866882 0.3463420271873474 0.5272459983825684 0.35296398401260376 0.5288249850273132 0.3613470196723938 0.5414829850196838 0.3384310007095337 0.5433650016784668 0.3440709710121155 0.5715010166168213 0.3629850149154663 0.5994409918785095 0.36849600076675415 0.6296769976615906 0.35740000009536743 0.6317300200462341 0.36509400606155396 0.6712499856948853 0.3659690022468567 0.6717150211334229 0.36550599336624146 0.7098810076713562 0.3654929995536804 0.7103520035743713 0.36456000804901123 0.7228839993476868 0.3543909788131714 0.7090830206871033 0.33827900886535645 0.7234569787979126 0.34454798698425293 0.7085909843444824 0.3373349905014038 0.5129370093345642 0.2962939739227295 0.531158983707428 0.3012949824333191 0.5454419851303101 0.2956629991531372 0.5850380063056946 0.2947409749031067 0.5452769994735718 0.2389950156211853 0.5752289891242981 0.22567099332809448 0.5654469728469849 0.21469402313232422 0.6041079759597778 0.2176859974861145 0.6221650242805481 0.20334398746490479 0.627776026725769 0.22255802154541016 0.6093119978904724 0.2368689775466919 0.7327799797058105 0.13742297887802124 0.7333880066871643 0.12380599975585938 0.7174969911575317 0.1460360288619995 0.7200800180435181 0.11662101745605469 0.6782019734382629 0.14646202325820923 0.6781319975852966 0.11482000350952148 0.6327570080757141 0.10865700244903564 0.6332219839096069 0.0773320198059082 0.6065319776535034 0.056568026542663574 0.6244590282440186 0.043157994747161865 0.7309190034866333 0.29538899660110474 0.7289209961891174 0.29527997970581055 0.6886190176010132 0.2962909936904907 0.6899979710578918 0.2963079810142517 0.6357529759407043 0.29601502418518066 0.636322021484375 0.29246199131011963 0.6834930181503296 0.3009200096130371 0.6830549836158752 0.29903900623321533 0.7230439782142639 0.3004549741744995 0.7262570261955261 0.300961971282959 0.7399640083312988 0.30862998962402344 0.6848070025444031 0.257951021194458 0.63680100440979 0.25902998447418213 0.6362890005111694 0.2582870125770569 0.6881189942359924 0.2597010135650635 0.7324600219726562 0.2618029713630676 0.7475929856300354 0.285739004611969 0.5105980038642883 0.23954802751541138 0.5114930272102356 0.26083898544311523 0.5300589799880981 0.23212897777557373 0.5291600227355957 0.2567110061645508 0.5442190170288086 0.2580239772796631 0.5645790100097656 0.22534900903701782 0.5958020091056824 0.19494199752807617 0.6848099827766418 0.07885998487472534 0.6848739981651306 0.11226099729537964 0.7244470119476318 0.07931602001190186 0.7226660251617432 0.11129701137542725 0.7413650155067444 0.09059202671051025 0.7407960295677185 0.10235798358917236 0.6382910013198853 0.22446000576019287 0.6866580247879028 0.2254440188407898 0.6344919800758362 0.22267800569534302 0.6871510148048401 0.22263598442077637 0.6852719783782959 0.2574880123138428 0.7240809798240662 0.25907397270202637 0.7234510183334351 0.2249460220336914 0.7232750058174133 0.22303301095962524 0.7261260151863098 0.25950098037719727 0.7417849898338318 0.2486870288848877 0.7393370270729065 0.3231629729270935 0.7231320142745972 0.33281898498535156 0.6831269860267639 0.3328099846839905 0.72359699010849 0.3323550224304199 0.6727349758148193 0.33705002069473267 0.6726419925689697 0.3369060158729553 0.6357899904251099 0.3303689956665039 0.656557023525238 0.19791799783706665 0.6507729887962341 0.21973097324371338 0.7351570129394531 0.06764101982116699 0.7342510223388672 0.05563002824783325 0.7179669737815857 0.07737398147583008 0.7173560261726379 0.04539597034454346 0.6816310286521912 0.04586297273635864 0.7408519983291626 0.23586899042129517 0.6339349746704102 0.33175402879714966 0.5698189735412598 0.17473602294921875 0.5368800163269043 0.15172898769378662 0.748179018497467 0.2731819748878479 0.730754017829895 0.26114797592163086 0.6899319887161255 0.2606610059738159 0.5263670086860657 0.1601560115814209 0.5934140086174011 0.01728302240371704 0.6798329949378967 0.07632100582122803 0.5263670086860657 0.07324200868606567 0.5110459923744202 0.15155702829360962 0.6346690058708191 0.0449410080909729 0.6729779839515686 0.20171797275543213 0.6670740246772766 0.1852089762687683 0.6359379887580872 0.18113398551940918 0.668349027633667 0.0236319899559021 0.6467880010604858 0.04050999879837036 0.511667013168335 0.07902699708938599</float_array>
                    <technique_common>
                        <accessor count="131" source="#uvarray0" stride="2">
                            <param name="S" type="float"/>
                            <param name="T" type="float"/>
                        </accessor>
                    </technique_common>
                </source>
                <vertices id="vertices0">
                    <input semantic="POSITION" source="#points0"/>
                </vertices>
                <polylist count="169" material="Material1">
                    <input offset="0" semantic="VERTEX" source="#vertices0"/>
                    <input offset="1" semantic="TEXCOORD" source="#uvs0" set="0"/>
                    <vcount>3 3 3 3 3 3 3 3 3 3 3 3 3 3 3 3 3 3 3 3 3 3 3 3 3 3 3 3 3 3 3 3 3 3 3 3 3 3 3 3 3 3 3 3 3 3 3 3 3 3 3 3 3 3 3 3 3 3 3 3 3 3 3 3 3 3 3 3 3 3 3 3 3 3 3 3 3 3 3 3 3 3 3 3 3 3 3 3 3 3 3 3 3 3 3 3 3 3 3 3 3 3 3 3 3 3 3 3 3 3 3 3 3 3 3 3 3 3 3 3 3 3 3 3 3 3 3 3 3 3 3 3 3 3 3 3 3 3 3 3 3 3 3 3 3 3 3 3 3 3 3 3 3 3 3 3 3 3 3 3 3 3 3 3 3 3 3 3 3</vcount>
                    <p>2 2 1 1 0 0 3 3 1 1 2 2 4 4 3 3 2 2 5 5 3 3 4 4 6 6 5 5 4 4 7 7 5 5 6 6 8 8 7 7 6 6 9 9 7 7 8 8 10 10 9 9 8 8 11 11 9 9 10 10 12 12 11 11 10 10 13 13 11 11 12 12 14 14 13 13 12 12 15 15 13 13 14 14 16 16 15 15 14 14 17 17 15 15 16 16 18 18 17 17 16 16 21 21 20 20 19 19 22 22 20 20 21 21 23 23 22 22 21 21 24 24 22 22 23 23 25 25 24 24 23 23 26 26 24 24 25 25 6 27 26 26 25 25 27 28 26 26 6 27 4 29 27 28 6 27 28 30 27 28 4 29 2 31 28 30 4 29 29 32 28 30 2 31 0 33 29 32 2 31 30 34 29 32 0 33 1 35 30 34 0 33 3 36 30 34 1 35 22 22 31 37 20 20 32 38 31 37 22 22 24 24 32 38 22 22 33 39 32 38 24 24 34 40 33 39 24 24 35 41 33 39 34 40 36 42 35 41 34 40 37 43 35 41 36 42 38 44 37 43 36 42 39 45 37 43 38 44 40 46 39 45 38 44 41 47 39 45 40 46 44 50 43 49 42 48 45 51 43 49 44 50 46 52 45 51 44 50 47 53 45 51 46 52 7 7 47 53 46 52 48 54 47 53 7 7 9 9 48 54 7 7 49 55 48 54 9 9 41 56 49 55 9 9 40 57 49 55 41 56 52 60 51 59 50 58 53 61 51 59 52 60 54 62 53 61 52 60 48 63 53 61 54 62 55 64 48 63 54 62 47 65 48 63 55 64 56 66 47 65 55 64 45 67 47 65 56 66 43 68 45 67 56 66 58 71 49 70 57 69 59 72 49 70 58 71 52 60 59 72 58 71 60 73 59 72 52 60 50 58 60 73 52 60 61 74 60 73 50 58 51 59 61 74 50 58 64 77 63 76 62 75 65 78 63 76 64 77 35 41 65 78 64 77 10 79 65 78 35 41 37 43 10 79 35 41 12 80 10 79 37 43 66 81 12 80 37 43 67 82 48 54 49 55 53 83 48 54 67 82 68 84 53 83 67 82 51 85 53 83 68 84 69 86 51 85 68 84 61 87 51 85 69 86 72 90 71 89 70 88 73 91 71 89 72 90 58 71 73 91 72 90 74 92 73 91 58 71 57 69 74 92 58 71 75 93 74 92 57 69 73 91 76 94 71 89 77 95 76 94 73 91 74 92 77 95 73 91 78 96 77 95 74 92 75 93 78 96 74 92 79 97 78 96 75 93 56 66 42 98 43 68 80 99 42 98 56 66 81 100 80 99 56 66 44 101 80 99 81 100 46 100 44 101 81 100 30 34 28 30 29 32 82 102 28 30 30 34 5 103 82 102 30 34 7 104 82 102 5 103 32 38 62 75 31 37 64 77 62 75 32 38 33 39 64 77 32 38 35 41 64 77 33 39 38 44 70 88 40 46 72 90 70 88 38 44 36 42 72 90 38 44 34 40 72 90 36 42 39 45 66 81 37 43 83 105 66 81 39 45 41 47 83 105 39 45 84 106 83 105 41 47 58 71 54 62 52 60 34 40 54 62 58 71 72 90 34 40 58 71 75 109 85 108 79 107 76 110 85 108 75 109 71 111 76 110 75 109 77 95 85 112 76 94 79 97 85 112 77 95 78 96 79 97 77 95 86 113 82 102 7 104 28 30 82 102 86 113 27 28 28 30 86 113 86 113 34 40 27 28 54 62 34 40 86 113 81 100 54 62 86 113 25 114 8 8 6 6 23 115 8 8 25 114 69 116 60 73 61 74 68 117 60 73 69 116 59 72 67 118 49 70 60 73 67 118 59 72 23 115 10 10 8 8 21 119 10 10 23 115 66 120 14 14 12 12 18 18 14 14 66 120 57 121 71 111 75 109 49 55 71 111 57 121 55 64 81 100 56 66 54 62 81 100 55 64 21 119 65 122 10 10 19 123 65 122 21 119 70 124 49 55 40 57 71 111 49 55 70 124 26 26 34 40 24 24 27 28 34 40 26 26 11 11 41 56 9 9 13 13 41 56 11 11 87 125 83 105 84 106 17 126 83 105 87 125 66 81 17 126 18 127 83 105 17 126 66 81 87 128 15 15 17 17 84 129 15 15 87 128 84 129 13 13 15 15 41 56 13 13 84 129 46 100 86 113 7 104 81 100 86 113 46 100 42 98 80 99 44 101 19 123 63 130 65 122 16 16 14 14 18 18 60 73 68 117 67 118 30 34 3 36 5 103</p>
                </polylist>
            </mesh>
        </geometry>
        <geometry id="mesh0_1">
            <mesh>
                <source id="points0_1">
                    <float_array id="pointarray0_1" count="264">23.0146484375 9.80859375 3.2724609375 21.865234375 8.32421875 2.2275390625 22.6123046875 11.6103515625 -0.0029296875 22.5517578125 7.2666015625 -0.4150390625 21.662109375 11.783203125 -3.615234375 21.3291015625 7.28515625 -3.32421875 16.95703125 10.52734375 -4.509765625 18.130859375 6.416015625 -3.7822265625 11.0673828125 6.48046875 5.0859375 9.341796875 0.6962890625 5.96484375 4.2998046875 -4.78125 6.927734375 8.8056640625 -6.59765625 6.93359375 9.052734375 -9.6103515625 5.9990234375 14.087890625 -8.5625 7.0654296875 14.6630859375 -12.2392578125 6.5625 18.7705078125 -7.384765625 6.392578125 20.3828125 -9.9013671875 7.416015625 24.55859375 -6.4306640625 4.7392578125 22.7587890625 -11.0517578125 4.73046875 -0.958984375 7.6201171875 5.755859375 -0.998046875 8.87109375 -2.9736328125 1.6240234375 9.8955078125 7.0888671875 1.873046875 11.19140625 -3.564453125 3.8681640625 7.6484375 5.54296875 4.1650390625 8.5205078125 -3.0322265625 9.8017578125 11.4443359375 2.8330078125 12.4970703125 12.296875 -7.9677734375 18.51171875 11.830078125 -9.6982421875 26.6259765625 11.724609375 -6.1728515625 25.525390625 11.3623046875 3.0126953125 25.322265625 7.3134765625 2.466796875 -0.6298828125 1.134765625 -7.173828125 2.2412109375 1.9072265625 -8.6572265625 4.4921875 1.037109375 -7.1064453125 9.7236328125 0.89453125 -10.8623046875 4.4658203125 -7.72265625 -2.92578125 8.9130859375 -9.7822265625 -6.2392578125 9.8359375 -11.376953125 0.0791015625 13.794921875 -11.0166015625 -4.5927734375 18.984375 -10.1689453125 -0.17578125 18.1044921875 -7.1826171875 0.9111328125 16.015625 -7.0556640625 3.8876953125 24.8486328125 5.3486328125 4.54296875 23.5361328125 3.0947265625 3.40234375 23.8896484375 6.75 0.1328125 23.7734375 1.8984375 0.6162109375 23.4951171875 6.8056640625 -3.40625 23.2939453125 1.5849609375 -3.2626953125 19.1220703125 0.5419921875 -3.478515625 18.853515625 -4.564453125 -3.2509765625 29.7392578125 1.6259765625 3.1142578125 26.7939453125 1.416015625 -0.41796875 29.3076171875 1.3623046875 -7.517578125 24.326171875 1.4013671875 -3.724609375 18.458984375 0.9423828125 -11.5947265625 28.88671875 1.873046875 -6.765625 28.09375 1.8427734375 4.1318359375 24.03125 -4.67578125 -3.8017578125 18.193359375 -4.78515625 -11.5380859375 29.3623046875 -4.2919921875 -7.3603515625 29.767578125 -3.552734375 3.5732421875 27.0625 0.1142578125 4.140625 -0.9990234375 -7.6376953125 -2.671875 -0.857421875 -4.345703125 6.86328125 2.0673828125 -8.7841796875 -3.3134765625 1.92578125 -4.984375 8.623046875 15.830078125 -13.4736328125 3.2109375 24.287109375 -4.103515625 -3.4248046875 26.59375 -3.857421875 -0.12890625 25.69921875 -1.90234375 2.8798828125 19.1171875 -9.9111328125 -3.6943359375 24.240234375 -9.6953125 -3.46484375 18.091796875 -10.271484375 -9.7978515625 28.044921875 -10.1376953125 -7.923828125 28.1533203125 -4.7568359375 -8.6591796875 25.9599609375 -4.4462890625 -0.9912109375 25.7001953125 -9.7275390625 -1.10546875 30.5888671875 -9.9521484375 0.005859375 30.80859375 -4.3056640625 0.466796875 28.4912109375 -5.9814453125 2.4765625 27.8232421875 6.8447265625 3.8759765625 28.58203125 6.802734375 -6.666015625 26.345703125 7.322265625 -5.974609375 22.3173828125 -6.748046875 0.4775390625 18.8427734375 -5.9951171875 1.5361328125 26.7451171875 -7.990234375 1.9375 18.5458984375 6.6044921875 -10.46875 22.865234375 -4.318359375 3.146484375</float_array>
                    <technique_common>
                        <accessor count="88" source="#pointarray0_1" stride="3">
                            <param name="X" type="float"/>
                            <param name="Y" type="float"/>
                            <param name="Z" type="float"/>
                        </accessor>
                    </technique_common>
                </source>
                <source id="uvs0_1">
                    <float_array id="uvarray0_1" count="262">0.15410999953746796 0.42556899785995483 0.15206700563430786 0.4019799828529358 0.20048099756240845 0.45217400789260864 0.2050819993019104 0.3846930265426636 0.33824801445007324 0.45331698656082153 0.3332839906215668 0.38366401195526123 0.48650699853897095 0.43278002738952637 0.4647060036659241 0.3679969906806946 0.6739339828491211 0.3692139983177185 0.6840999722480774 0.27436399459838867 0.8051949739456177 0.19461697340011597 0.7144320011138916 0.16262298822402954 0.7186579704284668 0.11630797386169434 0.6012629866600037 0.12263202667236328 0.6097300052642822 0.0674009919166565 0.4314819872379303 0.09088802337646484 0.4623810052871704 0.04973798990249634 0.35314100980758667 0.02010899782180786 0.4641779959201813 0.010343015193939209 0.9105470180511475 0.8643949925899506 0.911454975605011 0.8850990012288094 0.850337028503418 0.9020359963178635 0.844539999961853 0.9234789982438087 0.7980480194091797 0.8648640066385269 0.7911360263824463 0.8792899996042252 0.6877949833869934 0.9276690036058426 0.585174024105072 0.9417649991810322 0.47412198781967163 0.91338299959898 0.46657899022102356 0.9330620020627975 0.3214290142059326 0.9353009983897209 0.31972000002861023 0.9341150000691414 0.1795399934053421 0.9340820014476776 0.17781199514865875 0.9316970035433769 0.13178199529647827 0.9056859984993935 0.18247200548648834 0.8644759953022003 0.12967799603939056 0.880511000752449 0.18427899479866028 0.862062007188797 0.9028930068016052 0.757085993885994 0.8359659910202026 0.7698770016431808 0.7835050225257874 0.7554720044136047 0.6380730271339417 0.7531139999628067 0.7841129899024963 0.6105279922485352 0.6741009950637817 0.576445996761322 0.7100309729576111 0.5483700037002563 0.5680320262908936 0.5560239851474762 0.5017110109329224 0.5193400084972382 0.4811049997806549 0.5684840083122253 0.5489190220832825 0.6050899922847748 0.09543599933385849 0.35072702169418335 0.09320099651813507 0.3158990144729614 0.1515679955482483 0.3727579712867737 0.14208300411701202 0.2975209951400757 0.29589399695396423 0.373848021030426 0.29614999890327454 0.292913019657135 0.4628089964389801 0.2771499752998352 0.4611020088195801 0.1970270276069641 0.5591310262680054 0.1439170241355896 0.49328699707984924 0.10961800813674927 0.10226999968290329 0.7547719925642014 0.10961099714040756 0.754492998123169 0.2576340138912201 0.757079005241394 0.25256800651550293 0.7571219950914383 0.4518049955368042 0.7563710063695908 0.4497149884700775 0.7472839951515198 0.27646100521087646 0.7689200043678284 0.27807098627090454 0.7641080021858215 0.13119499385356903 0.7677280008792877 0.11939399689435959 0.7690259963274002 0.06905099749565125 0.7886389940977097 0.2716360092163086 0.6590139865875244 0.44795700907707214 0.6617720127105713 0.44983500242233276 0.6598719954490662 0.25947099924087524 0.6634890139102936 0.09661299735307693 0.6688640117645264 0.041030000895261765 0.7300879955291748 0.9114840030670166 0.611941009759903 0.908195972442627 0.6663999855518341 0.8400049805641174 0.5929650068283081 0.8433089852333069 0.6558400094509125 0.7879970073699951 0.6592000126838684 0.7132179737091064 0.5756239891052246 0.5985410213470459 0.4978479743003845 0.27162501215934753 0.20093601942062378 0.2713879942893982 0.2863669991493225 0.12604300677776337 0.20210301876068115 0.13258400559425354 0.2839040160179138 0.06390500068664551 0.23094499111175537 0.06599400192499161 0.26103800535202026 0.44248199462890625 0.5733489990234375 0.264835000038147 0.5758680105209351 0.45643800497055054 0.5687919855117798 0.26302799582481384 0.568684995174408 0.2699280083179474 0.6578280031681061 0.12738600373268127 0.6618860065937042 0.1296979933977127 0.5745930075645447 0.13034600019454956 0.5697000026702881 0.1198740005493164 0.662977010011673 0.06236200034618378 0.6353169977664948 0.0713530033826828 0.8258109986782074 0.1308719962835312 0.8505090028047562 0.27780699729919434 0.8504859954118729 0.12916299700737 0.8493230044841766 0.31597399711608887 0.8613319993019104 0.3163149952888489 0.8609630018472672 0.45166900753974915 0.8442420065402985 0.37539398670196533 0.5054619908332825 0.39664000272750854 0.5612539947032928 0.0867059975862503 0.1722390055656433 0.09003400057554245 0.14151901006698608 0.14984199404716492 0.19713401794433594 0.15208700299263 0.11534202098846436 0.2832989990711212 0.11653697490692139 0.06578800082206726 0.6025309860706329 0.4584839940071106 0.8477839976549149 0.6939740180969238 0.4461659789085388 0.8149549961090088 0.38731902837753296 0.03887899965047836 0.697970986366272 0.1028750017285347 0.6671890020370483 0.252811998128891 0.6659440100193024 0.8535659909248352 0.408873975276947 0.607312023639679 0.0434340238571167 0.289902001619339 0.19444197416305542 0.8535659909248352 0.18656599521636963 0.9098380208015442 0.386879026889801 0.45578598976135254 0.11417698860168457 0.3150799870491028 0.5151799917221069 0.33676600456237793 0.47295302152633667 0.45112499594688416 0.4625309705734253 0.3320840001106262 0.05967402458190918 0.4112749993801117 0.1028439998626709 0.9075559973716736 0.20136302709579468</float_array>
                    <technique_common>
                        <accessor count="131" source="#uvarray0_1" stride="2">
                            <param name="S" type="float"/>
                            <param name="T" type="float"/>
                        </accessor>
                    </technique_common>
                </source>
                <vertices id="vertices0_1">
                    <input semantic="POSITION" source="#points0_1"/>
                </vertices>
                <polylist count="169" material="Material1">
                    <input offset="0" semantic="VERTEX" source="#vertices0_1"/>
                    <input offset="1" semantic="TEXCOORD" source="#uvs0_1" set="0"/>
                    <vcount>3 3 3 3 3 3 3 3 3 3 3 3 3 3 3 3 3 3 3 3 3 3 3 3 3 3 3 3 3 3 3 3 3 3 3 3 3 3 3 3 3 3 3 3 3 3 3 3 3 3 3 3 3 3 3 3 3 3 3 3 3 3 3 3 3 3 3 3 3 3 3 3 3 3 3 3 3 3 3 3 3 3 3 3 3 3 3 3 3 3 3 3 3 3 3 3 3 3 3 3 3 3 3 3 3 3 3 3 3 3 3 3 3 3 3 3 3 3 3 3 3 3 3 3 3 3 3 3 3 3 3 3 3 3 3 3 3 3 3 3 3 3 3 3 3 3 3 3 3 3 3 3 3 3 3 3 3 3 3 3 3 3 3 3 3 3 3 3 3</vcount>
                    <p>2 2 1 1 0 0 3 3 1 1 2 2 4 4 3 3 2 2 5 5 3 3 4 4 6 6 5 5 4 4 7 7 5 5 6 6 8 8 7 7 6 6 9 9 7 7 8 8 10 10 9 9 8 8 11 11 9 9 10 10 12 12 11 11 10 10 13 13 11 11 12 12 14 14 13 13 12 12 15 15 13 13 14 14 16 16 15 15 14 14 17 17 15 15 16 16 18 18 17 17 16 16 21 21 20 20 19 19 22 22 20 20 21 21 23 23 22 22 21 21 24 24 22 22 23 23 25 25 24 24 23 23 26 26 24 24 25 25 6 27 26 26 25 25 27 28 26 26 6 27 4 29 27 28 6 27 28 30 27 28 4 29 2 31 28 30 4 29 29 32 28 30 2 31 0 33 29 32 2 31 30 34 29 32 0 33 1 35 30 34 0 33 3 36 30 34 1 35 22 22 31 37 20 20 32 38 31 37 22 22 24 24 32 38 22 22 33 39 32 38 24 24 34 40 33 39 24 24 35 41 33 39 34 40 36 42 35 41 34 40 37 43 35 41 36 42 38 44 37 43 36 42 39 45 37 43 38 44 40 46 39 45 38 44 41 47 39 45 40 46 44 50 43 49 42 48 45 51 43 49 44 50 46 52 45 51 44 50 47 53 45 51 46 52 7 7 47 53 46 52 48 54 47 53 7 7 9 9 48 54 7 7 49 55 48 54 9 9 41 56 49 55 9 9 40 57 49 55 41 56 52 60 51 59 50 58 53 61 51 59 52 60 54 62 53 61 52 60 48 63 53 61 54 62 55 64 48 63 54 62 47 65 48 63 55 64 56 66 47 65 55 64 45 67 47 65 56 66 43 68 45 67 56 66 58 71 49 70 57 69 59 72 49 70 58 71 52 60 59 72 58 71 60 73 59 72 52 60 50 58 60 73 52 60 61 74 60 73 50 58 51 59 61 74 50 58 64 77 63 76 62 75 65 78 63 76 64 77 35 41 65 78 64 77 10 79 65 78 35 41 37 43 10 79 35 41 12 80 10 79 37 43 66 81 12 80 37 43 67 82 48 54 49 55 53 83 48 54 67 82 68 84 53 83 67 82 51 85 53 83 68 84 69 86 51 85 68 84 61 87 51 85 69 86 72 90 71 89 70 88 73 91 71 89 72 90 58 71 73 91 72 90 74 92 73 91 58 71 57 69 74 92 58 71 75 93 74 92 57 69 73 91 76 94 71 89 77 95 76 94 73 91 74 92 77 95 73 91 78 96 77 95 74 92 75 93 78 96 74 92 79 97 78 96 75 93 56 66 42 98 43 68 80 99 42 98 56 66 81 100 80 99 56 66 44 101 80 99 81 100 46 100 44 101 81 100 30 34 28 30 29 32 82 102 28 30 30 34 5 103 82 102 30 34 7 104 82 102 5 103 32 38 62 75 31 37 64 77 62 75 32 38 33 39 64 77 32 38 35 41 64 77 33 39 38 44 70 88 40 46 72 90 70 88 38 44 36 42 72 90 38 44 34 40 72 90 36 42 39 45 66 81 37 43 83 105 66 81 39 45 41 47 83 105 39 45 84 106 83 105 41 47 58 71 54 62 52 60 34 40 54 62 58 71 72 90 34 40 58 71 75 109 85 108 79 107 76 110 85 108 75 109 71 111 76 110 75 109 77 95 85 112 76 94 79 97 85 112 77 95 78 96 79 97 77 95 86 113 82 102 7 104 28 30 82 102 86 113 27 28 28 30 86 113 86 113 34 40 27 28 54 62 34 40 86 113 81 100 54 62 86 113 25 114 8 8 6 6 23 115 8 8 25 114 69 116 60 73 61 74 68 117 60 73 69 116 59 72 67 118 49 70 60 73 67 118 59 72 23 115 10 10 8 8 21 119 10 10 23 115 66 120 14 14 12 12 18 18 14 14 66 120 57 121 71 111 75 109 49 55 71 111 57 121 55 64 81 100 56 66 54 62 81 100 55 64 21 119 65 122 10 10 19 123 65 122 21 119 70 124 49 55 40 57 71 111 49 55 70 124 26 26 34 40 24 24 27 28 34 40 26 26 11 11 41 56 9 9 13 13 41 56 11 11 87 125 83 105 84 106 17 126 83 105 87 125 66 81 17 126 18 127 83 105 17 126 66 81 87 128 15 15 17 17 84 129 15 15 87 128 84 129 13 13 15 15 41 56 13 13 84 129 46 100 86 113 7 104 81 100 86 113 46 100 42 98 80 99 44 101 19 123 63 130 65 122 16 16 14 14 18 18 60 73 68 117 67 118 30 34 3 36 5 103</p>
                </polylist>
            </mesh>
        </geometry>
        <geometry id="mesh0_2">
            <mesh>
                <source id="points0_2">
                    <float_array id="pointarray0_2" count="264">23.0146484375 9.80859375 3.2724609375 21.865234375 8.32421875 2.2275390625 22.6123046875 11.6103515625 -0.0029296875 22.5517578125 7.2666015625 -0.4150390625 21.662109375 11.783203125 -3.615234375 21.3291015625 7.28515625 -3.32421875 16.95703125 10.52734375 -4.509765625 18.130859375 6.416015625 -3.7822265625 11.0673828125 6.48046875 5.0859375 9.341796875 0.6962890625 5.96484375 4.2998046875 -4.78125 6.927734375 8.8056640625 -6.59765625 6.93359375 9.052734375 -9.6103515625 5.9990234375 14.087890625 -8.5625 7.0654296875 14.6630859375 -12.2392578125 6.5625 18.7705078125 -7.384765625 6.392578125 20.3828125 -9.9013671875 7.416015625 24.55859375 -6.4306640625 4.7392578125 22.7587890625 -11.0517578125 4.73046875 -0.958984375 7.6201171875 5.755859375 -0.998046875 8.87109375 -2.9736328125 1.6240234375 9.8955078125 7.0888671875 1.873046875 11.19140625 -3.564453125 3.8681640625 7.6484375 5.54296875 4.1650390625 8.5205078125 -3.0322265625 9.8017578125 11.4443359375 2.8330078125 12.4970703125 12.296875 -7.9677734375 18.51171875 11.830078125 -9.6982421875 26.6259765625 11.724609375 -6.1728515625 25.525390625 11.3623046875 3.0126953125 25.322265625 7.3134765625 2.466796875 -0.6298828125 1.134765625 -7.173828125 2.2412109375 1.9072265625 -8.6572265625 4.4921875 1.037109375 -7.1064453125 9.7236328125 0.89453125 -10.8623046875 4.4658203125 -7.72265625 -2.92578125 8.9130859375 -9.7822265625 -6.2392578125 9.8359375 -11.376953125 0.0791015625 13.794921875 -11.0166015625 -4.5927734375 18.984375 -10.1689453125 -0.17578125 18.1044921875 -7.1826171875 0.9111328125 16.015625 -7.0556640625 3.8876953125 24.8486328125 5.3486328125 4.54296875 23.5361328125 3.0947265625 3.40234375 23.8896484375 6.75 0.1328125 23.7734375 1.8984375 0.6162109375 23.4951171875 6.8056640625 -3.40625 23.2939453125 1.5849609375 -3.2626953125 19.1220703125 0.5419921875 -3.478515625 18.853515625 -4.564453125 -3.2509765625 29.7392578125 1.6259765625 3.1142578125 26.7939453125 1.416015625 -0.41796875 29.3076171875 1.3623046875 -7.517578125 24.326171875 1.4013671875 -3.724609375 18.458984375 0.9423828125 -11.5947265625 28.88671875 1.873046875 -6.765625 28.09375 1.8427734375 4.1318359375 24.03125 -4.67578125 -3.8017578125 18.193359375 -4.78515625 -11.5380859375 29.3623046875 -4.2919921875 -7.3603515625 29.767578125 -3.552734375 3.5732421875 27.0625 0.1142578125 4.140625 -0.9990234375 -7.6376953125 -2.671875 -0.857421875 -4.345703125 6.86328125 2.0673828125 -8.7841796875 -3.3134765625 1.92578125 -4.984375 8.623046875 15.830078125 -13.4736328125 3.2109375 24.287109375 -4.103515625 -3.4248046875 26.59375 -3.857421875 -0.12890625 25.69921875 -1.90234375 2.8798828125 19.1171875 -9.9111328125 -3.6943359375 24.240234375 -9.6953125 -3.46484375 18.091796875 -10.271484375 -9.7978515625 28.044921875 -10.1376953125 -7.923828125 28.1533203125 -4.7568359375 -8.6591796875 25.9599609375 -4.4462890625 -0.9912109375 25.7001953125 -9.7275390625 -1.10546875 30.5888671875 -9.9521484375 0.005859375 30.80859375 -4.3056640625 0.466796875 28.4912109375 -5.9814453125 2.4765625 27.8232421875 6.8447265625 3.8759765625 28.58203125 6.802734375 -6.666015625 26.345703125 7.322265625 -5.974609375 22.3173828125 -6.748046875 0.4775390625 18.8427734375 -5.9951171875 1.5361328125 26.7451171875 -7.990234375 1.9375 18.5458984375 6.6044921875 -10.46875 22.865234375 -4.318359375 3.146484375</float_array>
                    <technique_common>
                        <accessor count="88" source="#pointarray0_2" stride="3">
                            <param name="X" type="float"/>
                            <param name="Y" type="float"/>
                            <param name="Z" type="float"/>
                        </accessor>
                    </technique_common>
                </source>
                <source id="uvs0_2">
                    <float_array id="uvarray0_2" count="262">0.7168049812316895 0.16668301820755005 0.7173609733581543 0.1574609875679016 0.7041800022125244 0.17708498239517212 0.7029269933700562 0.15070199966430664 0.666670024394989 0.17753201723098755 0.6680219769477844 0.1503000259399414 0.6263049840927124 0.16950297355651855 0.6322399973869324 0.1441749930381775 0.5752750039100647 0.14464998245239258 0.5725070238113403 0.10756802558898926 0.5395370125770569 0.07639002799987793 0.5642489790916443 0.06388098001480103 0.5630980134010315 0.045773983001708984 0.5950610041618347 0.048246026039123535 0.5927550196647644 0.026652991771697998 0.6412860155105591 0.035835981369018555 0.6328740119934082 0.019747018814086914 0.6626160144805908 0.008163988590240479 0.6323840022087097 0.00434499979019165 0.5108529925346375 0.33824801445007324 0.5106059908866882 0.3463420271873474 0.5272459983825684 0.35296398401260376 0.5288249850273132 0.3613470196723938 0.5414829850196838 0.3384310007095337 0.5433650016784668 0.3440709710121155 0.5715010166168213 0.3629850149154663 0.5994409918785095 0.36849600076675415 0.6296769976615906 0.35740000009536743 0.6317300200462341 0.36509400606155396 0.6712499856948853 0.3659690022468567 0.6717150211334229 0.36550599336624146 0.7098810076713562 0.3654929995536804 0.7103520035743713 0.36456000804901123 0.7228839993476868 0.3543909788131714 0.7090830206871033 0.33827900886535645 0.7234569787979126 0.34454798698425293 0.7085909843444824 0.3373349905014038 0.5129370093345642 0.2962939739227295 0.531158983707428 0.3012949824333191 0.5454419851303101 0.2956629991531372 0.5850380063056946 0.2947409749031067 0.5452769994735718 0.2389950156211853 0.5752289891242981 0.22567099332809448 0.5654469728469849 0.21469402313232422 0.6041079759597778 0.2176859974861145 0.6221650242805481 0.20334398746490479 0.627776026725769 0.22255802154541016 0.6093119978904724 0.2368689775466919 0.7327799797058105 0.13742297887802124 0.7333880066871643 0.12380599975585938 0.7174969911575317 0.1460360288619995 0.7200800180435181 0.11662101745605469 0.6782019734382629 0.14646202325820923 0.6781319975852966 0.11482000350952148 0.6327570080757141 0.10865700244903564 0.6332219839096069 0.0773320198059082 0.6065319776535034 0.056568026542663574 0.6244590282440186 0.043157994747161865 0.7309190034866333 0.29538899660110474 0.7289209961891174 0.29527997970581055 0.6886190176010132 0.2962909936904907 0.6899979710578918 0.2963079810142517 0.6357529759407043 0.29601502418518066 0.636322021484375 0.29246199131011963 0.6834930181503296 0.3009200096130371 0.6830549836158752 0.29903900623321533 0.7230439782142639 0.3004549741744995 0.7262570261955261 0.300961971282959 0.7399640083312988 0.30862998962402344 0.6848070025444031 0.257951021194458 0.63680100440979 0.25902998447418213 0.6362890005111694 0.2582870125770569 0.6881189942359924 0.2597010135650635 0.7324600219726562 0.2618029713630676 0.7475929856300354 0.285739004611969 0.5105980038642883 0.23954802751541138 0.5114930272102356 0.26083898544311523 0.5300589799880981 0.23212897777557373 0.5291600227355957 0.2567110061645508 0.5442190170288086 0.2580239772796631 0.5645790100097656 0.22534900903701782 0.5958020091056824 0.19494199752807617 0.6848099827766418 0.07885998487472534 0.6848739981651306 0.11226099729537964 0.7244470119476318 0.07931602001190186 0.7226660251617432 0.11129701137542725 0.7413650155067444 0.09059202671051025 0.7407960295677185 0.10235798358917236 0.6382910013198853 0.22446000576019287 0.6866580247879028 0.2254440188407898 0.6344919800758362 0.22267800569534302 0.6871510148048401 0.22263598442077637 0.6852719783782959 0.2574880123138428 0.7240809798240662 0.25907397270202637 0.7234510183334351 0.2249460220336914 0.7232750058174133 0.22303301095962524 0.7261260151863098 0.25950098037719727 0.7417849898338318 0.2486870288848877 0.7393370270729065 0.3231629729270935 0.7231320142745972 0.33281898498535156 0.6831269860267639 0.3328099846839905 0.72359699010849 0.3323550224304199 0.6727349758148193 0.33705002069473267 0.6726419925689697 0.3369060158729553 0.6357899904251099 0.3303689956665039 0.656557023525238 0.19791799783706665 0.6507729887962341 0.21973097324371338 0.7351570129394531 0.06764101982116699 0.7342510223388672 0.05563002824783325 0.7179669737815857 0.07737398147583008 0.7173560261726379 0.04539597034454346 0.6816310286521912 0.04586297273635864 0.7408519983291626 0.23586899042129517 0.6339349746704102 0.33175402879714966 0.5698189735412598 0.17473602294921875 0.5368800163269043 0.15172898769378662 0.748179018497467 0.2731819748878479 0.730754017829895 0.26114797592163086 0.6899319887161255 0.2606610059738159 0.5263670086860657 0.1601560115814209 0.5934140086174011 0.01728302240371704 0.6798329949378967 0.07632100582122803 0.5263670086860657 0.07324200868606567 0.5110459923744202 0.15155702829360962 0.6346690058708191 0.0449410080909729 0.6729779839515686 0.20171797275543213 0.6670740246772766 0.1852089762687683 0.6359379887580872 0.18113398551940918 0.668349027633667 0.0236319899559021 0.6467880010604858 0.04050999879837036 0.511667013168335 0.07902699708938599</float_array>
                    <technique_common>
                        <accessor count="131" source="#uvarray0_2" stride="2">
                            <param name="S" type="float"/>
                            <param name="T" type="float"/>
                        </accessor>
                    </technique_common>
                </source>
                <vertices id="vertices0_2">
                    <input semantic="POSITION" source="#points0_2"/>
                </vertices>
                <polylist count="169" material="Material1">
                    <input offset="0" semantic="VERTEX" source="#vertices0_2"/>
                    <input offset="1" semantic="TEXCOORD" source="#uvs0_2" set="0"/>
                    <vcount>3 3 3 3 3 3 3 3 3 3 3 3 3 3 3 3 3 3 3 3 3 3 3 3 3 3 3 3 3 3 3 3 3 3 3 3 3 3 3 3 3 3 3 3 3 3 3 3 3 3 3 3 3 3 3 3 3 3 3 3 3 3 3 3 3 3 3 3 3 3 3 3 3 3 3 3 3 3 3 3 3 3 3 3 3 3 3 3 3 3 3 3 3 3 3 3 3 3 3 3 3 3 3 3 3 3 3 3 3 3 3 3 3 3 3 3 3 3 3 3 3 3 3 3 3 3 3 3 3 3 3 3 3 3 3 3 3 3 3 3 3 3 3 3 3 3 3 3 3 3 3 3 3 3 3 3 3 3 3 3 3 3 3 3 3 3 3 3 3</vcount>
                    <p>2 2 1 1 0 0 3 3 1 1 2 2 4 4 3 3 2 2 5 5 3 3 4 4 6 6 5 5 4 4 7 7 5 5 6 6 8 8 7 7 6 6 9 9 7 7 8 8 10 10 9 9 8 8 11 11 9 9 10 10 12 12 11 11 10 10 13 13 11 11 12 12 14 14 13 13 12 12 15 15 13 13 14 14 16 16 15 15 14 14 17 17 15 15 16 16 18 18 17 17 16 16 21 21 20 20 19 19 22 22 20 20 21 21 23 23 22 22 21 21 24 24 22 22 23 23 25 25 24 24 23 23 26 26 24 24 25 25 6 27 26 26 25 25 27 28 26 26 6 27 4 29 27 28 6 27 28 30 27 28 4 29 2 31 28 30 4 29 29 32 28 30 2 31 0 33 29 32 2 31 30 34 29 32 0 33 1 35 30 34 0 33 3 36 30 34 1 35 22 22 31 37 20 20 32 38 31 37 22 22 24 24 32 38 22 22 33 39 32 38 24 24 34 40 33 39 24 24 35 41 33 39 34 40 36 42 35 41 34 40 37 43 35 41 36 42 38 44 37 43 36 42 39 45 37 43 38 44 40 46 39 45 38 44 41 47 39 45 40 46 44 50 43 49 42 48 45 51 43 49 44 50 46 52 45 51 44 50 47 53 45 51 46 52 7 7 47 53 46 52 48 54 47 53 7 7 9 9 48 54 7 7 49 55 48 54 9 9 41 56 49 55 9 9 40 57 49 55 41 56 52 60 51 59 50 58 53 61 51 59 52 60 54 62 53 61 52 60 48 63 53 61 54 62 55 64 48 63 54 62 47 65 48 63 55 64 56 66 47 65 55 64 45 67 47 65 56 66 43 68 45 67 56 66 58 71 49 70 57 69 59 72 49 70 58 71 52 60 59 72 58 71 60 73 59 72 52 60 50 58 60 73 52 60 61 74 60 73 50 58 51 59 61 74 50 58 64 77 63 76 62 75 65 78 63 76 64 77 35 41 65 78 64 77 10 79 65 78 35 41 37 43 10 79 35 41 12 80 10 79 37 43 66 81 12 80 37 43 67 82 48 54 49 55 53 83 48 54 67 82 68 84 53 83 67 82 51 85 53 83 68 84 69 86 51 85 68 84 61 87 51 85 69 86 72 90 71 89 70 88 73 91 71 89 72 90 58 71 73 91 72 90 74 92 73 91 58 71 57 69 74 92 58 71 75 93 74 92 57 69 73 91 76 94 71 89 77 95 76 94 73 91 74 92 77 95 73 91 78 96 77 95 74 92 75 93 78 96 74 92 79 97 78 96 75 93 56 66 42 98 43 68 80 99 42 98 56 66 81 100 80 99 56 66 44 101 80 99 81 100 46 100 44 101 81 100 30 34 28 30 29 32 82 102 28 30 30 34 5 103 82 102 30 34 7 104 82 102 5 103 32 38 62 75 31 37 64 77 62 75 32 38 33 39 64 77 32 38 35 41 64 77 33 39 38 44 70 88 40 46 72 90 70 88 38 44 36 42 72 90 38 44 34 40 72 90 36 42 39 45 66 81 37 43 83 105 66 81 39 45 41 47 83 105 39 45 84 106 83 105 41 47 58 71 54 62 52 60 34 40 54 62 58 71 72 90 34 40 58 71 75 109 85 108 79 107 76 110 85 108 75 109 71 111 76 110 75 109 77 95 85 112 76 94 79 97 85 112 77 95 78 96 79 97 77 95 86 113 82 102 7 104 28 30 82 102 86 113 27 28 28 30 86 113 86 113 34 40 27 28 54 62 34 40 86 113 81 100 54 62 86 113 25 114 8 8 6 6 23 115 8 8 25 114 69 116 60 73 61 74 68 117 60 73 69 116 59 72 67 118 49 70 60 73 67 118 59 72 23 115 10 10 8 8 21 119 10 10 23 115 66 120 14 14 12 12 18 18 14 14 66 120 57 121 71 111 75 109 49 55 71 111 57 121 55 64 81 100 56 66 54 62 81 100 55 64 21 119 65 122 10 10 19 123 65 122 21 119 70 124 49 55 40 57 71 111 49 55 70 124 26 26 34 40 24 24 27 28 34 40 26 26 11 11 41 56 9 9 13 13 41 56 11 11 87 125 83 105 84 106 17 126 83 105 87 125 66 81 17 126 18 127 83 105 17 126 66 81 87 128 15 15 17 17 84 129 15 15 87 128 84 129 13 13 15 15 41 56 13 13 84 129 46 100 86 113 7 104 81 100 86 113 46 100 42 98 80 99 44 101 19 123 63 130 65 122 16 16 14 14 18 18 60 73 68 117 67 118 30 34 3 36 5 103</p>
                </polylist>
            </mesh>
        </geometry>
    </library_geometries>
    <library_visual_scenes>
        <visual_scene id="VisualSceneNode">
            <node id="node0" name="m0" type="NODE">
                <instance_geometry url="#mesh0">
                    <bind_material>
                        <technique_common>
                            <instance_material symbol="Material1" target="#mat0">
                                <bind_vertex_input semantic="UVSET0" input_semantic="TEXCOORD" input_set="0"></bind_vertex_input>
                            </instance_material>
                        </technique_common>
                    </bind_material>
                </instance_geometry>
            </node>
            <node id="node0_1" name="m0_1" type="NODE">
                <instance_geometry url="#mesh0_1">
                    <bind_material>
                        <technique_common>
                            <instance_material symbol="Material1" target="#mat0_1">
                                <bind_vertex_input semantic="UVSET0" input_semantic="TEXCOORD" input_set="0"></bind_vertex_input>
                            </instance_material>
                        </technique_common>
                    </bind_material>
                </instance_geometry>
            </node>
            <node id="node0_2" name="m0_2" type="NODE">
                <instance_geometry url="#mesh0_2">
                    <bind_material>
                        <technique_common>
                            <instance_material symbol="Material1" target="#mat0_2">
                                <bind_vertex_input semantic="UVSET0" input_semantic="TEXCOORD" input_set="0"></bind_vertex_input>
                            </instance_material>
                        </technique_common>
                    </bind_material>
                </instance_geometry>
            </node>
        </visual_scene>
    </library_visual_scenes>
    <scene>
        <instance_visual_scene url="#VisualSceneNode"></instance_visual_scene>
    </scene>
</COLLADA>
