<?xml version="1.0"?>
<COLLADA xmlns="http://www.collada.org/2005/11/COLLADASchema" version="1.4.1">
    <asset>
        <contributor>
            <authoring_tool>J3D Ripoff Exporter</authoring_tool>
        </contributor>
        <created>2026-07-03T01:46:10.537Z</created>
        <modified>2026-07-03T01:46:10.537Z</modified>
		<unit meter="0.01" name="centimeter" ></unit>
        <up_axis>Y_UP</up_axis>
    </asset>
    <library_images>
        <image id="tex0">
            <init_from>H_ma_new_main_s3tc.png</init_from>
        </image>
        <image id="tex1">
            <init_from>H_ma_polmask_hand_i4.png</init_from>
        </image>
        <image id="tex2">
            <init_from>H_ma_rak_dummy.png</init_from>
        </image>
        <image id="tex3">
            <init_from>H_toon_2_4i.png</init_from>
        </image>
    </library_images>
    <library_effects>
        <effect id="effect0">
            <profile_COMMON>
                <newparam sid="surface0">
                    <surface type="2D">
                        <init_from>tex0</init_from>
                    </surface>
                </newparam>
                <newparam sid="sampler0">
                    <sampler2D>
                        <source>surface0</source>
                    </sampler2D>
                </newparam>
                <technique sid="COMMON">
                    <blinn>
                        <diffuse>
                            <texture texture="sampler0" texcoord="UVSET0"></texture>
                        </diffuse>
                    </blinn>
                </technique>
            </profile_COMMON>
        </effect>
        <effect id="effect0_1">
            <profile_COMMON>
                <newparam sid="surface0_1">
                    <surface type="2D">
                        <init_from>tex1</init_from>
                    </surface>
                </newparam>
                <newparam sid="sampler0_1">
                    <sampler2D>
                        <source>surface0_1</source>
                    </sampler2D>
                </newparam>
                <technique sid="COMMON">
                    <blinn>
                        <diffuse>
                            <texture texture="sampler0_1" texcoord="UVSET0"></texture>
                        </diffuse>
                    </blinn>
                </technique>
            </profile_COMMON>
        </effect>
        <effect id="effect0_2">
            <profile_COMMON>
                <newparam sid="surface0_2">
                    <surface type="2D">
                        <init_from>tex2</init_from>
                    </surface>
                </newparam>
                <newparam sid="sampler0_2">
                    <sampler2D>
                        <source>surface0_2</source>
                    </sampler2D>
                </newparam>
                <technique sid="COMMON">
                    <blinn>
                        <diffuse>
                            <texture texture="sampler0_2" texcoord="UVSET0"></texture>
                        </diffuse>
                    </blinn>
                </technique>
            </profile_COMMON>
        </effect>
    </library_effects>
    <library_materials>
        <material id="mat0" name="_mat_hand2_L">
            <instance_effect url="#effect0"></instance_effect>
        </material>
        <material id="mat0_1" name="_mat_hand2_L_uv2">
            <instance_effect url="#effect0_1"></instance_effect>
        </material>
        <material id="mat0_2" name="_mat_hand2_L_uv3">
            <instance_effect url="#effect0_2"></instance_effect>
        </material>
    </library_materials>
    <library_geometries>
        <geometry id="mesh0">
            <mesh>
                <source id="points0">
                    <float_array id="pointarray0" count="264">25.69921875 -1.90234375 -2.8798828125 29.767578125 -3.552734375 -3.5732421875 27.0625 0.1142578125 -4.140625 29.7392578125 1.6259765625 -3.1142578125 26.7939453125 1.416015625 0.41796875 29.3076171875 1.3623046875 7.517578125 24.326171875 1.4013671875 3.724609375 18.458984375 0.9423828125 11.5947265625 19.1220703125 0.5419921875 3.478515625 28.88671875 1.873046875 6.765625 23.2939453125 1.5849609375 3.2626953125 28.09375 1.8427734375 -4.1318359375 23.7734375 1.8984375 -0.6162109375 23.5361328125 3.0947265625 -3.40234375 -0.857421875 -4.345703125 -6.86328125 -0.9990234375 -7.6376953125 2.671875 1.92578125 -4.984375 -8.623046875 2.0673828125 -8.7841796875 3.3134765625 4.2998046875 -4.78125 -6.927734375 4.4658203125 -7.72265625 2.92578125 9.8359375 -11.376953125 -0.0791015625 8.9130859375 -9.7822265625 6.2392578125 13.794921875 -11.0166015625 4.5927734375 18.091796875 -10.271484375 9.7978515625 19.1171875 -9.9111328125 3.6943359375 24.240234375 -9.6953125 3.46484375 25.7001953125 -9.7275390625 1.10546875 28.044921875 -10.1376953125 7.923828125 18.193359375 -4.78515625 11.5380859375 9.7236328125 0.89453125 10.8623046875 18.5458984375 6.6044921875 10.46875 28.58203125 6.802734375 6.666015625 23.4951171875 6.8056640625 3.40625 23.8896484375 6.75 -0.1328125 -0.6298828125 1.134765625 7.173828125 2.2412109375 1.9072265625 8.6572265625 4.4921875 1.037109375 7.1064453125 4.1650390625 8.5205078125 3.0322265625 12.4970703125 12.296875 7.9677734375 9.8017578125 11.4443359375 -2.8330078125 16.95703125 10.52734375 4.509765625 21.865234375 8.32421875 -2.2275390625 25.322265625 7.3134765625 -2.466796875 23.0146484375 9.80859375 -3.2724609375 25.525390625 11.3623046875 -3.0126953125 22.6123046875 11.6103515625 0.0029296875 26.6259765625 11.724609375 6.1728515625 21.662109375 11.783203125 3.615234375 18.51171875 11.830078125 9.6982421875 9.341796875 0.6962890625 -5.96484375 11.0673828125 6.48046875 -5.0859375 3.8681640625 7.6484375 -5.54296875 1.6240234375 9.8955078125 -7.0888671875 -0.958984375 7.6201171875 -5.755859375 16.015625 -7.0556640625 -3.8876953125 8.8056640625 -6.59765625 -6.93359375 14.087890625 -8.5625 -7.0654296875 9.052734375 -9.6103515625 -5.9990234375 14.6630859375 -12.2392578125 -6.5625 15.830078125 -13.4736328125 -3.2109375 20.3828125 -9.9013671875 -7.416015625 22.7587890625 -11.0517578125 -4.73046875 18.130859375 6.416015625 3.7822265625 26.345703125 7.322265625 5.974609375 21.3291015625 7.28515625 3.32421875 22.5517578125 7.2666015625 0.4150390625 26.7451171875 -7.990234375 -1.9375 30.5888671875 -9.9521484375 -0.005859375 28.4912109375 -5.9814453125 -2.4765625 30.80859375 -4.3056640625 -0.466796875 25.9599609375 -4.4462890625 0.9912109375 28.1533203125 -4.7568359375 8.6591796875 24.03125 -4.67578125 3.8017578125 24.55859375 -6.4306640625 -4.7392578125 18.7705078125 -7.384765625 -6.392578125 18.8427734375 -5.9951171875 -1.5361328125 18.853515625 -4.564453125 3.2509765625 18.1044921875 -7.1826171875 -0.9111328125 18.984375 -10.1689453125 0.17578125 29.3623046875 -4.2919921875 7.3603515625 26.59375 -3.857421875 0.12890625 24.287109375 -4.103515625 3.4248046875 24.8486328125 5.3486328125 -4.54296875 27.8232421875 6.8447265625 -3.8759765625 -0.998046875 8.87109375 2.9736328125 1.873046875 11.19140625 3.564453125 22.865234375 -4.318359375 -3.146484375 22.3173828125 -6.748046875 -0.4775390625</float_array>
                    <technique_common>
                        <accessor count="88" source="#pointarray0" stride="3">
                            <param name="X" type="float"/>
                            <param name="Y" type="float"/>
                            <param name="Z" type="float"/>
                        </accessor>
                    </technique_common>
                </source>
                <source id="uvs0">
                    <float_array id="uvarray0" count="262">0.748179018497467 0.2731819748878479 0.7324600219726562 0.2618029713630676 0.7475929856300354 0.285739004611969 0.7309190034866333 0.29538899660110474 0.7289209961891174 0.29527997970581055 0.6886190176010132 0.2962909936904907 0.6899979710578918 0.2963079810142517 0.6357529759407043 0.29601502418518066 0.636322021484375 0.29246199131011963 0.6834930181503296 0.3009200096130371 0.6830549836158752 0.29903900623321533 0.7230439782142639 0.3004549741744995 0.7262570261955261 0.300961971282959 0.7399640083312988 0.30862998962402344 0.5114930272102356 0.26083898544311523 0.5105980038642883 0.23954802751541138 0.5291600227355957 0.2567110061645508 0.5300589799880981 0.23212897777557373 0.5442190170288086 0.2580239772796631 0.5452769994735718 0.2389950156211853 0.5654469728469849 0.21469402313232422 0.5752289891242981 0.22567099332809448 0.6041079759597778 0.2176859974861145 0.6344919800758362 0.22267800569534302 0.6382910013198853 0.22446000576019287 0.6866580247879028 0.2254440188407898 0.7234510183334351 0.2249460220336914 0.6871510148048401 0.22263598442077637 0.6362890005111694 0.2582870125770569 0.5850380063056946 0.2947409749031067 0.6339349746704102 0.33175402879714966 0.6831269860267639 0.3328099846839905 0.72359699010849 0.3323550224304199 0.5129370093345642 0.2962939739227295 0.531158983707428 0.3012949824333191 0.5454419851303101 0.2956629991531372 0.5433650016784668 0.3440709710121155 0.5994409918785095 0.36849600076675415 0.5715010166168213 0.3629850149154663 0.6296769976615906 0.35740000009536743 0.7234569787979126 0.34454798698425293 0.7090830206871033 0.33827900886535645 0.7228839993476868 0.3543909788131714 0.7103520035743713 0.36456000804901123 0.7098810076713562 0.3654929995536804 0.6717150211334229 0.36550599336624146 0.6712499856948853 0.3659690022468567 0.6317300200462341 0.36509400606155396 0.5725070238113403 0.10756802558898926 0.5752750039100647 0.14464998245239258 0.5395370125770569 0.07639002799987793 0.5368800163269043 0.15172898769378662 0.5263670086860657 0.07324200868606567 0.5263670086860657 0.1601560115814209 0.511667013168335 0.07902699708938599 0.5110459923744202 0.15155702829360962 0.6065319776535034 0.056568026542663574 0.5642489790916443 0.06388098001480103 0.5950610041618347 0.048246026039123535 0.5630980134010315 0.045773983001708984 0.5927550196647644 0.026652991771697998 0.5934140086174011 0.01728302240371704 0.6328740119934082 0.019747018814086914 0.6323840022087097 0.00434499979019165 0.6357899904251099 0.3303689956665039 0.6727349758148193 0.33705002069473267 0.6726419925689697 0.3369060158729553 0.7085909843444824 0.3373349905014038 0.7408519983291626 0.23586899042129517 0.7232750058174133 0.22303301095962524 0.7417849898338318 0.2486870288848877 0.7261260151863098 0.25950098037719727 0.7240809798240662 0.25907397270202637 0.6852719783782959 0.2574880123138428 0.6848070025444031 0.257951021194458 0.6626160144805908 0.008163988590240479 0.6412860155105591 0.035835981369018555 0.6467880010604858 0.04050999879837036 0.6332219839096069 0.0773320198059082 0.6327570080757141 0.10865700244903564 0.6322399973869324 0.1441749930381775 0.6263049840927124 0.16950297355651855 0.5698189735412598 0.17473602294921875 0.627776026725769 0.22255802154541016 0.6221650242805481 0.20334398746490479 0.5958020091056824 0.19494199752807617 0.5645790100097656 0.22534900903701782 0.6881189942359924 0.2597010135650635 0.63680100440979 0.25902998447418213 0.6244590282440186 0.043157994747161865 0.730754017829895 0.26114797592163086 0.6899319887161255 0.2606610059738159 0.7393370270729065 0.3231629729270935 0.7231320142745972 0.33281898498535156 0.5106059908866882 0.3463420271873474 0.5288249850273132 0.3613470196723938 0.7173560261726379 0.04539597034454346 0.7179669737815857 0.07737398147583008 0.6816310286521912 0.04586297273635864 0.6798329949378967 0.07632100582122803 0.6729779839515686 0.20171797275543213 0.6670740246772766 0.1852089762687683 0.656557023525238 0.19791799783706665 0.6359379887580872 0.18113398551940918 0.6093119978904724 0.2368689775466919 0.6507729887962341 0.21973097324371338 0.7168049812316895 0.16668301820755005 0.7041800022125244 0.17708498239517212 0.7173609733581543 0.1574609875679016 0.7029269933700562 0.15070199966430664 0.7407960295677185 0.10235798358917236 0.7226660251617432 0.11129701137542725 0.7413650155067444 0.09059202671051025 0.7244470119476318 0.07931602001190186 0.6848739981651306 0.11226099729537964 0.6848099827766418 0.07885998487472534 0.666670024394989 0.17753201723098755 0.6680219769477844 0.1503000259399414 0.668349027633667 0.0236319899559021 0.6781319975852966 0.11482000350952148 0.6782019734382629 0.14646202325820923 0.7327799797058105 0.13742297887802124 0.7174969911575317 0.1460360288619995 0.7333880066871643 0.12380599975585938 0.7200800180435181 0.11662101745605469 0.7351570129394531 0.06764101982116699 0.7342510223388672 0.05563002824783325 0.5414829850196838 0.3384310007095337 0.5272459983825684 0.35296398401260376 0.6346690058708191 0.0449410080909729 0.5108529925346375 0.33824801445007324</float_array>
                    <technique_common>
                        <accessor count="131" source="#uvarray0" stride="2">
                            <param name="S" type="float"/>
                            <param name="T" type="float"/>
                        </accessor>
                    </technique_common>
                </source>
                <vertices id="vertices0">
                    <input semantic="POSITION" source="#points0"/>
                </vertices>
                <polylist count="169" material="Material1">
                    <input offset="0" semantic="VERTEX" source="#vertices0"/>
                    <input offset="1" semantic="TEXCOORD" source="#uvs0" set="0"/>
                    <vcount>3 3 3 3 3 3 3 3 3 3 3 3 3 3 3 3 3 3 3 3 3 3 3 3 3 3 3 3 3 3 3 3 3 3 3 3 3 3 3 3 3 3 3 3 3 3 3 3 3 3 3 3 3 3 3 3 3 3 3 3 3 3 3 3 3 3 3 3 3 3 3 3 3 3 3 3 3 3 3 3 3 3 3 3 3 3 3 3 3 3 3 3 3 3 3 3 3 3 3 3 3 3 3 3 3 3 3 3 3 3 3 3 3 3 3 3 3 3 3 3 3 3 3 3 3 3 3 3 3 3 3 3 3 3 3 3 3 3 3 3 3 3 3 3 3 3 3 3 3 3 3 3 3 3 3 3 3 3 3 3 3 3 3 3 3 3 3 3 3</vcount>
                    <p>2 2 1 1 0 0 3 3 1 1 2 2 4 4 3 3 2 2 5 5 3 3 4 4 6 6 5 5 4 4 7 7 5 5 6 6 8 8 7 7 6 6 9 9 7 7 8 8 10 10 9 9 8 8 11 11 9 9 10 10 12 12 11 11 10 10 13 13 11 11 12 12 16 16 15 15 14 14 17 17 15 15 16 16 18 18 17 17 16 16 19 19 17 17 18 18 20 20 19 19 18 18 21 21 19 19 20 20 22 22 21 21 20 20 23 23 21 21 22 22 24 24 23 23 22 22 25 25 23 23 24 24 27 27 25 25 26 26 23 23 25 25 27 27 28 28 23 23 27 27 29 29 23 23 28 28 7 7 29 29 28 28 30 30 29 29 7 7 31 31 30 30 7 7 32 31 30 30 31 31 33 32 32 31 31 31 17 17 34 33 15 15 35 34 34 33 17 17 19 19 35 34 17 17 36 35 35 34 19 19 29 29 36 35 19 19 37 36 36 35 29 29 38 37 37 36 29 29 39 38 37 36 38 37 40 39 39 38 38 37 43 42 42 41 41 40 44 43 42 41 43 42 45 44 44 43 43 42 46 45 44 43 45 44 47 46 46 45 45 44 48 47 46 45 47 46 40 39 48 47 47 46 38 37 48 47 40 39 18 50 50 49 49 48 51 51 50 49 18 50 16 52 51 51 18 50 52 53 51 51 16 52 14 54 52 53 16 52 53 55 52 53 14 54 56 58 55 57 54 56 57 59 55 57 56 58 58 60 57 59 56 58 59 61 57 59 58 60 60 62 59 61 58 60 61 63 59 61 60 62 62 64 30 30 32 31 63 65 30 30 62 64 64 66 63 65 62 64 42 41 63 65 64 66 65 67 42 41 64 66 41 40 42 41 65 67 68 70 67 69 66 68 69 71 67 69 68 70 70 72 69 71 68 70 71 73 69 71 70 72 72 74 71 73 70 72 28 28 71 73 72 74 60 62 73 75 61 63 74 76 73 75 60 62 56 58 74 76 60 62 75 77 74 76 56 58 54 56 75 77 56 58 49 48 8 79 76 78 62 80 8 79 49 48 50 49 62 80 49 48 40 81 62 80 50 49 39 82 40 81 50 49 22 22 77 83 24 24 78 84 77 83 22 22 20 20 78 84 22 22 59 85 78 84 20 20 57 86 59 85 20 20 5 5 1 1 3 3 79 87 1 1 5 5 28 28 79 87 5 5 76 88 79 87 28 28 72 74 76 88 28 28 54 56 76 78 77 89 49 48 76 78 54 56 55 57 49 48 54 56 18 50 49 48 55 57 57 59 18 50 55 57 1 1 80 90 0 0 81 91 80 90 1 1 79 87 81 91 1 1 76 88 81 91 79 87 82 92 11 11 13 13 83 93 11 11 82 92 33 32 83 93 82 92 31 31 83 93 33 32 35 34 84 94 34 33 85 95 84 94 35 34 36 35 85 95 35 34 37 36 85 95 36 35 46 45 42 41 44 43 63 65 42 41 46 45 30 30 63 65 46 45 31 31 11 11 83 93 9 9 11 11 31 31 7 7 9 9 31 31 25 98 70 97 26 96 72 99 70 97 25 98 76 78 72 99 25 98 71 73 67 69 69 71 27 27 67 69 71 73 28 28 27 27 71 73 87 102 73 101 86 100 61 103 73 101 87 102 59 85 61 103 87 102 77 83 75 105 54 104 78 84 75 105 77 83 41 108 45 107 43 106 65 109 45 107 41 108 0 112 4 111 2 110 80 113 4 111 0 112 80 113 6 114 4 111 81 115 6 114 80 113 81 115 8 79 6 114 76 78 8 79 81 115 29 29 48 47 38 37 30 30 48 47 29 29 65 109 47 116 45 107 64 117 47 116 65 109 64 117 40 81 47 116 62 80 40 81 64 117 74 76 86 118 73 75 75 77 86 118 74 76 62 80 10 119 8 79 32 120 10 119 62 80 13 123 33 122 82 121 12 124 33 122 13 123 12 124 32 120 33 122 10 119 32 120 12 124 66 126 70 97 68 125 26 96 70 97 66 126 51 127 37 36 39 38 52 128 37 36 51 127 21 21 29 29 19 19 23 23 29 29 21 21 24 129 76 78 25 98 77 89 76 78 24 129 26 26 67 69 27 27 66 68 67 69 26 26 52 128 85 95 37 36 53 130 85 95 52 128 75 105 87 102 86 100 78 84 87 102 75 105 60 62 58 60 56 58 46 45 48 47 30 30 18 18 57 86 20 20 51 51 39 82 50 49 5 5 7 7 28 28 53 130 84 94 85 95 59 85 87 102 78 84</p>
                </polylist>
            </mesh>
        </geometry>
        <geometry id="mesh0_1">
            <mesh>
                <source id="points0_1">
                    <float_array id="pointarray0_1" count="264">25.69921875 -1.90234375 -2.8798828125 29.767578125 -3.552734375 -3.5732421875 27.0625 0.1142578125 -4.140625 29.7392578125 1.6259765625 -3.1142578125 26.7939453125 1.416015625 0.41796875 29.3076171875 1.3623046875 7.517578125 24.326171875 1.4013671875 3.724609375 18.458984375 0.9423828125 11.5947265625 19.1220703125 0.5419921875 3.478515625 28.88671875 1.873046875 6.765625 23.2939453125 1.5849609375 3.2626953125 28.09375 1.8427734375 -4.1318359375 23.7734375 1.8984375 -0.6162109375 23.5361328125 3.0947265625 -3.40234375 -0.857421875 -4.345703125 -6.86328125 -0.9990234375 -7.6376953125 2.671875 1.92578125 -4.984375 -8.623046875 2.0673828125 -8.7841796875 3.3134765625 4.2998046875 -4.78125 -6.927734375 4.4658203125 -7.72265625 2.92578125 9.8359375 -11.376953125 -0.0791015625 8.9130859375 -9.7822265625 6.2392578125 13.794921875 -11.0166015625 4.5927734375 18.091796875 -10.271484375 9.7978515625 19.1171875 -9.9111328125 3.6943359375 24.240234375 -9.6953125 3.46484375 25.7001953125 -9.7275390625 1.10546875 28.044921875 -10.1376953125 7.923828125 18.193359375 -4.78515625 11.5380859375 9.7236328125 0.89453125 10.8623046875 18.5458984375 6.6044921875 10.46875 28.58203125 6.802734375 6.666015625 23.4951171875 6.8056640625 3.40625 23.8896484375 6.75 -0.1328125 -0.6298828125 1.134765625 7.173828125 2.2412109375 1.9072265625 8.6572265625 4.4921875 1.037109375 7.1064453125 4.1650390625 8.5205078125 3.0322265625 12.4970703125 12.296875 7.9677734375 9.8017578125 11.4443359375 -2.8330078125 16.95703125 10.52734375 4.509765625 21.865234375 8.32421875 -2.2275390625 25.322265625 7.3134765625 -2.466796875 23.0146484375 9.80859375 -3.2724609375 25.525390625 11.3623046875 -3.0126953125 22.6123046875 11.6103515625 0.0029296875 26.6259765625 11.724609375 6.1728515625 21.662109375 11.783203125 3.615234375 18.51171875 11.830078125 9.6982421875 9.341796875 0.6962890625 -5.96484375 11.0673828125 6.48046875 -5.0859375 3.8681640625 7.6484375 -5.54296875 1.6240234375 9.8955078125 -7.0888671875 -0.958984375 7.6201171875 -5.755859375 16.015625 -7.0556640625 -3.8876953125 8.8056640625 -6.59765625 -6.93359375 14.087890625 -8.5625 -7.0654296875 9.052734375 -9.6103515625 -5.9990234375 14.6630859375 -12.2392578125 -6.5625 15.830078125 -13.4736328125 -3.2109375 20.3828125 -9.9013671875 -7.416015625 22.7587890625 -11.0517578125 -4.73046875 18.130859375 6.416015625 3.7822265625 26.345703125 7.322265625 5.974609375 21.3291015625 7.28515625 3.32421875 22.5517578125 7.2666015625 0.4150390625 26.7451171875 -7.990234375 -1.9375 30.5888671875 -9.9521484375 -0.005859375 28.4912109375 -5.9814453125 -2.4765625 30.80859375 -4.3056640625 -0.466796875 25.9599609375 -4.4462890625 0.9912109375 28.1533203125 -4.7568359375 8.6591796875 24.03125 -4.67578125 3.8017578125 24.55859375 -6.4306640625 -4.7392578125 18.7705078125 -7.384765625 -6.392578125 18.8427734375 -5.9951171875 -1.5361328125 18.853515625 -4.564453125 3.2509765625 18.1044921875 -7.1826171875 -0.9111328125 18.984375 -10.1689453125 0.17578125 29.3623046875 -4.2919921875 7.3603515625 26.59375 -3.857421875 0.12890625 24.287109375 -4.103515625 3.4248046875 24.8486328125 5.3486328125 -4.54296875 27.8232421875 6.8447265625 -3.8759765625 -0.998046875 8.87109375 2.9736328125 1.873046875 11.19140625 3.564453125 22.865234375 -4.318359375 -3.146484375 22.3173828125 -6.748046875 -0.4775390625</float_array>
                    <technique_common>
                        <accessor count="88" source="#pointarray0_1" stride="3">
                            <param name="X" type="float"/>
                            <param name="Y" type="float"/>
                            <param name="Z" type="float"/>
                        </accessor>
                    </technique_common>
                </source>
                <source id="uvs0_1">
                    <float_array id="uvarray0_1" count="262">0.9635109901428223 0.7048409879207611 0.9027190208435059 0.6762189865112305 0.9612460136413574 0.7364250123500824 0.8967620134353638 0.7606980055570602 0.8890320062637329 0.7604230046272278 0.7331699728965759 0.7629670053720474 0.7385039925575256 0.7630079984664917 0.5287150144577026 0.7622700035572052 0.5309150218963623 0.7533349990844727 0.7133449912071228 0.7746099978685379 0.711650013923645 0.7698780000209808 0.8663049936294556 0.7734380066394806 0.8787310123443604 0.774715006351471 0.9317409992218018 0.7940019965171814 0.04814999923110008 0.6737959980964661 0.04468800127506256 0.6202419996261597 0.11647400259971619 0.6634109914302826 0.11995299905538559 0.6015810072422028 0.17471599578857422 0.666714996099472 0.17880499362945557 0.6188519895076752 0.2568109929561615 0.5577290058135986 0.29464399814605713 0.5853379964828491 0.4063299894332886 0.5652549862861633 0.5238360166549683 0.5778099894523621 0.5385310053825378 0.58229199051857 0.725587010383606 0.5847690105438232 0.8678810000419617 0.5835149884223938 0.7274900078773499 0.5777049958705902 0.530788004398346 0.6673760116100311 0.33258000016212463 0.7590679973363876 0.5216820240020752 0.8521630018949509 0.7119280099868774 0.8548199981451035 0.8684449791908264 0.8536760061979294 0.05373400077223778 0.7629729956388474 0.12420599907636642 0.7755520045757294 0.17944499850273132 0.7613860070705414 0.1714099943637848 0.8831439986824989 0.388280987739563 0.9445799998939037 0.28022500872612 0.9307190030813217 0.5052149891853333 0.9166710004210472 0.8679029941558838 0.8843450024724007 0.8123130202293396 0.8685770034790039 0.8656870126724243 0.9091020002961159 0.8172199726104736 0.9346799999475479 0.8154000043869019 0.9370250031352043 0.6677950024604797 0.9370580017566681 0.6659960150718689 0.9382239989936352 0.5131580233573914 0.9360219985246658 0.2841149866580963 0.28828001022338867 0.29482001066207886 0.38155198097229004 0.15660600364208221 0.20985901355743408 0.14632999897003174 0.3993549942970276 0.10567399859428406 0.20194202661514282 0.10567399859428406 0.4205530285835266 0.0488240011036396 0.21649301052093506 0.04642099887132645 0.39892297983169556 0.41570401191711426 0.1600019931793213 0.25217700004577637 0.17839699983596802 0.3713400065898895 0.13907098770141602 0.24772700667381287 0.1328529715538025 0.3624249994754791 0.08475899696350098 0.36496999859809875 0.061190009117126465 0.5175780057907104 0.06738901138305664 0.5156859755516052 0.028648972511291504 0.5288569927215576 0.8486790060997009 0.6717389822006226 0.8654859960079193 0.6713809967041016 0.8651230037212372 0.8104100227355957 0.8662029951810837 0.9351760149002075 0.6109879910945892 0.8671990036964417 0.5787039995193481 0.9387840032577515 0.6432290077209473 0.8782250285148621 0.670428991317749 0.8703160285949707 0.6693559885025024 0.7202249765396118 0.665365993976593 0.718425989151001 0.6665320098400116 0.6326050162315369 0.03825300931930542 0.5501130223274231 0.10785502195358276 0.5713909864425659 0.11961197853088379 0.5189250111579895 0.21222901344299316 0.5171269774436951 0.2910190224647522 0.515129029750824 0.38035500049591064 0.4921739995479584 0.4440609812736511 0.27371901273727417 0.4572240114212036 0.4978620111942291 0.5775080025196075 0.4761649966239929 0.5291810035705566 0.374206006526947 0.5080470144748688 0.2534550130367279 0.5845290124416351 0.7312359809875488 0.6709330081939697 0.5327659845352173 0.6692450046539307 0.4850350022315979 0.1262739896774292 0.8961250185966492 0.6745719909667969 0.7382469773292542 0.673346996307373 0.9293169975280762 0.8305550068616867 0.8666449785232544 0.8548420071601868 0.04471899941563606 0.8888569995760918 0.11517799645662308 0.926597997546196 0.8443059921264648 0.13190197944641113 0.8466699719429016 0.21233397722244263 0.7061449885368347 0.13307702541351318 0.6991919875144958 0.2096869945526123 0.6726809740066528 0.5250909924507141 0.6498460173606873 0.4835659861564636 0.609171986579895 0.5155340135097504 0.5294299721717834 0.47331702709198 0.4264569878578186 0.6135050058364868 0.5868009924888611 0.5703980028629303 0.8421760201454163 0.43696898221969604 0.7933499813079834 0.46313202381134033 0.8443269729614258 0.4137730002403259 0.7885040044784546 0.3967739939689636 0.9349589943885803 0.27517497539520264 0.8648430109024048 0.2976599931716919 0.93715900182724 0.2455819845199585 0.8717300295829773 0.2172200083732605 0.7186869978904724 0.3000829815864563 0.7184380292892456 0.21607297658920288 0.6482849717140198 0.4642559885978699 0.6535130143165588 0.39576202630996704 0.6547750234603882 0.07716000080108643 0.6926130056381226 0.3065199851989746 0.6928830146789551 0.38610899448394775 0.9039580225944519 0.3633720278739929 0.8448529839515686 0.38503700494766235 0.9063119888305664 0.32912302017211914 0.8548409938812256 0.31105101108551025 0.9131500124931335 0.18785297870635986 0.9096469879150391 0.15764397382736206 0.1641319990158081 0.8689579963684082 0.10907399654388428 0.9055119976401329 0.5245220065116882 0.13075602054595947 0.04567499831318855 0.8684969991445541</float_array>
                    <technique_common>
                        <accessor count="131" source="#uvarray0_1" stride="2">
                            <param name="S" type="float"/>
                            <param name="T" type="float"/>
                        </accessor>
                    </technique_common>
                </source>
                <vertices id="vertices0_1">
                    <input semantic="POSITION" source="#points0_1"/>
                </vertices>
                <polylist count="169" material="Material1">
                    <input offset="0" semantic="VERTEX" source="#vertices0_1"/>
                    <input offset="1" semantic="TEXCOORD" source="#uvs0_1" set="0"/>
                    <vcount>3 3 3 3 3 3 3 3 3 3 3 3 3 3 3 3 3 3 3 3 3 3 3 3 3 3 3 3 3 3 3 3 3 3 3 3 3 3 3 3 3 3 3 3 3 3 3 3 3 3 3 3 3 3 3 3 3 3 3 3 3 3 3 3 3 3 3 3 3 3 3 3 3 3 3 3 3 3 3 3 3 3 3 3 3 3 3 3 3 3 3 3 3 3 3 3 3 3 3 3 3 3 3 3 3 3 3 3 3 3 3 3 3 3 3 3 3 3 3 3 3 3 3 3 3 3 3 3 3 3 3 3 3 3 3 3 3 3 3 3 3 3 3 3 3 3 3 3 3 3 3 3 3 3 3 3 3 3 3 3 3 3 3 3 3 3 3 3 3</vcount>
                    <p>2 2 1 1 0 0 3 3 1 1 2 2 4 4 3 3 2 2 5 5 3 3 4 4 6 6 5 5 4 4 7 7 5 5 6 6 8 8 7 7 6 6 9 9 7 7 8 8 10 10 9 9 8 8 11 11 9 9 10 10 12 12 11 11 10 10 13 13 11 11 12 12 16 16 15 15 14 14 17 17 15 15 16 16 18 18 17 17 16 16 19 19 17 17 18 18 20 20 19 19 18 18 21 21 19 19 20 20 22 22 21 21 20 20 23 23 21 21 22 22 24 24 23 23 22 22 25 25 23 23 24 24 27 27 25 25 26 26 23 23 25 25 27 27 28 28 23 23 27 27 29 29 23 23 28 28 7 7 29 29 28 28 30 30 29 29 7 7 31 31 30 30 7 7 32 31 30 30 31 31 33 32 32 31 31 31 17 17 34 33 15 15 35 34 34 33 17 17 19 19 35 34 17 17 36 35 35 34 19 19 29 29 36 35 19 19 37 36 36 35 29 29 38 37 37 36 29 29 39 38 37 36 38 37 40 39 39 38 38 37 43 42 42 41 41 40 44 43 42 41 43 42 45 44 44 43 43 42 46 45 44 43 45 44 47 46 46 45 45 44 48 47 46 45 47 46 40 39 48 47 47 46 38 37 48 47 40 39 18 50 50 49 49 48 51 51 50 49 18 50 16 52 51 51 18 50 52 53 51 51 16 52 14 54 52 53 16 52 53 55 52 53 14 54 56 58 55 57 54 56 57 59 55 57 56 58 58 60 57 59 56 58 59 61 57 59 58 60 60 62 59 61 58 60 61 63 59 61 60 62 62 64 30 30 32 31 63 65 30 30 62 64 64 66 63 65 62 64 42 41 63 65 64 66 65 67 42 41 64 66 41 40 42 41 65 67 68 70 67 69 66 68 69 71 67 69 68 70 70 72 69 71 68 70 71 73 69 71 70 72 72 74 71 73 70 72 28 28 71 73 72 74 60 62 73 75 61 63 74 76 73 75 60 62 56 58 74 76 60 62 75 77 74 76 56 58 54 56 75 77 56 58 49 48 8 79 76 78 62 80 8 79 49 48 50 49 62 80 49 48 40 81 62 80 50 49 39 82 40 81 50 49 22 22 77 83 24 24 78 84 77 83 22 22 20 20 78 84 22 22 59 85 78 84 20 20 57 86 59 85 20 20 5 5 1 1 3 3 79 87 1 1 5 5 28 28 79 87 5 5 76 88 79 87 28 28 72 74 76 88 28 28 54 56 76 78 77 89 49 48 76 78 54 56 55 57 49 48 54 56 18 50 49 48 55 57 57 59 18 50 55 57 1 1 80 90 0 0 81 91 80 90 1 1 79 87 81 91 1 1 76 88 81 91 79 87 82 92 11 11 13 13 83 93 11 11 82 92 33 32 83 93 82 92 31 31 83 93 33 32 35 34 84 94 34 33 85 95 84 94 35 34 36 35 85 95 35 34 37 36 85 95 36 35 46 45 42 41 44 43 63 65 42 41 46 45 30 30 63 65 46 45 31 31 11 11 83 93 9 9 11 11 31 31 7 7 9 9 31 31 25 98 70 97 26 96 72 99 70 97 25 98 76 78 72 99 25 98 71 73 67 69 69 71 27 27 67 69 71 73 28 28 27 27 71 73 87 102 73 101 86 100 61 103 73 101 87 102 59 85 61 103 87 102 77 83 75 105 54 104 78 84 75 105 77 83 41 108 45 107 43 106 65 109 45 107 41 108 0 112 4 111 2 110 80 113 4 111 0 112 80 113 6 114 4 111 81 115 6 114 80 113 81 115 8 79 6 114 76 78 8 79 81 115 29 29 48 47 38 37 30 30 48 47 29 29 65 109 47 116 45 107 64 117 47 116 65 109 64 117 40 81 47 116 62 80 40 81 64 117 74 76 86 118 73 75 75 77 86 118 74 76 62 80 10 119 8 79 32 120 10 119 62 80 13 123 33 122 82 121 12 124 33 122 13 123 12 124 32 120 33 122 10 119 32 120 12 124 66 126 70 97 68 125 26 96 70 97 66 126 51 127 37 36 39 38 52 128 37 36 51 127 21 21 29 29 19 19 23 23 29 29 21 21 24 129 76 78 25 98 77 89 76 78 24 129 26 26 67 69 27 27 66 68 67 69 26 26 52 128 85 95 37 36 53 130 85 95 52 128 75 105 87 102 86 100 78 84 87 102 75 105 60 62 58 60 56 58 46 45 48 47 30 30 18 18 57 86 20 20 51 51 39 82 50 49 5 5 7 7 28 28 53 130 84 94 85 95 59 85 87 102 78 84</p>
                </polylist>
            </mesh>
        </geometry>
        <geometry id="mesh0_2">
            <mesh>
                <source id="points0_2">
                    <float_array id="pointarray0_2" count="264">25.69921875 -1.90234375 -2.8798828125 29.767578125 -3.552734375 -3.5732421875 27.0625 0.1142578125 -4.140625 29.7392578125 1.6259765625 -3.1142578125 26.7939453125 1.416015625 0.41796875 29.3076171875 1.3623046875 7.517578125 24.326171875 1.4013671875 3.724609375 18.458984375 0.9423828125 11.5947265625 19.1220703125 0.5419921875 3.478515625 28.88671875 1.873046875 6.765625 23.2939453125 1.5849609375 3.2626953125 28.09375 1.8427734375 -4.1318359375 23.7734375 1.8984375 -0.6162109375 23.5361328125 3.0947265625 -3.40234375 -0.857421875 -4.345703125 -6.86328125 -0.9990234375 -7.6376953125 2.671875 1.92578125 -4.984375 -8.623046875 2.0673828125 -8.7841796875 3.3134765625 4.2998046875 -4.78125 -6.927734375 4.4658203125 -7.72265625 2.92578125 9.8359375 -11.376953125 -0.0791015625 8.9130859375 -9.7822265625 6.2392578125 13.794921875 -11.0166015625 4.5927734375 18.091796875 -10.271484375 9.7978515625 19.1171875 -9.9111328125 3.6943359375 24.240234375 -9.6953125 3.46484375 25.7001953125 -9.7275390625 1.10546875 28.044921875 -10.1376953125 7.923828125 18.193359375 -4.78515625 11.5380859375 9.7236328125 0.89453125 10.8623046875 18.5458984375 6.6044921875 10.46875 28.58203125 6.802734375 6.666015625 23.4951171875 6.8056640625 3.40625 23.8896484375 6.75 -0.1328125 -0.6298828125 1.134765625 7.173828125 2.2412109375 1.9072265625 8.6572265625 4.4921875 1.037109375 7.1064453125 4.1650390625 8.5205078125 3.0322265625 12.4970703125 12.296875 7.9677734375 9.8017578125 11.4443359375 -2.8330078125 16.95703125 10.52734375 4.509765625 21.865234375 8.32421875 -2.2275390625 25.322265625 7.3134765625 -2.466796875 23.0146484375 9.80859375 -3.2724609375 25.525390625 11.3623046875 -3.0126953125 22.6123046875 11.6103515625 0.0029296875 26.6259765625 11.724609375 6.1728515625 21.662109375 11.783203125 3.615234375 18.51171875 11.830078125 9.6982421875 9.341796875 0.6962890625 -5.96484375 11.0673828125 6.48046875 -5.0859375 3.8681640625 7.6484375 -5.54296875 1.6240234375 9.8955078125 -7.0888671875 -0.958984375 7.6201171875 -5.755859375 16.015625 -7.0556640625 -3.8876953125 8.8056640625 -6.59765625 -6.93359375 14.087890625 -8.5625 -7.0654296875 9.052734375 -9.6103515625 -5.9990234375 14.6630859375 -12.2392578125 -6.5625 15.830078125 -13.4736328125 -3.2109375 20.3828125 -9.9013671875 -7.416015625 22.7587890625 -11.0517578125 -4.73046875 18.130859375 6.416015625 3.7822265625 26.345703125 7.322265625 5.974609375 21.3291015625 7.28515625 3.32421875 22.5517578125 7.2666015625 0.4150390625 26.7451171875 -7.990234375 -1.9375 30.5888671875 -9.9521484375 -0.005859375 28.4912109375 -5.9814453125 -2.4765625 30.80859375 -4.3056640625 -0.466796875 25.9599609375 -4.4462890625 0.9912109375 28.1533203125 -4.7568359375 8.6591796875 24.03125 -4.67578125 3.8017578125 24.55859375 -6.4306640625 -4.7392578125 18.7705078125 -7.384765625 -6.392578125 18.8427734375 -5.9951171875 -1.5361328125 18.853515625 -4.564453125 3.2509765625 18.1044921875 -7.1826171875 -0.9111328125 18.984375 -10.1689453125 0.17578125 29.3623046875 -4.2919921875 7.3603515625 26.59375 -3.857421875 0.12890625 24.287109375 -4.103515625 3.4248046875 24.8486328125 5.3486328125 -4.54296875 27.8232421875 6.8447265625 -3.8759765625 -0.998046875 8.87109375 2.9736328125 1.873046875 11.19140625 3.564453125 22.865234375 -4.318359375 -3.146484375 22.3173828125 -6.748046875 -0.4775390625</float_array>
                    <technique_common>
                        <accessor count="88" source="#pointarray0_2" stride="3">
                            <param name="X" type="float"/>
                            <param name="Y" type="float"/>
                            <param name="Z" type="float"/>
                        </accessor>
                    </technique_common>
                </source>
                <source id="uvs0_2">
                    <float_array id="uvarray0_2" count="262">0.748179018497467 0.2731819748878479 0.7324600219726562 0.2618029713630676 0.7475929856300354 0.285739004611969 0.7309190034866333 0.29538899660110474 0.7289209961891174 0.29527997970581055 0.6886190176010132 0.2962909936904907 0.6899979710578918 0.2963079810142517 0.6357529759407043 0.29601502418518066 0.636322021484375 0.29246199131011963 0.6834930181503296 0.3009200096130371 0.6830549836158752 0.29903900623321533 0.7230439782142639 0.3004549741744995 0.7262570261955261 0.300961971282959 0.7399640083312988 0.30862998962402344 0.5114930272102356 0.26083898544311523 0.5105980038642883 0.23954802751541138 0.5291600227355957 0.2567110061645508 0.5300589799880981 0.23212897777557373 0.5442190170288086 0.2580239772796631 0.5452769994735718 0.2389950156211853 0.5654469728469849 0.21469402313232422 0.5752289891242981 0.22567099332809448 0.6041079759597778 0.2176859974861145 0.6344919800758362 0.22267800569534302 0.6382910013198853 0.22446000576019287 0.6866580247879028 0.2254440188407898 0.7234510183334351 0.2249460220336914 0.6871510148048401 0.22263598442077637 0.6362890005111694 0.2582870125770569 0.5850380063056946 0.2947409749031067 0.6339349746704102 0.33175402879714966 0.6831269860267639 0.3328099846839905 0.72359699010849 0.3323550224304199 0.5129370093345642 0.2962939739227295 0.531158983707428 0.3012949824333191 0.5454419851303101 0.2956629991531372 0.5433650016784668 0.3440709710121155 0.5994409918785095 0.36849600076675415 0.5715010166168213 0.3629850149154663 0.6296769976615906 0.35740000009536743 0.7234569787979126 0.34454798698425293 0.7090830206871033 0.33827900886535645 0.7228839993476868 0.3543909788131714 0.7103520035743713 0.36456000804901123 0.7098810076713562 0.3654929995536804 0.6717150211334229 0.36550599336624146 0.6712499856948853 0.3659690022468567 0.6317300200462341 0.36509400606155396 0.5725070238113403 0.10756802558898926 0.5752750039100647 0.14464998245239258 0.5395370125770569 0.07639002799987793 0.5368800163269043 0.15172898769378662 0.5263670086860657 0.07324200868606567 0.5263670086860657 0.1601560115814209 0.511667013168335 0.07902699708938599 0.5110459923744202 0.15155702829360962 0.6065319776535034 0.056568026542663574 0.5642489790916443 0.06388098001480103 0.5950610041618347 0.048246026039123535 0.5630980134010315 0.045773983001708984 0.5927550196647644 0.026652991771697998 0.5934140086174011 0.01728302240371704 0.6328740119934082 0.019747018814086914 0.6323840022087097 0.00434499979019165 0.6357899904251099 0.3303689956665039 0.6727349758148193 0.33705002069473267 0.6726419925689697 0.3369060158729553 0.7085909843444824 0.3373349905014038 0.7408519983291626 0.23586899042129517 0.7232750058174133 0.22303301095962524 0.7417849898338318 0.2486870288848877 0.7261260151863098 0.25950098037719727 0.7240809798240662 0.25907397270202637 0.6852719783782959 0.2574880123138428 0.6848070025444031 0.257951021194458 0.6626160144805908 0.008163988590240479 0.6412860155105591 0.035835981369018555 0.6467880010604858 0.04050999879837036 0.6332219839096069 0.0773320198059082 0.6327570080757141 0.10865700244903564 0.6322399973869324 0.1441749930381775 0.6263049840927124 0.16950297355651855 0.5698189735412598 0.17473602294921875 0.627776026725769 0.22255802154541016 0.6221650242805481 0.20334398746490479 0.5958020091056824 0.19494199752807617 0.5645790100097656 0.22534900903701782 0.6881189942359924 0.2597010135650635 0.63680100440979 0.25902998447418213 0.6244590282440186 0.043157994747161865 0.730754017829895 0.26114797592163086 0.6899319887161255 0.2606610059738159 0.7393370270729065 0.3231629729270935 0.7231320142745972 0.33281898498535156 0.5106059908866882 0.3463420271873474 0.5288249850273132 0.3613470196723938 0.7173560261726379 0.04539597034454346 0.7179669737815857 0.07737398147583008 0.6816310286521912 0.04586297273635864 0.6798329949378967 0.07632100582122803 0.6729779839515686 0.20171797275543213 0.6670740246772766 0.1852089762687683 0.656557023525238 0.19791799783706665 0.6359379887580872 0.18113398551940918 0.6093119978904724 0.2368689775466919 0.6507729887962341 0.21973097324371338 0.7168049812316895 0.16668301820755005 0.7041800022125244 0.17708498239517212 0.7173609733581543 0.1574609875679016 0.7029269933700562 0.15070199966430664 0.7407960295677185 0.10235798358917236 0.7226660251617432 0.11129701137542725 0.7413650155067444 0.09059202671051025 0.7244470119476318 0.07931602001190186 0.6848739981651306 0.11226099729537964 0.6848099827766418 0.07885998487472534 0.666670024394989 0.17753201723098755 0.6680219769477844 0.1503000259399414 0.668349027633667 0.0236319899559021 0.6781319975852966 0.11482000350952148 0.6782019734382629 0.14646202325820923 0.7327799797058105 0.13742297887802124 0.7174969911575317 0.1460360288619995 0.7333880066871643 0.12380599975585938 0.7200800180435181 0.11662101745605469 0.7351570129394531 0.06764101982116699 0.7342510223388672 0.05563002824783325 0.5414829850196838 0.3384310007095337 0.5272459983825684 0.35296398401260376 0.6346690058708191 0.0449410080909729 0.5108529925346375 0.33824801445007324</float_array>
                    <technique_common>
                        <accessor count="131" source="#uvarray0_2" stride="2">
                            <param name="S" type="float"/>
                            <param name="T" type="float"/>
                        </accessor>
                    </technique_common>
                </source>
                <vertices id="vertices0_2">
                    <input semantic="POSITION" source="#points0_2"/>
                </vertices>
                <polylist count="169" material="Material1">
                    <input offset="0" semantic="VERTEX" source="#vertices0_2"/>
                    <input offset="1" semantic="TEXCOORD" source="#uvs0_2" set="0"/>
                    <vcount>3 3 3 3 3 3 3 3 3 3 3 3 3 3 3 3 3 3 3 3 3 3 3 3 3 3 3 3 3 3 3 3 3 3 3 3 3 3 3 3 3 3 3 3 3 3 3 3 3 3 3 3 3 3 3 3 3 3 3 3 3 3 3 3 3 3 3 3 3 3 3 3 3 3 3 3 3 3 3 3 3 3 3 3 3 3 3 3 3 3 3 3 3 3 3 3 3 3 3 3 3 3 3 3 3 3 3 3 3 3 3 3 3 3 3 3 3 3 3 3 3 3 3 3 3 3 3 3 3 3 3 3 3 3 3 3 3 3 3 3 3 3 3 3 3 3 3 3 3 3 3 3 3 3 3 3 3 3 3 3 3 3 3 3 3 3 3 3 3</vcount>
                    <p>2 2 1 1 0 0 3 3 1 1 2 2 4 4 3 3 2 2 5 5 3 3 4 4 6 6 5 5 4 4 7 7 5 5 6 6 8 8 7 7 6 6 9 9 7 7 8 8 10 10 9 9 8 8 11 11 9 9 10 10 12 12 11 11 10 10 13 13 11 11 12 12 16 16 15 15 14 14 17 17 15 15 16 16 18 18 17 17 16 16 19 19 17 17 18 18 20 20 19 19 18 18 21 21 19 19 20 20 22 22 21 21 20 20 23 23 21 21 22 22 24 24 23 23 22 22 25 25 23 23 24 24 27 27 25 25 26 26 23 23 25 25 27 27 28 28 23 23 27 27 29 29 23 23 28 28 7 7 29 29 28 28 30 30 29 29 7 7 31 31 30 30 7 7 32 31 30 30 31 31 33 32 32 31 31 31 17 17 34 33 15 15 35 34 34 33 17 17 19 19 35 34 17 17 36 35 35 34 19 19 29 29 36 35 19 19 37 36 36 35 29 29 38 37 37 36 29 29 39 38 37 36 38 37 40 39 39 38 38 37 43 42 42 41 41 40 44 43 42 41 43 42 45 44 44 43 43 42 46 45 44 43 45 44 47 46 46 45 45 44 48 47 46 45 47 46 40 39 48 47 47 46 38 37 48 47 40 39 18 50 50 49 49 48 51 51 50 49 18 50 16 52 51 51 18 50 52 53 51 51 16 52 14 54 52 53 16 52 53 55 52 53 14 54 56 58 55 57 54 56 57 59 55 57 56 58 58 60 57 59 56 58 59 61 57 59 58 60 60 62 59 61 58 60 61 63 59 61 60 62 62 64 30 30 32 31 63 65 30 30 62 64 64 66 63 65 62 64 42 41 63 65 64 66 65 67 42 41 64 66 41 40 42 41 65 67 68 70 67 69 66 68 69 71 67 69 68 70 70 72 69 71 68 70 71 73 69 71 70 72 72 74 71 73 70 72 28 28 71 73 72 74 60 62 73 75 61 63 74 76 73 75 60 62 56 58 74 76 60 62 75 77 74 76 56 58 54 56 75 77 56 58 49 48 8 79 76 78 62 80 8 79 49 48 50 49 62 80 49 48 40 81 62 80 50 49 39 82 40 81 50 49 22 22 77 83 24 24 78 84 77 83 22 22 20 20 78 84 22 22 59 85 78 84 20 20 57 86 59 85 20 20 5 5 1 1 3 3 79 87 1 1 5 5 28 28 79 87 5 5 76 88 79 87 28 28 72 74 76 88 28 28 54 56 76 78 77 89 49 48 76 78 54 56 55 57 49 48 54 56 18 50 49 48 55 57 57 59 18 50 55 57 1 1 80 90 0 0 81 91 80 90 1 1 79 87 81 91 1 1 76 88 81 91 79 87 82 92 11 11 13 13 83 93 11 11 82 92 33 32 83 93 82 92 31 31 83 93 33 32 35 34 84 94 34 33 85 95 84 94 35 34 36 35 85 95 35 34 37 36 85 95 36 35 46 45 42 41 44 43 63 65 42 41 46 45 30 30 63 65 46 45 31 31 11 11 83 93 9 9 11 11 31 31 7 7 9 9 31 31 25 98 70 97 26 96 72 99 70 97 25 98 76 78 72 99 25 98 71 73 67 69 69 71 27 27 67 69 71 73 28 28 27 27 71 73 87 102 73 101 86 100 61 103 73 101 87 102 59 85 61 103 87 102 77 83 75 105 54 104 78 84 75 105 77 83 41 108 45 107 43 106 65 109 45 107 41 108 0 112 4 111 2 110 80 113 4 111 0 112 80 113 6 114 4 111 81 115 6 114 80 113 81 115 8 79 6 114 76 78 8 79 81 115 29 29 48 47 38 37 30 30 48 47 29 29 65 109 47 116 45 107 64 117 47 116 65 109 64 117 40 81 47 116 62 80 40 81 64 117 74 76 86 118 73 75 75 77 86 118 74 76 62 80 10 119 8 79 32 120 10 119 62 80 13 123 33 122 82 121 12 124 33 122 13 123 12 124 32 120 33 122 10 119 32 120 12 124 66 126 70 97 68 125 26 96 70 97 66 126 51 127 37 36 39 38 52 128 37 36 51 127 21 21 29 29 19 19 23 23 29 29 21 21 24 129 76 78 25 98 77 89 76 78 24 129 26 26 67 69 27 27 66 68 67 69 26 26 52 128 85 95 37 36 53 130 85 95 52 128 75 105 87 102 86 100 78 84 87 102 75 105 60 62 58 60 56 58 46 45 48 47 30 30 18 18 57 86 20 20 51 51 39 82 50 49 5 5 7 7 28 28 53 130 84 94 85 95 59 85 87 102 78 84</p>
                </polylist>
            </mesh>
        </geometry>
    </library_geometries>
    <library_visual_scenes>
        <visual_scene id="VisualSceneNode">
            <node id="node0" name="m0" type="NODE">
                <instance_geometry url="#mesh0">
                    <bind_material>
                        <technique_common>
                            <instance_material symbol="Material1" target="#mat0">
                                <bind_vertex_input semantic="UVSET0" input_semantic="TEXCOORD" input_set="0"></bind_vertex_input>
                            </instance_material>
                        </technique_common>
                    </bind_material>
                </instance_geometry>
            </node>
            <node id="node0_1" name="m0_1" type="NODE">
                <instance_geometry url="#mesh0_1">
                    <bind_material>
                        <technique_common>
                            <instance_material symbol="Material1" target="#mat0_1">
                                <bind_vertex_input semantic="UVSET0" input_semantic="TEXCOORD" input_set="0"></bind_vertex_input>
                            </instance_material>
                        </technique_common>
                    </bind_material>
                </instance_geometry>
            </node>
            <node id="node0_2" name="m0_2" type="NODE">
                <instance_geometry url="#mesh0_2">
                    <bind_material>
                        <technique_common>
                            <instance_material symbol="Material1" target="#mat0_2">
                                <bind_vertex_input semantic="UVSET0" input_semantic="TEXCOORD" input_set="0"></bind_vertex_input>
                            </instance_material>
                        </technique_common>
                    </bind_material>
                </instance_geometry>
            </node>
        </visual_scene>
    </library_visual_scenes>
    <scene>
        <instance_visual_scene url="#VisualSceneNode"></instance_visual_scene>
    </scene>
</COLLADA>
