<?xml version="1.0"?>
<COLLADA xmlns="http://www.collada.org/2005/11/COLLADASchema" version="1.4.1">
    <asset>
        <contributor>
            <authoring_tool>J3D Ripoff Exporter</authoring_tool>
        </contributor>
        <created>2026-07-03T01:46:41.592Z</created>
        <modified>2026-07-03T01:46:41.592Z</modified>
		<unit meter="0.01" name="centimeter" ></unit>
        <up_axis>Y_UP</up_axis>
    </asset>
    <library_images>
        <image id="tex0">
            <init_from>H_ma_new_main_s3tc.png</init_from>
        </image>
        <image id="tex1">
            <init_from>H_toon_2_4i.png</init_from>
        </image>
    </library_images>
    <library_effects>
        <effect id="effect0">
            <profile_COMMON>
                <newparam sid="surface0">
                    <surface type="2D">
                        <init_from>tex0</init_from>
                    </surface>
                </newparam>
                <newparam sid="sampler0">
                    <sampler2D>
                        <source>surface0</source>
                    </sampler2D>
                </newparam>
                <technique sid="COMMON">
                    <blinn>
                        <diffuse>
                            <texture texture="sampler0" texcoord="UVSET0"></texture>
                        </diffuse>
                    </blinn>
                </technique>
            </profile_COMMON>
        </effect>
        <effect id="effect0_1">
            <profile_COMMON>
                <newparam sid="surface0_1">
                    <surface type="2D">
                        <init_from>tex1</init_from>
                    </surface>
                </newparam>
                <newparam sid="sampler0_1">
                    <sampler2D>
                        <source>surface0_1</source>
                    </sampler2D>
                </newparam>
                <technique sid="COMMON">
                    <blinn>
                        <diffuse>
                            <texture texture="sampler0_1" texcoord="UVSET0"></texture>
                        </diffuse>
                    </blinn>
                </technique>
            </profile_COMMON>
        </effect>
    </library_effects>
    <library_materials>
        <material id="mat0" name="_mat_hand4_r1">
            <instance_effect url="#effect0"></instance_effect>
        </material>
        <material id="mat0_1" name="_mat_hand4_r1_uv2">
            <instance_effect url="#effect0_1"></instance_effect>
        </material>
    </library_materials>
    <library_geometries>
        <geometry id="mesh0">
            <mesh>
                <source id="points0">
                    <float_array id="pointarray0" count="528">-3.748046875 -33.40625 24.87890625 2.94140625 -39.134765625 33.130859375 -1.498046875 -38.474609375 21.064453125 2.53125 -42.794921875 20.259765625 2.62109375 -37.619140625 7.564453125 8.0390625 -40.41796875 12.11328125 13.275390625 -31.802734375 -3.875 20.59375 -35.90234375 3.146484375 28.111328125 -26.564453125 -7.2421875 31.701171875 -30.73828125 -1.388671875 37.986328125 -23.208984375 -5.439453125 40.845703125 -28.009765625 0.87890625 43.82421875 -21.109375 -2.662109375 47.85546875 -25.923828125 8.279296875 51.103515625 -19.017578125 5.451171875 53.33203125 -17.830078125 16.259765625 49.28125 -11.07421875 4.990234375 50.943359375 -9.537109375 16.021484375 44.458984375 -7.06640625 6.71875 41.64453125 -4.560546875 17.53515625 39.478515625 -4.857421875 8.837890625 12.2109375 -41.20703125 18.2265625 24.423828125 -37.658203125 8.826171875 34.69140625 -32.94921875 5.6796875 30.06640625 -36.15234375 18.98828125 43.291015625 -30.533203125 11.37109375 42.86328125 -30.130859375 21.9453125 49.685546875 -24.9609375 18.474609375 46.2890625 -25.70703125 27.646484375 52.251953125 -18.2890625 22.955078125 48.130859375 -19.66015625 32.609375 44.765625 -12.3046875 36.513671875 37.208984375 -23.548828125 43.763671875 34.39453125 -17.5234375 46.29296875 22.572265625 -30.740234375 47.279296875 19.95703125 -25.48828125 48.396484375 9.61328125 -34.642578125 43.185546875 4.572265625 -30.537109375 41.443359375 27.490234375 9.96484375 2.853515625 25.98828125 8.45703125 2.55859375 25.4375 11.720703125 0.236328125 25.232421875 7.37109375 -0.052734375 22.9453125 11.84375 -3.22265625 22.765625 7.34765625 -2.791015625 17.892578125 10.55859375 -3.181640625 18.994140625 6.41015625 -2.607421875 10.66796875 6.48046875 5.875 10.171875 0.392578125 6.3125 4.298828125 -4.78125 6.927734375 8.54296875 -6.7109375 7.451171875 8.26953125 -9.736328125 6.568359375 13.453125 -9.48046875 7.390625 13.296875 -13.189453125 6.943359375 18.998046875 -9.482421875 6.458984375 19.5625 -12.412109375 7.494140625 24.62109375 -10.859375 4.556640625 21.181640625 -14.42578125 4.755859375 15.49609375 -22.337890625 46.080078125 29.404296875 -13.107421875 45.177734375 34.576171875 -7.208984375 36.43359375 40.279296875 -4.875 26.1171875 49.580078125 -9.927734375 25.876953125 -0.958984375 7.619140625 5.755859375 -0.998046875 8.87109375 -2.97265625 1.623046875 9.89453125 7.087890625 1.873046875 11.19140625 -3.564453125 3.8671875 7.6484375 5.54296875 4.1640625 8.51953125 -3.03125 9.5703125 11.443359375 3.537109375 13.041015625 12.296875 -7.0390625 18.376953125 11.79296875 -8.591796875 26.84375 11.77734375 -7.22265625 29.490234375 11.533203125 1.328125 29.08984375 7.4765625 0.994140625 -0.62890625 1.134765625 -7.173828125 2.240234375 1.90625 -8.65625 4.4921875 1.037109375 -7.10546875 10.486328125 0.89453125 -8.802734375 4.46484375 -7.72265625 -2.92578125 9.341796875 -9.78125 -5.576171875 8.490234375 -11.681640625 0.65625 14.091796875 -11.015625 -3.580078125 17.69140625 -12.4140625 -0.017578125 17.67578125 -9.287109375 1.029296875 15.443359375 -8.33984375 4.1015625 35.99609375 -3.609375 30.34765625 35.919921875 -3.3046875 21.12109375 43.212890625 8.732421875 22.8828125 43.28125 10.009765625 13.359375 44.79296875 9.251953125 13.140625 41.921875 9.009765625 5.20703125 37.4140625 6.70703125 -1.544921875 33.9375 -7.21875 2.193359375 29.650390625 2.892578125 -6.83984375 26.427734375 -9.650390625 -1.451171875 22.076171875 -3.4140625 -6.751953125 15.203125 -13.890625 -2.125 13.453125 -14.216796875 -0.62109375 29.62109375 5.330078125 4.126953125 27.916015625 3.080078125 3.7734375 26.634765625 6.73828125 0.748046875 26.759765625 1.88671875 1.224609375 24.744140625 6.796875 -3.033203125 24.583984375 1.576171875 -2.84765625 19.32421875 0.541015625 -2.08203125 19.248046875 -4.578125 -1.939453125 33.064453125 -3.076171875 11.751953125 40.490234375 9.74609375 5.798828125 36.22265625 7.57421875 -0.6875 28.892578125 3.794921875 -5.6171875 21.22265625 -2.591796875 -5.865234375 34.111328125 1.462890625 0.71484375 29.58984375 1.333984375 -0.138671875 29.361328125 1.330078125 -8.078125 25.69921875 1.35546875 -3 18.595703125 1.015625 -10.33984375 29.044921875 1.8671875 -7.708984375 32.248046875 1.822265625 2.181640625 25.638671875 -4.646484375 -2.853515625 18.697265625 -4.755859375 -10.236328125 29.40625 -4.32421875 -7.998046875 34.330078125 -3.716796875 1.07421875 32.669921875 -0.0078125 3.21484375 32.94140625 -15.666015625 -7.240234375 22.01171875 -20.150390625 -8.77734375 8.76953125 -26.359375 -4.71484375 6.017578125 -21.171875 -1.373046875 -0.55078125 -32.560546875 7.572265625 -1.869140625 -28.326171875 11.51171875 -0.998046875 -7.63671875 -2.671875 -0.857421875 -4.345703125 6.86328125 2.06640625 -8.783203125 -3.3125 1.92578125 -4.984375 8.623046875 13.943359375 -14.728515625 3.576171875 13.275390625 -39.08984375 41.64453125 22.673828125 -35.37109375 41.244140625 36.69921875 -30.34765625 35.205078125 25.6953125 -4.15234375 -2.755859375 29.521484375 -3.9375 0.232421875 30.779296875 -1.9921875 3.115234375 41.4375 -12.814453125 -2.8984375 19.541015625 -9.919921875 -2.408203125 25.955078125 -9.666015625 -2.611328125 18.59765625 -10.251953125 -8.52734375 28.03125 -10.103515625 -8.091796875 27.87890625 -4.72265625 -8.818359375 30.2578125 -4.384765625 -0.7578125 20.34375 -9.005859375 -0.806640625 27.486328125 -6.212890625 4.333984375 44.75 8.099609375 23.216796875 39.623046875 3.751953125 30.7578125 32.37890625 -7.689453125 37.052734375 30.0078125 -9.666015625 -0.57421875 33.845703125 -9.919921875 -3.794921875 34.349609375 -4.2734375 -3.7421875 34.55078125 -5.921875 -0.666015625 7.568359375 -44.103515625 31.66796875 17.626953125 -41.05078125 38.552734375 20.521484375 -38.341796875 34.76953125 31.89453125 6.82421875 2.09375 28.783203125 6.796875 -7.525390625 40.9453125 3.091796875 30.806640625 22.232421875 -10.33984375 0.396484375 19.37109375 -8.291015625 1.564453125 26.681640625 7.376953125 -6.896484375 34.810546875 -34.076171875 29.50390625 17.232421875 -40.78125 26.23828125 7.859375 -44.41796875 19.109375 12.892578125 -45.263671875 29.193359375 33.06640625 -7.919921875 0.4140625 18.521484375 6.609375 -9.8125 2.71875 -23.1640625 6.330078125 8.291015625 -17.888671875 -0.837890625 29.91796875 -10.431640625 42.2109375 21.63671875 -16.640625 43.98828125 23.798828125 -8.27734375 2.966796875</float_array>
                    <technique_common>
                        <accessor count="176" source="#pointarray0" stride="3">
                            <param name="X" type="float"/>
                            <param name="Y" type="float"/>
                            <param name="Z" type="float"/>
                        </accessor>
                    </technique_common>
                </source>
                <source id="uvs0">
                    <float_array id="uvarray0" count="348">0.88671875 0.3671875 0.75 0.35546875 0.87109375 0.3515625 0.85546875 0.34375 0.9375 0.30078125 0.89453125 0.30078125 0.93359375 0.234375 0.90234375 0.24609375 0.9296875 0.18359375 0.8984375 0.203125 0.8984375 0.171875 0.83984375 0.1875 0.84765625 0.15234375 0.75390625 0.1875 0.75390625 0.16796875 0.75390625 0.140625 0.84765625 0.12109375 0.75390625 0.1015625 0.83203125 0.06640625 0.75390625 0.06640625 0.83984375 0.296875 0.85546875 0.2578125 0.84375 0.21875 0.75390625 0.2421875 0.75390625 0.203125 0.9453125 0.1484375 0.95703125 0.2265625 0.95703125 0.30078125 0.71484375 0.16796875 0.71484375 0.16015625 0.703125 0.1796875 0.69921875 0.15234375 0.6640625 0.1796875 0.66796875 0.15234375 0.625 0.171875 0.62890625 0.14453125 0.57421875 0.1484375 0.5703125 0.109375 0.5390625 0.078125 0.5625 0.06640625 0.5625 0.046875 0.59375 0.05078125 0.58984375 0.02734375 0.640625 0.0390625 0.6328125 0.0234375 0.66015625 0.01171875 0.62890625 0.0078125 0.984375 0.30078125 0.97265625 0.21875 0.95703125 0.1015625 0.9140625 0.0859375 0.9140625 0.12109375 0.5078125 0.33984375 0.5078125 0.34765625 0.5234375 0.35546875 0.52734375 0.36328125 0.5390625 0.33984375 0.54296875 0.34765625 0.5703125 0.36328125 0.59765625 0.37109375 0.62890625 0.359375 0.62890625 0.3671875 0.66796875 0.3671875 0.70703125 0.3671875 0.72265625 0.35546875 0.70703125 0.33984375 0.72265625 0.34765625 0.51171875 0.296875 0.52734375 0.3046875 0.54296875 0.296875 0.58203125 0.296875 0.54296875 0.2421875 0.57421875 0.2265625 0.5625 0.21484375 0.6015625 0.21875 0.62109375 0.20703125 0.625 0.22265625 0.60546875 0.23828125 0.94140625 0.04296875 0.85546875 0.015625 0.90234375 0.0390625 0.83203125 0.0234375 0.83203125 0.02734375 0.75390625 0.01953125 0.75390625 0.0546875 0.90234375 0.04296875 0.9375 0.0703125 0.97265625 0.09765625 0.73046875 0.140625 0.73046875 0.125 0.71484375 0.1484375 0.71875 0.1171875 0.67578125 0.1484375 0.67578125 0.1171875 0.62890625 0.109375 0.6328125 0.078125 0.60546875 0.05859375 0.62109375 0.046875 0.75390625 0.00390625 0.75390625 0.01171875 0.94140625 0.05859375 0.73046875 0.296875 0.7265625 0.296875 0.6875 0.296875 0.6328125 0.296875 0.6328125 0.29296875 0.6796875 0.3046875 0.6796875 0.30078125 0.72265625 0.30078125 0.72265625 0.3046875 0.73828125 0.3125 0.68359375 0.26171875 0.63671875 0.26171875 0.6328125 0.26171875 0.6875 0.26171875 0.73046875 0.265625 0.74609375 0.2890625 0.5078125 0.2421875 0.5078125 0.26171875 0.52734375 0.234375 0.52734375 0.2578125 0.54296875 0.26171875 0.5625 0.2265625 0.59375 0.1953125 0.68359375 0.08203125 0.68359375 0.11328125 0.72265625 0.08203125 0.72265625 0.11328125 0.73828125 0.09375 0.73828125 0.10546875 0.63671875 0.2265625 0.68359375 0.2265625 0.6328125 0.2265625 0.68359375 0.22265625 0.68359375 0.2578125 0.72265625 0.26171875 0.72265625 0.2265625 0.73828125 0.25 0.75390625 0.3359375 0.84375 0.328125 0.73828125 0.32421875 0.72265625 0.3359375 0.6796875 0.3359375 0.65625 0.19921875 0.6484375 0.22265625 0.671875 0.33984375 0.6328125 0.33203125 0.75390625 0.30078125 0.75 0.31640625 0.734375 0.0703125 0.73046875 0.05859375 0.71484375 0.078125 0.71484375 0.046875 0.6796875 0.046875 0.73828125 0.23828125 0.74609375 0.1640625 0.73046875 0.26171875 0.9921875 0.23046875 0.98828125 0.1640625 0.53515625 0.15234375 0.5234375 0.16015625 0.58984375 0.01953125 0.6796875 0.078125 0.5234375 0.07421875 0.5078125 0.15234375 0.6328125 0.046875 0.671875 0.203125 0.6640625 0.1875 0.6328125 0.18359375 0.66796875 0.02734375 0.64453125 0.04296875 0.56640625 0.17578125 0.5078125 0.08203125 0.74609375 0.3671875</float_array>
                    <technique_common>
                        <accessor count="174" source="#uvarray0" stride="2">
                            <param name="S" type="float"/>
                            <param name="T" type="float"/>
                        </accessor>
                    </technique_common>
                </source>
                <vertices id="vertices0">
                    <input semantic="POSITION" source="#points0"/>
                </vertices>
                <polylist count="328" material="Material1">
                    <input offset="0" semantic="VERTEX" source="#vertices0"/>
                    <input offset="1" semantic="TEXCOORD" source="#uvs0" set="0"/>
                    <vcount>3 3 3 3 3 3 3 3 3 3 3 3 3 3 3 3 3 3 3 3 3 3 3 3 3 3 3 3 3 3 3 3 3 3 3 3 3 3 3 3 3 3 3 3 3 3 3 3 3 3 3 3 3 3 3 3 3 3 3 3 3 3 3 3 3 3 3 3 3 3 3 3 3 3 3 3 3 3 3 3 3 3 3 3 3 3 3 3 3 3 3 3 3 3 3 3 3 3 3 3 3 3 3 3 3 3 3 3 3 3 3 3 3 3 3 3 3 3 3 3 3 3 3 3 3 3 3 3 3 3 3 3 3 3 3 3 3 3 3 3 3 3 3 3 3 3 3 3 3 3 3 3 3 3 3 3 3 3 3 3 3 3 3 3 3 3 3 3 3 3 3 3 3 3 3 3 3 3 3 3 3 3 3 3 3 3 3 3 3 3 3 3 3 3 3 3 3 3 3 3 3 3 3 3 3 3 3 3 3 3 3 3 3 3 3 3 3 3 3 3 3 3 3 3 3 3 3 3 3 3 3 3 3 3 3 3 3 3 3 3 3 3 3 3 3 3 3 3 3 3 3 3 3 3 3 3 3 3 3 3 3 3 3 3 3 3 3 3 3 3 3 3 3 3 3 3 3 3 3 3 3 3 3 3 3 3 3 3 3 3 3 3 3 3 3 3 3 3 3 3 3 3 3 3 3 3 3 3 3 3 3 3 3 3 3 3 3 3 3 3 3 3 3 3 3 3 3 3</vcount>
                    <p>2 2 1 1 0 0 3 3 1 1 2 2 4 4 3 3 2 2 5 5 3 3 4 4 6 6 5 5 4 4 7 7 5 5 6 6 8 8 7 7 6 6 9 9 7 7 8 8 10 10 9 9 8 8 11 11 9 9 10 10 12 12 11 11 10 10 13 13 11 11 12 12 14 14 13 13 12 12 15 12 13 13 14 14 16 15 15 12 14 14 17 16 15 12 16 15 18 17 17 16 16 15 19 18 17 16 18 17 20 19 19 18 18 17 7 7 21 20 5 5 22 21 21 20 7 7 23 22 22 21 7 7 24 23 22 21 23 22 25 24 24 23 23 22 26 22 24 23 25 24 27 11 26 22 25 24 28 9 26 22 27 11 29 10 28 9 27 11 30 8 28 9 29 10 31 25 30 8 29 10 32 6 30 8 31 25 33 26 32 6 31 25 34 4 32 6 33 26 35 27 34 4 33 26 36 2 34 4 35 27 37 0 36 2 35 27 1 1 36 2 37 0 40 30 39 29 38 28 41 31 39 29 40 30 42 32 41 31 40 30 43 33 41 31 42 32 44 34 43 33 42 32 45 35 43 33 44 34 46 36 45 35 44 34 47 37 45 35 46 36 48 38 47 37 46 36 49 39 47 37 48 38 50 40 49 39 48 38 51 41 49 39 50 40 52 42 51 41 50 40 53 43 51 41 52 42 54 44 53 43 52 42 55 45 53 43 54 44 56 46 55 45 54 44 35 27 57 47 37 0 58 48 57 47 35 27 33 26 58 48 35 27 59 49 58 48 33 26 31 25 59 49 33 26 60 50 59 49 31 25 61 51 60 50 31 25 17 16 60 50 61 51 29 10 17 16 61 51 15 12 17 16 29 10 27 11 15 12 29 10 13 13 15 12 27 11 25 24 13 13 27 11 11 11 13 13 25 24 23 22 11 11 25 24 9 9 11 11 23 22 7 7 9 9 23 22 64 54 63 53 62 52 65 55 63 53 64 54 66 56 65 55 64 54 67 57 65 55 66 56 68 58 67 57 66 56 69 59 67 57 68 58 44 60 69 59 68 58 70 61 69 59 44 60 42 62 70 61 44 60 71 62 70 61 42 62 40 63 71 62 42 62 72 63 71 62 40 63 38 64 72 63 40 63 73 65 72 63 38 64 39 66 73 65 38 64 41 65 73 65 39 66 65 55 74 67 63 53 75 68 74 67 65 55 67 57 75 68 65 55 76 69 75 68 67 57 77 70 76 69 67 57 78 71 76 69 77 70 79 72 78 71 77 70 80 73 78 71 79 72 81 74 80 73 79 72 82 75 80 73 81 74 83 76 82 75 81 74 84 77 82 75 83 76 87 80 86 79 85 78 88 81 86 79 87 80 89 82 88 81 87 80 90 83 88 81 89 82 20 84 90 83 89 82 91 82 90 83 20 84 92 18 91 82 20 84 93 85 91 82 92 18 94 50 93 85 92 18 95 86 93 85 94 50 96 49 95 86 94 50 97 87 95 86 96 49 100 90 99 89 98 88 101 91 99 89 100 90 102 92 101 91 100 90 103 93 101 91 102 92 45 35 103 93 102 92 104 94 103 93 45 35 47 37 104 94 45 35 105 95 104 94 47 37 84 96 105 95 47 37 83 97 105 95 84 96 88 81 106 98 86 79 107 99 106 98 88 81 90 83 107 99 88 81 108 81 107 99 90 83 91 82 108 81 90 83 109 80 108 81 91 82 93 85 109 80 91 82 110 100 109 80 93 85 95 86 110 100 93 85 97 87 110 100 95 86 113 103 112 102 111 101 114 103 112 102 113 103 115 104 114 103 113 103 104 105 114 103 115 104 116 106 104 105 115 104 103 107 104 105 116 106 117 108 103 107 116 106 101 109 103 107 117 108 99 110 101 109 117 108 119 113 105 112 118 111 120 114 105 112 119 113 113 103 120 114 119 113 121 115 120 114 113 103 111 101 121 115 113 103 122 116 121 115 111 101 112 102 122 116 111 101 124 25 94 50 123 51 96 49 94 50 124 25 125 26 96 49 124 25 126 48 96 49 125 26 127 27 126 48 125 26 128 47 126 48 127 27 0 0 128 47 127 27 131 119 130 118 129 117 132 120 130 118 131 119 78 71 132 120 131 119 48 121 132 120 78 71 80 73 48 121 78 71 50 122 48 121 80 73 133 123 50 122 80 73 134 3 36 2 1 1 34 4 36 2 134 3 135 5 34 4 134 3 32 6 34 4 135 5 136 7 32 6 135 5 30 8 32 6 136 7 28 9 30 8 136 7 137 124 104 94 105 95 114 125 104 94 137 124 138 126 114 125 137 124 112 127 114 125 138 126 139 128 112 127 138 126 122 129 112 127 139 128 140 16 94 50 92 18 123 51 94 50 140 16 10 10 123 51 140 16 124 25 123 51 10 10 8 8 124 25 10 10 6 6 124 25 8 8 143 132 142 131 141 130 144 133 142 131 143 132 119 113 144 133 143 132 145 134 144 133 119 113 118 111 145 134 119 113 146 135 145 134 118 111 147 78 110 100 97 87 109 80 110 100 147 78 148 79 109 80 147 78 108 81 109 80 148 79 106 98 108 81 148 79 107 99 108 81 106 98 89 82 19 18 20 84 149 85 19 18 89 82 87 80 149 85 89 82 150 100 149 85 87 80 85 78 150 100 87 80 151 87 150 100 85 78 144 133 152 136 142 131 153 136 152 136 144 133 145 134 153 136 144 133 154 135 153 136 145 134 146 135 154 135 145 134 155 137 154 135 146 135 18 17 92 18 20 19 140 16 92 18 18 17 16 15 140 16 18 17 12 12 140 16 16 15 14 14 12 12 16 15 127 27 2 2 0 0 4 4 2 2 127 27 125 26 4 4 127 27 6 6 4 4 125 26 124 25 6 6 125 26 156 138 1 1 3 3 134 3 1 1 156 138 157 139 134 3 156 138 135 5 134 3 157 139 158 20 135 5 157 139 117 108 98 140 99 110 159 141 98 140 117 108 160 142 159 141 117 108 100 141 159 141 160 142 102 142 100 141 160 142 75 68 129 117 74 67 131 119 129 117 75 68 76 69 131 119 75 68 78 71 131 119 76 69 81 74 141 130 83 76 143 132 141 130 81 74 79 72 143 132 81 74 77 70 143 132 79 72 149 85 60 50 19 18 161 86 60 50 149 85 150 100 161 86 149 85 151 87 161 86 150 100 82 75 133 123 80 73 162 143 133 123 82 75 84 77 162 143 82 75 163 144 162 143 84 77 73 65 71 62 72 63 164 145 71 62 73 65 43 145 164 145 73 65 45 146 164 145 43 145 136 7 26 22 28 9 165 21 26 22 136 7 158 20 165 21 136 7 166 147 165 21 158 20 167 139 156 138 3 3 168 148 156 138 167 139 21 20 168 148 167 139 166 147 168 148 21 20 146 151 169 150 155 149 152 152 169 150 146 151 142 153 152 152 146 151 153 136 169 154 152 136 155 137 169 154 153 136 154 135 155 137 153 136 119 113 115 104 113 103 77 70 115 104 119 113 143 132 77 70 119 113 170 146 164 145 45 146 71 62 164 145 170 146 70 61 71 62 170 146 170 146 77 70 70 61 115 104 77 70 170 146 160 142 115 104 170 146 139 155 121 115 122 116 138 156 121 115 139 155 120 114 137 114 105 112 121 115 137 114 120 114 171 157 126 48 128 47 172 158 126 48 171 157 97 87 126 48 172 158 96 49 126 48 97 87 66 159 48 38 46 36 64 160 48 38 66 159 133 161 52 42 50 40 56 46 52 42 133 161 151 87 58 48 59 49 173 158 58 48 151 87 174 157 58 48 173 158 57 47 58 48 174 157 22 21 166 147 21 20 24 23 166 147 22 21 118 162 142 153 146 151 105 95 142 153 118 162 116 106 160 142 117 108 115 104 160 142 116 106 64 160 132 163 48 38 62 164 132 163 64 160 141 165 105 95 83 97 142 153 105 95 141 165 69 59 77 70 67 57 70 61 77 70 69 59 59 49 161 86 151 87 60 50 161 86 59 49 49 39 84 96 47 37 51 41 84 96 49 39 175 166 162 143 163 144 55 167 162 143 175 166 133 123 55 167 56 168 162 143 55 167 133 123 165 21 24 23 26 22 166 147 24 23 165 21 175 169 53 43 55 45 163 170 53 43 175 169 5 5 167 139 3 3 21 20 167 139 5 5 158 20 168 148 166 147 157 139 168 148 158 20 163 170 51 41 53 43 84 96 51 41 163 170 68 171 46 36 44 34 66 159 46 36 68 171 102 142 170 146 45 146 160 142 170 146 102 142 10 10 140 16 12 12 98 140 159 141 100 141 62 164 130 172 132 163 135 5 158 20 136 7 0 173 1 1 37 0 54 44 52 42 56 46 121 115 138 156 137 114 168 148 157 139 156 138 73 65 41 65 43 145 61 51 31 25 29 10 60 50 17 16 19 18</p>
                </polylist>
            </mesh>
        </geometry>
        <geometry id="mesh0_1">
            <mesh>
                <source id="points0_1">
                    <float_array id="pointarray0_1" count="528">-3.748046875 -33.40625 24.87890625 2.94140625 -39.134765625 33.130859375 -1.498046875 -38.474609375 21.064453125 2.53125 -42.794921875 20.259765625 2.62109375 -37.619140625 7.564453125 8.0390625 -40.41796875 12.11328125 13.275390625 -31.802734375 -3.875 20.59375 -35.90234375 3.146484375 28.111328125 -26.564453125 -7.2421875 31.701171875 -30.73828125 -1.388671875 37.986328125 -23.208984375 -5.439453125 40.845703125 -28.009765625 0.87890625 43.82421875 -21.109375 -2.662109375 47.85546875 -25.923828125 8.279296875 51.103515625 -19.017578125 5.451171875 53.33203125 -17.830078125 16.259765625 49.28125 -11.07421875 4.990234375 50.943359375 -9.537109375 16.021484375 44.458984375 -7.06640625 6.71875 41.64453125 -4.560546875 17.53515625 39.478515625 -4.857421875 8.837890625 12.2109375 -41.20703125 18.2265625 24.423828125 -37.658203125 8.826171875 34.69140625 -32.94921875 5.6796875 30.06640625 -36.15234375 18.98828125 43.291015625 -30.533203125 11.37109375 42.86328125 -30.130859375 21.9453125 49.685546875 -24.9609375 18.474609375 46.2890625 -25.70703125 27.646484375 52.251953125 -18.2890625 22.955078125 48.130859375 -19.66015625 32.609375 44.765625 -12.3046875 36.513671875 37.208984375 -23.548828125 43.763671875 34.39453125 -17.5234375 46.29296875 22.572265625 -30.740234375 47.279296875 19.95703125 -25.48828125 48.396484375 9.61328125 -34.642578125 43.185546875 4.572265625 -30.537109375 41.443359375 27.490234375 9.96484375 2.853515625 25.98828125 8.45703125 2.55859375 25.4375 11.720703125 0.236328125 25.232421875 7.37109375 -0.052734375 22.9453125 11.84375 -3.22265625 22.765625 7.34765625 -2.791015625 17.892578125 10.55859375 -3.181640625 18.994140625 6.41015625 -2.607421875 10.66796875 6.48046875 5.875 10.171875 0.392578125 6.3125 4.298828125 -4.78125 6.927734375 8.54296875 -6.7109375 7.451171875 8.26953125 -9.736328125 6.568359375 13.453125 -9.48046875 7.390625 13.296875 -13.189453125 6.943359375 18.998046875 -9.482421875 6.458984375 19.5625 -12.412109375 7.494140625 24.62109375 -10.859375 4.556640625 21.181640625 -14.42578125 4.755859375 15.49609375 -22.337890625 46.080078125 29.404296875 -13.107421875 45.177734375 34.576171875 -7.208984375 36.43359375 40.279296875 -4.875 26.1171875 49.580078125 -9.927734375 25.876953125 -0.958984375 7.619140625 5.755859375 -0.998046875 8.87109375 -2.97265625 1.623046875 9.89453125 7.087890625 1.873046875 11.19140625 -3.564453125 3.8671875 7.6484375 5.54296875 4.1640625 8.51953125 -3.03125 9.5703125 11.443359375 3.537109375 13.041015625 12.296875 -7.0390625 18.376953125 11.79296875 -8.591796875 26.84375 11.77734375 -7.22265625 29.490234375 11.533203125 1.328125 29.08984375 7.4765625 0.994140625 -0.62890625 1.134765625 -7.173828125 2.240234375 1.90625 -8.65625 4.4921875 1.037109375 -7.10546875 10.486328125 0.89453125 -8.802734375 4.46484375 -7.72265625 -2.92578125 9.341796875 -9.78125 -5.576171875 8.490234375 -11.681640625 0.65625 14.091796875 -11.015625 -3.580078125 17.69140625 -12.4140625 -0.017578125 17.67578125 -9.287109375 1.029296875 15.443359375 -8.33984375 4.1015625 35.99609375 -3.609375 30.34765625 35.919921875 -3.3046875 21.12109375 43.212890625 8.732421875 22.8828125 43.28125 10.009765625 13.359375 44.79296875 9.251953125 13.140625 41.921875 9.009765625 5.20703125 37.4140625 6.70703125 -1.544921875 33.9375 -7.21875 2.193359375 29.650390625 2.892578125 -6.83984375 26.427734375 -9.650390625 -1.451171875 22.076171875 -3.4140625 -6.751953125 15.203125 -13.890625 -2.125 13.453125 -14.216796875 -0.62109375 29.62109375 5.330078125 4.126953125 27.916015625 3.080078125 3.7734375 26.634765625 6.73828125 0.748046875 26.759765625 1.88671875 1.224609375 24.744140625 6.796875 -3.033203125 24.583984375 1.576171875 -2.84765625 19.32421875 0.541015625 -2.08203125 19.248046875 -4.578125 -1.939453125 33.064453125 -3.076171875 11.751953125 40.490234375 9.74609375 5.798828125 36.22265625 7.57421875 -0.6875 28.892578125 3.794921875 -5.6171875 21.22265625 -2.591796875 -5.865234375 34.111328125 1.462890625 0.71484375 29.58984375 1.333984375 -0.138671875 29.361328125 1.330078125 -8.078125 25.69921875 1.35546875 -3 18.595703125 1.015625 -10.33984375 29.044921875 1.8671875 -7.708984375 32.248046875 1.822265625 2.181640625 25.638671875 -4.646484375 -2.853515625 18.697265625 -4.755859375 -10.236328125 29.40625 -4.32421875 -7.998046875 34.330078125 -3.716796875 1.07421875 32.669921875 -0.0078125 3.21484375 32.94140625 -15.666015625 -7.240234375 22.01171875 -20.150390625 -8.77734375 8.76953125 -26.359375 -4.71484375 6.017578125 -21.171875 -1.373046875 -0.55078125 -32.560546875 7.572265625 -1.869140625 -28.326171875 11.51171875 -0.998046875 -7.63671875 -2.671875 -0.857421875 -4.345703125 6.86328125 2.06640625 -8.783203125 -3.3125 1.92578125 -4.984375 8.623046875 13.943359375 -14.728515625 3.576171875 13.275390625 -39.08984375 41.64453125 22.673828125 -35.37109375 41.244140625 36.69921875 -30.34765625 35.205078125 25.6953125 -4.15234375 -2.755859375 29.521484375 -3.9375 0.232421875 30.779296875 -1.9921875 3.115234375 41.4375 -12.814453125 -2.8984375 19.541015625 -9.919921875 -2.408203125 25.955078125 -9.666015625 -2.611328125 18.59765625 -10.251953125 -8.52734375 28.03125 -10.103515625 -8.091796875 27.87890625 -4.72265625 -8.818359375 30.2578125 -4.384765625 -0.7578125 20.34375 -9.005859375 -0.806640625 27.486328125 -6.212890625 4.333984375 44.75 8.099609375 23.216796875 39.623046875 3.751953125 30.7578125 32.37890625 -7.689453125 37.052734375 30.0078125 -9.666015625 -0.57421875 33.845703125 -9.919921875 -3.794921875 34.349609375 -4.2734375 -3.7421875 34.55078125 -5.921875 -0.666015625 7.568359375 -44.103515625 31.66796875 17.626953125 -41.05078125 38.552734375 20.521484375 -38.341796875 34.76953125 31.89453125 6.82421875 2.09375 28.783203125 6.796875 -7.525390625 40.9453125 3.091796875 30.806640625 22.232421875 -10.33984375 0.396484375 19.37109375 -8.291015625 1.564453125 26.681640625 7.376953125 -6.896484375 34.810546875 -34.076171875 29.50390625 17.232421875 -40.78125 26.23828125 7.859375 -44.41796875 19.109375 12.892578125 -45.263671875 29.193359375 33.06640625 -7.919921875 0.4140625 18.521484375 6.609375 -9.8125 2.71875 -23.1640625 6.330078125 8.291015625 -17.888671875 -0.837890625 29.91796875 -10.431640625 42.2109375 21.63671875 -16.640625 43.98828125 23.798828125 -8.27734375 2.966796875</float_array>
                    <technique_common>
                        <accessor count="176" source="#pointarray0_1" stride="3">
                            <param name="X" type="float"/>
                            <param name="Y" type="float"/>
                            <param name="Z" type="float"/>
                        </accessor>
                    </technique_common>
                </source>
                <source id="uvs0_1">
                    <float_array id="uvarray0_1" count="348">0.88671875 0.3671875 0.75 0.35546875 0.87109375 0.3515625 0.85546875 0.34375 0.9375 0.30078125 0.89453125 0.30078125 0.93359375 0.234375 0.90234375 0.24609375 0.9296875 0.18359375 0.8984375 0.203125 0.8984375 0.171875 0.83984375 0.1875 0.84765625 0.15234375 0.75390625 0.1875 0.75390625 0.16796875 0.75390625 0.140625 0.84765625 0.12109375 0.75390625 0.1015625 0.83203125 0.06640625 0.75390625 0.06640625 0.83984375 0.296875 0.85546875 0.2578125 0.84375 0.21875 0.75390625 0.2421875 0.75390625 0.203125 0.9453125 0.1484375 0.95703125 0.2265625 0.95703125 0.30078125 0.71484375 0.16796875 0.71484375 0.16015625 0.703125 0.1796875 0.69921875 0.15234375 0.6640625 0.1796875 0.66796875 0.15234375 0.625 0.171875 0.62890625 0.14453125 0.57421875 0.1484375 0.5703125 0.109375 0.5390625 0.078125 0.5625 0.06640625 0.5625 0.046875 0.59375 0.05078125 0.58984375 0.02734375 0.640625 0.0390625 0.6328125 0.0234375 0.66015625 0.01171875 0.62890625 0.0078125 0.984375 0.30078125 0.97265625 0.21875 0.95703125 0.1015625 0.9140625 0.0859375 0.9140625 0.12109375 0.5078125 0.33984375 0.5078125 0.34765625 0.5234375 0.35546875 0.52734375 0.36328125 0.5390625 0.33984375 0.54296875 0.34765625 0.5703125 0.36328125 0.59765625 0.37109375 0.62890625 0.359375 0.62890625 0.3671875 0.66796875 0.3671875 0.70703125 0.3671875 0.72265625 0.35546875 0.70703125 0.33984375 0.72265625 0.34765625 0.51171875 0.296875 0.52734375 0.3046875 0.54296875 0.296875 0.58203125 0.296875 0.54296875 0.2421875 0.57421875 0.2265625 0.5625 0.21484375 0.6015625 0.21875 0.62109375 0.20703125 0.625 0.22265625 0.60546875 0.23828125 0.94140625 0.04296875 0.85546875 0.015625 0.90234375 0.0390625 0.83203125 0.0234375 0.83203125 0.02734375 0.75390625 0.01953125 0.75390625 0.0546875 0.90234375 0.04296875 0.9375 0.0703125 0.97265625 0.09765625 0.73046875 0.140625 0.73046875 0.125 0.71484375 0.1484375 0.71875 0.1171875 0.67578125 0.1484375 0.67578125 0.1171875 0.62890625 0.109375 0.6328125 0.078125 0.60546875 0.05859375 0.62109375 0.046875 0.75390625 0.00390625 0.75390625 0.01171875 0.94140625 0.05859375 0.73046875 0.296875 0.7265625 0.296875 0.6875 0.296875 0.6328125 0.296875 0.6328125 0.29296875 0.6796875 0.3046875 0.6796875 0.30078125 0.72265625 0.30078125 0.72265625 0.3046875 0.73828125 0.3125 0.68359375 0.26171875 0.63671875 0.26171875 0.6328125 0.26171875 0.6875 0.26171875 0.73046875 0.265625 0.74609375 0.2890625 0.5078125 0.2421875 0.5078125 0.26171875 0.52734375 0.234375 0.52734375 0.2578125 0.54296875 0.26171875 0.5625 0.2265625 0.59375 0.1953125 0.68359375 0.08203125 0.68359375 0.11328125 0.72265625 0.08203125 0.72265625 0.11328125 0.73828125 0.09375 0.73828125 0.10546875 0.63671875 0.2265625 0.68359375 0.2265625 0.6328125 0.2265625 0.68359375 0.22265625 0.68359375 0.2578125 0.72265625 0.26171875 0.72265625 0.2265625 0.73828125 0.25 0.75390625 0.3359375 0.84375 0.328125 0.73828125 0.32421875 0.72265625 0.3359375 0.6796875 0.3359375 0.65625 0.19921875 0.6484375 0.22265625 0.671875 0.33984375 0.6328125 0.33203125 0.75390625 0.30078125 0.75 0.31640625 0.734375 0.0703125 0.73046875 0.05859375 0.71484375 0.078125 0.71484375 0.046875 0.6796875 0.046875 0.73828125 0.23828125 0.74609375 0.1640625 0.73046875 0.26171875 0.9921875 0.23046875 0.98828125 0.1640625 0.53515625 0.15234375 0.5234375 0.16015625 0.58984375 0.01953125 0.6796875 0.078125 0.5234375 0.07421875 0.5078125 0.15234375 0.6328125 0.046875 0.671875 0.203125 0.6640625 0.1875 0.6328125 0.18359375 0.66796875 0.02734375 0.64453125 0.04296875 0.56640625 0.17578125 0.5078125 0.08203125 0.74609375 0.3671875</float_array>
                    <technique_common>
                        <accessor count="174" source="#uvarray0_1" stride="2">
                            <param name="S" type="float"/>
                            <param name="T" type="float"/>
                        </accessor>
                    </technique_common>
                </source>
                <vertices id="vertices0_1">
                    <input semantic="POSITION" source="#points0_1"/>
                </vertices>
                <polylist count="328" material="Material1">
                    <input offset="0" semantic="VERTEX" source="#vertices0_1"/>
                    <input offset="1" semantic="TEXCOORD" source="#uvs0_1" set="0"/>
                    <vcount>3 3 3 3 3 3 3 3 3 3 3 3 3 3 3 3 3 3 3 3 3 3 3 3 3 3 3 3 3 3 3 3 3 3 3 3 3 3 3 3 3 3 3 3 3 3 3 3 3 3 3 3 3 3 3 3 3 3 3 3 3 3 3 3 3 3 3 3 3 3 3 3 3 3 3 3 3 3 3 3 3 3 3 3 3 3 3 3 3 3 3 3 3 3 3 3 3 3 3 3 3 3 3 3 3 3 3 3 3 3 3 3 3 3 3 3 3 3 3 3 3 3 3 3 3 3 3 3 3 3 3 3 3 3 3 3 3 3 3 3 3 3 3 3 3 3 3 3 3 3 3 3 3 3 3 3 3 3 3 3 3 3 3 3 3 3 3 3 3 3 3 3 3 3 3 3 3 3 3 3 3 3 3 3 3 3 3 3 3 3 3 3 3 3 3 3 3 3 3 3 3 3 3 3 3 3 3 3 3 3 3 3 3 3 3 3 3 3 3 3 3 3 3 3 3 3 3 3 3 3 3 3 3 3 3 3 3 3 3 3 3 3 3 3 3 3 3 3 3 3 3 3 3 3 3 3 3 3 3 3 3 3 3 3 3 3 3 3 3 3 3 3 3 3 3 3 3 3 3 3 3 3 3 3 3 3 3 3 3 3 3 3 3 3 3 3 3 3 3 3 3 3 3 3 3 3 3 3 3 3 3 3 3 3 3 3 3 3 3 3 3 3 3 3 3 3 3 3</vcount>
                    <p>2 2 1 1 0 0 3 3 1 1 2 2 4 4 3 3 2 2 5 5 3 3 4 4 6 6 5 5 4 4 7 7 5 5 6 6 8 8 7 7 6 6 9 9 7 7 8 8 10 10 9 9 8 8 11 11 9 9 10 10 12 12 11 11 10 10 13 13 11 11 12 12 14 14 13 13 12 12 15 12 13 13 14 14 16 15 15 12 14 14 17 16 15 12 16 15 18 17 17 16 16 15 19 18 17 16 18 17 20 19 19 18 18 17 7 7 21 20 5 5 22 21 21 20 7 7 23 22 22 21 7 7 24 23 22 21 23 22 25 24 24 23 23 22 26 22 24 23 25 24 27 11 26 22 25 24 28 9 26 22 27 11 29 10 28 9 27 11 30 8 28 9 29 10 31 25 30 8 29 10 32 6 30 8 31 25 33 26 32 6 31 25 34 4 32 6 33 26 35 27 34 4 33 26 36 2 34 4 35 27 37 0 36 2 35 27 1 1 36 2 37 0 40 30 39 29 38 28 41 31 39 29 40 30 42 32 41 31 40 30 43 33 41 31 42 32 44 34 43 33 42 32 45 35 43 33 44 34 46 36 45 35 44 34 47 37 45 35 46 36 48 38 47 37 46 36 49 39 47 37 48 38 50 40 49 39 48 38 51 41 49 39 50 40 52 42 51 41 50 40 53 43 51 41 52 42 54 44 53 43 52 42 55 45 53 43 54 44 56 46 55 45 54 44 35 27 57 47 37 0 58 48 57 47 35 27 33 26 58 48 35 27 59 49 58 48 33 26 31 25 59 49 33 26 60 50 59 49 31 25 61 51 60 50 31 25 17 16 60 50 61 51 29 10 17 16 61 51 15 12 17 16 29 10 27 11 15 12 29 10 13 13 15 12 27 11 25 24 13 13 27 11 11 11 13 13 25 24 23 22 11 11 25 24 9 9 11 11 23 22 7 7 9 9 23 22 64 54 63 53 62 52 65 55 63 53 64 54 66 56 65 55 64 54 67 57 65 55 66 56 68 58 67 57 66 56 69 59 67 57 68 58 44 60 69 59 68 58 70 61 69 59 44 60 42 62 70 61 44 60 71 62 70 61 42 62 40 63 71 62 42 62 72 63 71 62 40 63 38 64 72 63 40 63 73 65 72 63 38 64 39 66 73 65 38 64 41 65 73 65 39 66 65 55 74 67 63 53 75 68 74 67 65 55 67 57 75 68 65 55 76 69 75 68 67 57 77 70 76 69 67 57 78 71 76 69 77 70 79 72 78 71 77 70 80 73 78 71 79 72 81 74 80 73 79 72 82 75 80 73 81 74 83 76 82 75 81 74 84 77 82 75 83 76 87 80 86 79 85 78 88 81 86 79 87 80 89 82 88 81 87 80 90 83 88 81 89 82 20 84 90 83 89 82 91 82 90 83 20 84 92 18 91 82 20 84 93 85 91 82 92 18 94 50 93 85 92 18 95 86 93 85 94 50 96 49 95 86 94 50 97 87 95 86 96 49 100 90 99 89 98 88 101 91 99 89 100 90 102 92 101 91 100 90 103 93 101 91 102 92 45 35 103 93 102 92 104 94 103 93 45 35 47 37 104 94 45 35 105 95 104 94 47 37 84 96 105 95 47 37 83 97 105 95 84 96 88 81 106 98 86 79 107 99 106 98 88 81 90 83 107 99 88 81 108 81 107 99 90 83 91 82 108 81 90 83 109 80 108 81 91 82 93 85 109 80 91 82 110 100 109 80 93 85 95 86 110 100 93 85 97 87 110 100 95 86 113 103 112 102 111 101 114 103 112 102 113 103 115 104 114 103 113 103 104 105 114 103 115 104 116 106 104 105 115 104 103 107 104 105 116 106 117 108 103 107 116 106 101 109 103 107 117 108 99 110 101 109 117 108 119 113 105 112 118 111 120 114 105 112 119 113 113 103 120 114 119 113 121 115 120 114 113 103 111 101 121 115 113 103 122 116 121 115 111 101 112 102 122 116 111 101 124 25 94 50 123 51 96 49 94 50 124 25 125 26 96 49 124 25 126 48 96 49 125 26 127 27 126 48 125 26 128 47 126 48 127 27 0 0 128 47 127 27 131 119 130 118 129 117 132 120 130 118 131 119 78 71 132 120 131 119 48 121 132 120 78 71 80 73 48 121 78 71 50 122 48 121 80 73 133 123 50 122 80 73 134 3 36 2 1 1 34 4 36 2 134 3 135 5 34 4 134 3 32 6 34 4 135 5 136 7 32 6 135 5 30 8 32 6 136 7 28 9 30 8 136 7 137 124 104 94 105 95 114 125 104 94 137 124 138 126 114 125 137 124 112 127 114 125 138 126 139 128 112 127 138 126 122 129 112 127 139 128 140 16 94 50 92 18 123 51 94 50 140 16 10 10 123 51 140 16 124 25 123 51 10 10 8 8 124 25 10 10 6 6 124 25 8 8 143 132 142 131 141 130 144 133 142 131 143 132 119 113 144 133 143 132 145 134 144 133 119 113 118 111 145 134 119 113 146 135 145 134 118 111 147 78 110 100 97 87 109 80 110 100 147 78 148 79 109 80 147 78 108 81 109 80 148 79 106 98 108 81 148 79 107 99 108 81 106 98 89 82 19 18 20 84 149 85 19 18 89 82 87 80 149 85 89 82 150 100 149 85 87 80 85 78 150 100 87 80 151 87 150 100 85 78 144 133 152 136 142 131 153 136 152 136 144 133 145 134 153 136 144 133 154 135 153 136 145 134 146 135 154 135 145 134 155 137 154 135 146 135 18 17 92 18 20 19 140 16 92 18 18 17 16 15 140 16 18 17 12 12 140 16 16 15 14 14 12 12 16 15 127 27 2 2 0 0 4 4 2 2 127 27 125 26 4 4 127 27 6 6 4 4 125 26 124 25 6 6 125 26 156 138 1 1 3 3 134 3 1 1 156 138 157 139 134 3 156 138 135 5 134 3 157 139 158 20 135 5 157 139 117 108 98 140 99 110 159 141 98 140 117 108 160 142 159 141 117 108 100 141 159 141 160 142 102 142 100 141 160 142 75 68 129 117 74 67 131 119 129 117 75 68 76 69 131 119 75 68 78 71 131 119 76 69 81 74 141 130 83 76 143 132 141 130 81 74 79 72 143 132 81 74 77 70 143 132 79 72 149 85 60 50 19 18 161 86 60 50 149 85 150 100 161 86 149 85 151 87 161 86 150 100 82 75 133 123 80 73 162 143 133 123 82 75 84 77 162 143 82 75 163 144 162 143 84 77 73 65 71 62 72 63 164 145 71 62 73 65 43 145 164 145 73 65 45 146 164 145 43 145 136 7 26 22 28 9 165 21 26 22 136 7 158 20 165 21 136 7 166 147 165 21 158 20 167 139 156 138 3 3 168 148 156 138 167 139 21 20 168 148 167 139 166 147 168 148 21 20 146 151 169 150 155 149 152 152 169 150 146 151 142 153 152 152 146 151 153 136 169 154 152 136 155 137 169 154 153 136 154 135 155 137 153 136 119 113 115 104 113 103 77 70 115 104 119 113 143 132 77 70 119 113 170 146 164 145 45 146 71 62 164 145 170 146 70 61 71 62 170 146 170 146 77 70 70 61 115 104 77 70 170 146 160 142 115 104 170 146 139 155 121 115 122 116 138 156 121 115 139 155 120 114 137 114 105 112 121 115 137 114 120 114 171 157 126 48 128 47 172 158 126 48 171 157 97 87 126 48 172 158 96 49 126 48 97 87 66 159 48 38 46 36 64 160 48 38 66 159 133 161 52 42 50 40 56 46 52 42 133 161 151 87 58 48 59 49 173 158 58 48 151 87 174 157 58 48 173 158 57 47 58 48 174 157 22 21 166 147 21 20 24 23 166 147 22 21 118 162 142 153 146 151 105 95 142 153 118 162 116 106 160 142 117 108 115 104 160 142 116 106 64 160 132 163 48 38 62 164 132 163 64 160 141 165 105 95 83 97 142 153 105 95 141 165 69 59 77 70 67 57 70 61 77 70 69 59 59 49 161 86 151 87 60 50 161 86 59 49 49 39 84 96 47 37 51 41 84 96 49 39 175 166 162 143 163 144 55 167 162 143 175 166 133 123 55 167 56 168 162 143 55 167 133 123 165 21 24 23 26 22 166 147 24 23 165 21 175 169 53 43 55 45 163 170 53 43 175 169 5 5 167 139 3 3 21 20 167 139 5 5 158 20 168 148 166 147 157 139 168 148 158 20 163 170 51 41 53 43 84 96 51 41 163 170 68 171 46 36 44 34 66 159 46 36 68 171 102 142 170 146 45 146 160 142 170 146 102 142 10 10 140 16 12 12 98 140 159 141 100 141 62 164 130 172 132 163 135 5 158 20 136 7 0 173 1 1 37 0 54 44 52 42 56 46 121 115 138 156 137 114 168 148 157 139 156 138 73 65 41 65 43 145 61 51 31 25 29 10 60 50 17 16 19 18</p>
                </polylist>
            </mesh>
        </geometry>
    </library_geometries>
    <library_visual_scenes>
        <visual_scene id="VisualSceneNode">
            <node id="node0" name="m0" type="NODE">
                <instance_geometry url="#mesh0">
                    <bind_material>
                        <technique_common>
                            <instance_material symbol="Material1" target="#mat0">
                                <bind_vertex_input semantic="UVSET0" input_semantic="TEXCOORD" input_set="0"></bind_vertex_input>
                            </instance_material>
                        </technique_common>
                    </bind_material>
                </instance_geometry>
            </node>
            <node id="node0_1" name="m0_1" type="NODE">
                <instance_geometry url="#mesh0_1">
                    <bind_material>
                        <technique_common>
                            <instance_material symbol="Material1" target="#mat0_1">
                                <bind_vertex_input semantic="UVSET0" input_semantic="TEXCOORD" input_set="0"></bind_vertex_input>
                            </instance_material>
                        </technique_common>
                    </bind_material>
                </instance_geometry>
            </node>
        </visual_scene>
    </library_visual_scenes>
    <scene>
        <instance_visual_scene url="#VisualSceneNode"></instance_visual_scene>
    </scene>
</COLLADA>
