<?xml version="1.0"?>
<COLLADA xmlns="http://www.collada.org/2005/11/COLLADASchema" version="1.4.1">
    <asset>
        <contributor>
            <authoring_tool>J3D Ripoff Exporter</authoring_tool>
        </contributor>
        <created>2026-07-03T01:46:35.248Z</created>
        <modified>2026-07-03T01:46:35.248Z</modified>
		<unit meter="0.01" name="centimeter" ></unit>
        <up_axis>Y_UP</up_axis>
    </asset>
    <library_images>
        <image id="tex0">
            <init_from>H_ma_new_main_s3tc.png</init_from>
        </image>
        <image id="tex1">
            <init_from>H_ma_polmask_hand_i4.png</init_from>
        </image>
        <image id="tex2">
            <init_from>H_ma_rak_dummy.png</init_from>
        </image>
        <image id="tex3">
            <init_from>H_toon_2_4i.png</init_from>
        </image>
    </library_images>
    <library_effects>
        <effect id="effect0">
            <profile_COMMON>
                <newparam sid="surface0">
                    <surface type="2D">
                        <init_from>tex0</init_from>
                    </surface>
                </newparam>
                <newparam sid="sampler0">
                    <sampler2D>
                        <source>surface0</source>
                    </sampler2D>
                </newparam>
                <technique sid="COMMON">
                    <blinn>
                        <diffuse>
                            <texture texture="sampler0" texcoord="UVSET0"></texture>
                        </diffuse>
                    </blinn>
                </technique>
            </profile_COMMON>
        </effect>
        <effect id="effect0_1">
            <profile_COMMON>
                <newparam sid="surface0_1">
                    <surface type="2D">
                        <init_from>tex1</init_from>
                    </surface>
                </newparam>
                <newparam sid="sampler0_1">
                    <sampler2D>
                        <source>surface0_1</source>
                    </sampler2D>
                </newparam>
                <technique sid="COMMON">
                    <blinn>
                        <diffuse>
                            <texture texture="sampler0_1" texcoord="UVSET0"></texture>
                        </diffuse>
                    </blinn>
                </technique>
            </profile_COMMON>
        </effect>
        <effect id="effect0_2">
            <profile_COMMON>
                <newparam sid="surface0_2">
                    <surface type="2D">
                        <init_from>tex2</init_from>
                    </surface>
                </newparam>
                <newparam sid="sampler0_2">
                    <sampler2D>
                        <source>surface0_2</source>
                    </sampler2D>
                </newparam>
                <technique sid="COMMON">
                    <blinn>
                        <diffuse>
                            <texture texture="sampler0_2" texcoord="UVSET0"></texture>
                        </diffuse>
                    </blinn>
                </technique>
            </profile_COMMON>
        </effect>
    </library_effects>
    <library_materials>
        <material id="mat0" name="_mat_hand3_L">
            <instance_effect url="#effect0"></instance_effect>
        </material>
        <material id="mat0_1" name="_mat_hand3_L_uv2">
            <instance_effect url="#effect0_1"></instance_effect>
        </material>
        <material id="mat0_2" name="_mat_hand3_L_uv3">
            <instance_effect url="#effect0_2"></instance_effect>
        </material>
    </library_materials>
    <library_geometries>
        <geometry id="mesh0">
            <mesh>
                <source id="points0">
                    <float_array id="pointarray0" count="264">1.6240234375 9.8955078125 -7.0888671875 3.8681640625 7.6484375 -5.54296875 4.1650390625 8.5205078125 3.0322265625 9.9794921875 11.4443359375 -2.1220703125 11.892578125 12.296875 8.8447265625 15.0771484375 10.3544921875 6.4580078125 19.314453125 12.021484375 9.6669921875 18.0244140625 11.583984375 3.6005859375 22.9599609375 11.525390625 0.9892578125 16.54296875 11.2861328125 1.787109375 13.7275390625 10.748046875 -1.283203125 13.3427734375 9.3701171875 1.3115234375 14.353515625 6.7412109375 -0.7529296875 18.37890625 -8.8466796875 1.765625 15.888671875 -9.283203125 4.1806640625 19.107421875 -10.626953125 9.306640625 13.4296875 -11.0166015625 5.5712890625 8.44140625 -9.7822265625 6.86328125 11.5634765625 -10.384765625 0.75390625 4.4658203125 -7.72265625 2.92578125 4.2998046875 -4.78125 -6.927734375 2.0673828125 -8.7841796875 3.3134765625 1.92578125 -4.984375 -8.623046875 -0.9990234375 -7.6376953125 2.671875 -0.857421875 -4.345703125 -6.86328125 18.3505859375 -8.8232421875 1.18359375 23.9892578125 -9.3037109375 0.072265625 20.62890625 -5.4716796875 11.3681640625 8.91796875 0.89453125 11.5322265625 20.4765625 0.703125 11.4580078125 19.5859375 6.6416015625 10.7119140625 24.9501953125 6.7421875 0.564453125 19.4482421875 6.7470703125 3.0615234375 18.2587890625 6.66796875 2.169921875 -0.958984375 7.6201171875 -5.755859375 11.404296875 6.48046875 -4.2783203125 7.8095703125 0.6865234375 -5.8759765625 15.98828125 6.376953125 5.0634765625 18.8232421875 0.5419921875 4.8427734375 4.4921875 1.037109375 7.1064453125 2.2412109375 1.9072265625 8.6572265625 1.873046875 11.19140625 3.564453125 -0.998046875 8.87109375 2.9736328125 23.8173828125 -7.0390625 -4.4912109375 21.146484375 -6.77734375 -7.1328125 17.82421875 -11.0927734375 -2.501953125 16.28125 -10.462890625 -5.8701171875 10.19140625 -9.32421875 -5.2255859375 14.7548828125 -7.10546875 -6.583984375 9.150390625 -6.552734375 -6.3427734375 16.3134765625 -4.9228515625 -3.6015625 15.6943359375 -3.9560546875 4.8486328125 18.83984375 -3.955078125 2.8671875 24.9609375 -4.0595703125 1.10546875 15.9619140625 -8.2353515625 -3.1904296875 15.208984375 -6.9541015625 1.296875 22.78125 7.1298828125 1.3779296875 25.205078125 -4.02734375 -0.33203125 25.34765625 1.611328125 0.0859375 14.384765625 -3.1904296875 -2.5927734375 14.779296875 1.9833984375 -2.267578125 14.3359375 0.2578125 0.4384765625 18.8388671875 1.6591796875 -0.119140625 24.2861328125 -2.1171875 -4.880859375 18.9365234375 -4.7216796875 -6.2001953125 18.7568359375 -3.005859375 -1.4521484375 18.408203125 -4.2724609375 -0.7216796875 20.078125 -6.8330078125 0.515625 22.33203125 -2.7099609375 -0.5087890625 22.1240234375 -0.4287109375 -3.3515625 14.091796875 6.703125 -1.3115234375 13.83984375 1.6982421875 -1.5068359375 25.22265625 1.8115234375 0.419921875 19.7607421875 1.5244140625 2.912109375 14.3017578125 -4.685546875 0.1123046875 15.681640625 -2.6337890625 -2.357421875 18.37890625 -3.5732421875 1.8251953125 19.2431640625 1.52734375 3.2119140625 17.8232421875 1.814453125 2.3837890625 15.07421875 2.998046875 2.92578125 13.77734375 5.232421875 1.7314453125 17.7431640625 7.0888671875 3.9873046875 -0.6298828125 1.134765625 7.173828125 14.3447265625 8 2.62890625 17.05078125 6.970703125 2.1884765625 18.658203125 -3.62109375 -0.2626953125 15.87109375 -1.81640625 1.36328125 19.4501953125 -3.9658203125 2.5234375</float_array>
                    <technique_common>
                        <accessor count="88" source="#pointarray0" stride="3">
                            <param name="X" type="float"/>
                            <param name="Y" type="float"/>
                            <param name="Z" type="float"/>
                        </accessor>
                    </technique_common>
                </source>
                <source id="uvs0">
                    <float_array id="uvarray0" count="262">0.5272459983825684 0.35296398401260376 0.5414829850196838 0.3384310007095337 0.5433650016784668 0.3440709710121155 0.5715010166168213 0.3629850149154663 0.5994409918785095 0.36849600076675415 0.6296769976615906 0.35740000009536743 0.6317300200462341 0.36509400606155396 0.6712499856948853 0.3659690022468567 0.6717150211334229 0.36550599336624146 0.7098810076713562 0.3654929995536804 0.7103520035743713 0.36456000804901123 0.7228839993476868 0.3543909788131714 0.7090830206871033 0.33827900886535645 0.6866580247879028 0.2254440188407898 0.6382910013198853 0.22446000576019287 0.6344919800758362 0.22267800569534302 0.6041079759597778 0.2176859974861145 0.5752289891242981 0.22567099332809448 0.5654469728469849 0.21469402313232422 0.5452769994735718 0.2389950156211853 0.5442190170288086 0.2580239772796631 0.5300589799880981 0.23212897777557373 0.5291600227355957 0.2567110061645508 0.5105980038642883 0.23954802751541138 0.5114930272102356 0.26083898544311523 0.7234510183334351 0.2249460220336914 0.6871510148048401 0.22263598442077637 0.6362890005111694 0.2582870125770569 0.5850380063056946 0.2947409749031067 0.6357529759407043 0.29601502418518066 0.6339349746704102 0.33175402879714966 0.6831269860267639 0.3328099846839905 0.72359699010849 0.3323550224304199 0.5110459923744202 0.15155702829360962 0.511667013168335 0.07902699708938599 0.5263670086860657 0.1601560115814209 0.5263670086860657 0.07324200868606567 0.5368800163269043 0.15172898769378662 0.5395370125770569 0.07639002799987793 0.5752750039100647 0.14464998245239258 0.5725070238113403 0.10756802558898926 0.6322399973869324 0.1441749930381775 0.6327570080757141 0.10865700244903564 0.5454419851303101 0.2956629991531372 0.531158983707428 0.3012949824333191 0.5288249850273132 0.3613470196723938 0.5106059908866882 0.3463420271873474 0.5108529925346375 0.33824801445007324 0.6323840022087097 0.00434499979019165 0.6328740119934082 0.019747018814086914 0.5934140086174011 0.01728302240371704 0.5927550196647644 0.026652991771697998 0.5630980134010315 0.045773983001708984 0.5950610041618347 0.048246026039123535 0.5642489790916443 0.06388098001480103 0.6065319776535034 0.056568026542663574 0.63680100440979 0.25902998447418213 0.6848070025444031 0.257951021194458 0.6852719783782959 0.2574880123138428 0.7232750058174133 0.22303301095962524 0.7408519983291626 0.23586899042129517 0.6727349758148193 0.33705002069473267 0.6881189942359924 0.2597010135650635 0.6886190176010132 0.2962909936904907 0.7324600219726562 0.2618029713630676 0.7309190034866333 0.29538899660110474 0.7475929856300354 0.285739004611969 0.7289209961891174 0.29527997970581055 0.6626160144805908 0.008163988590240479 0.6412860155105591 0.035835981369018555 0.6467880010604858 0.04050999879837036 0.627776026725769 0.22255802154541016 0.6221650242805481 0.20334398746490479 0.6507729887962341 0.21973097324371338 0.656557023525238 0.19791799783706665 0.6729779839515686 0.20171797275543213 0.6670740246772766 0.1852089762687683 0.7231320142745972 0.33281898498535156 0.7230439782142639 0.3004549741744995 0.6834930181503296 0.3009200096130371 0.636322021484375 0.29246199131011963 0.6899979710578918 0.2963079810142517 0.7417849898338318 0.2486870288848877 0.7261260151863098 0.25950098037719727 0.7240809798240662 0.25907397270202637 0.6830549836158752 0.29903900623321533 0.7262570261955261 0.300961971282959 0.7399640083312988 0.30862998962402344 0.7393370270729065 0.3231629729270935 0.6357899904251099 0.3303689956665039 0.6726419925689697 0.3369060158729553 0.5129370093345642 0.2962939739227295 0.5958020091056824 0.19494199752807617 0.5645790100097656 0.22534900903701782 0.6263049840927124 0.16950297355651855 0.5698189735412598 0.17473602294921875 0.6359379887580872 0.18113398551940918 0.7168049812316895 0.16668301820755005 0.7041800022125244 0.17708498239517212 0.7173609733581543 0.1574609875679016 0.7029269933700562 0.15070199966430664 0.6782019734382629 0.14646202325820923 0.6781319975852966 0.11482000350952148 0.730754017829895 0.26114797592163086 0.748179018497467 0.2731819748878479 0.6346690058708191 0.0449410080909729 0.6332219839096069 0.0773320198059082 0.6244590282440186 0.043157994747161865 0.7085909843444824 0.3373349905014038 0.7234569787979126 0.34454798698425293 0.666670024394989 0.17753201723098755 0.6680219769477844 0.1503000259399414 0.7327799797058105 0.13742297887802124 0.7174969911575317 0.1460360288619995 0.7333880066871643 0.12380599975585938 0.7200800180435181 0.11662101745605469 0.668349027633667 0.0236319899559021 0.6816310286521912 0.04586297273635864 0.6798329949378967 0.07632100582122803 0.7179669737815857 0.07737398147583008 0.7173560261726379 0.04539597034454346 0.7351570129394531 0.06764101982116699 0.7342510223388672 0.05563002824783325 0.7407960295677185 0.10235798358917236 0.7226660251617432 0.11129701137542725 0.7413650155067444 0.09059202671051025 0.7244470119476318 0.07931602001190186 0.6848739981651306 0.11226099729537964 0.6848099827766418 0.07885998487472534 0.6899319887161255 0.2606610059738159 0.6093119978904724 0.2368689775466919</float_array>
                    <technique_common>
                        <accessor count="131" source="#uvarray0" stride="2">
                            <param name="S" type="float"/>
                            <param name="T" type="float"/>
                        </accessor>
                    </technique_common>
                </source>
                <vertices id="vertices0">
                    <input semantic="POSITION" source="#points0"/>
                </vertices>
                <polylist count="169" material="Material1">
                    <input offset="0" semantic="VERTEX" source="#vertices0"/>
                    <input offset="1" semantic="TEXCOORD" source="#uvs0" set="0"/>
                    <vcount>3 3 3 3 3 3 3 3 3 3 3 3 3 3 3 3 3 3 3 3 3 3 3 3 3 3 3 3 3 3 3 3 3 3 3 3 3 3 3 3 3 3 3 3 3 3 3 3 3 3 3 3 3 3 3 3 3 3 3 3 3 3 3 3 3 3 3 3 3 3 3 3 3 3 3 3 3 3 3 3 3 3 3 3 3 3 3 3 3 3 3 3 3 3 3 3 3 3 3 3 3 3 3 3 3 3 3 3 3 3 3 3 3 3 3 3 3 3 3 3 3 3 3 3 3 3 3 3 3 3 3 3 3 3 3 3 3 3 3 3 3 3 3 3 3 3 3 3 3 3 3 3 3 3 3 3 3 3 3 3 3 3 3 3 3 3 3 3 3</vcount>
                    <p>2 2 1 1 0 0 3 3 1 1 2 2 4 4 3 3 2 2 5 5 3 3 4 4 6 6 5 5 4 4 7 7 5 5 6 6 8 8 7 7 6 6 9 9 7 7 8 8 10 10 9 9 8 8 11 11 9 9 10 10 12 12 11 11 10 10 15 15 14 14 13 13 16 16 14 14 15 15 17 17 16 16 15 15 18 18 16 16 17 17 19 19 18 18 17 17 20 20 18 18 19 19 21 21 20 20 19 19 22 22 20 20 21 21 23 23 22 22 21 21 24 24 22 22 23 23 26 26 13 13 25 25 15 15 13 13 26 26 27 27 15 15 26 26 28 28 15 15 27 27 29 29 28 28 27 27 30 30 28 28 29 29 31 31 30 30 29 29 32 31 30 30 31 31 33 32 32 31 31 31 0 35 24 34 34 33 22 36 24 34 0 35 1 37 22 36 0 35 20 38 22 36 1 37 35 39 20 38 1 37 36 40 20 38 35 39 37 41 36 40 35 39 38 42 36 40 37 41 28 28 17 17 15 15 19 19 17 17 28 28 39 43 19 19 28 28 40 44 19 19 39 43 41 45 40 44 39 43 42 46 40 44 41 45 34 47 42 46 41 45 45 50 44 49 43 48 46 51 44 49 45 50 47 52 46 51 45 50 48 53 46 51 47 52 49 54 48 53 47 52 50 55 48 53 49 54 36 40 50 55 49 54 27 27 52 57 51 56 53 58 52 57 27 27 26 26 53 58 27 27 54 59 53 58 26 26 25 25 54 59 26 26 55 60 54 59 25 25 28 28 4 4 2 2 6 6 4 4 28 28 30 30 6 6 28 28 8 8 6 6 30 30 56 61 8 8 30 30 12 12 8 8 56 61 57 62 27 27 51 56 58 63 27 27 57 62 59 64 58 63 57 62 60 65 58 63 59 64 61 66 60 65 59 64 62 67 60 65 61 66 44 49 63 68 43 48 64 69 63 68 44 49 48 53 64 69 44 49 65 70 64 69 48 53 50 55 65 70 48 53 67 72 66 71 16 16 65 73 66 71 67 72 68 74 65 73 67 72 69 75 65 73 68 74 63 76 69 75 68 74 31 31 71 78 70 77 72 79 71 78 31 31 29 29 72 79 31 31 38 80 72 79 29 29 73 81 38 80 29 29 74 82 54 59 55 60 75 83 54 59 74 82 76 84 75 83 74 82 53 58 75 83 76 84 52 57 53 58 76 84 77 85 72 79 38 80 71 78 72 79 77 85 78 86 71 78 77 85 79 87 71 78 78 86 80 88 71 78 79 87 70 77 71 78 80 88 33 32 70 77 80 88 31 31 70 77 33 32 41 45 0 0 34 47 2 2 0 0 41 45 39 43 2 2 41 45 28 28 2 2 39 43 37 89 30 30 32 31 56 61 30 30 37 89 81 90 56 61 37 89 12 12 56 61 81 90 40 44 21 21 19 19 82 91 21 21 40 44 42 46 82 91 40 44 18 18 67 72 16 16 45 92 67 72 18 18 47 93 45 92 18 18 35 39 5 94 37 41 3 95 5 94 35 39 1 37 3 95 35 39 58 63 29 29 27 27 73 81 29 29 58 63 62 67 73 81 58 63 45 92 68 74 67 72 43 96 68 74 45 92 83 99 9 98 11 97 84 100 9 98 83 99 77 102 37 41 32 101 38 42 37 41 77 102 86 104 59 64 85 103 61 66 59 64 86 104 66 107 51 106 14 105 50 55 51 106 66 107 83 109 12 12 84 108 11 11 12 12 83 109 84 100 7 110 9 98 81 111 7 110 84 100 81 111 5 94 7 110 37 41 5 94 81 111 79 114 33 113 80 112 78 115 33 113 79 114 51 106 36 40 38 42 50 55 36 40 51 106 78 115 32 101 33 113 77 102 32 101 78 115 64 69 69 116 63 68 65 70 69 116 64 69 51 106 13 117 14 105 52 118 13 117 51 106 20 38 49 54 47 52 36 40 49 54 20 38 76 119 13 117 52 118 25 120 13 117 76 119 55 122 76 119 74 121 25 120 76 119 55 122 86 125 62 124 61 123 85 126 62 124 86 125 85 126 73 127 62 124 87 128 73 127 85 126 87 129 57 62 51 56 59 64 57 62 87 129 87 128 38 42 73 127 51 106 38 42 87 128 12 12 10 10 8 8 81 90 84 108 12 12 54 59 75 83 53 58 44 49 46 51 48 53 66 71 14 14 16 16 87 129 85 103 59 64 82 91 23 23 21 21 63 76 68 74 43 96 50 130 66 71 65 73 20 20 47 93 18 18 58 63 60 65 62 67</p>
                </polylist>
            </mesh>
        </geometry>
        <geometry id="mesh0_1">
            <mesh>
                <source id="points0_1">
                    <float_array id="pointarray0_1" count="264">1.6240234375 9.8955078125 -7.0888671875 3.8681640625 7.6484375 -5.54296875 4.1650390625 8.5205078125 3.0322265625 9.9794921875 11.4443359375 -2.1220703125 11.892578125 12.296875 8.8447265625 15.0771484375 10.3544921875 6.4580078125 19.314453125 12.021484375 9.6669921875 18.0244140625 11.583984375 3.6005859375 22.9599609375 11.525390625 0.9892578125 16.54296875 11.2861328125 1.787109375 13.7275390625 10.748046875 -1.283203125 13.3427734375 9.3701171875 1.3115234375 14.353515625 6.7412109375 -0.7529296875 18.37890625 -8.8466796875 1.765625 15.888671875 -9.283203125 4.1806640625 19.107421875 -10.626953125 9.306640625 13.4296875 -11.0166015625 5.5712890625 8.44140625 -9.7822265625 6.86328125 11.5634765625 -10.384765625 0.75390625 4.4658203125 -7.72265625 2.92578125 4.2998046875 -4.78125 -6.927734375 2.0673828125 -8.7841796875 3.3134765625 1.92578125 -4.984375 -8.623046875 -0.9990234375 -7.6376953125 2.671875 -0.857421875 -4.345703125 -6.86328125 18.3505859375 -8.8232421875 1.18359375 23.9892578125 -9.3037109375 0.072265625 20.62890625 -5.4716796875 11.3681640625 8.91796875 0.89453125 11.5322265625 20.4765625 0.703125 11.4580078125 19.5859375 6.6416015625 10.7119140625 24.9501953125 6.7421875 0.564453125 19.4482421875 6.7470703125 3.0615234375 18.2587890625 6.66796875 2.169921875 -0.958984375 7.6201171875 -5.755859375 11.404296875 6.48046875 -4.2783203125 7.8095703125 0.6865234375 -5.8759765625 15.98828125 6.376953125 5.0634765625 18.8232421875 0.5419921875 4.8427734375 4.4921875 1.037109375 7.1064453125 2.2412109375 1.9072265625 8.6572265625 1.873046875 11.19140625 3.564453125 -0.998046875 8.87109375 2.9736328125 23.8173828125 -7.0390625 -4.4912109375 21.146484375 -6.77734375 -7.1328125 17.82421875 -11.0927734375 -2.501953125 16.28125 -10.462890625 -5.8701171875 10.19140625 -9.32421875 -5.2255859375 14.7548828125 -7.10546875 -6.583984375 9.150390625 -6.552734375 -6.3427734375 16.3134765625 -4.9228515625 -3.6015625 15.6943359375 -3.9560546875 4.8486328125 18.83984375 -3.955078125 2.8671875 24.9609375 -4.0595703125 1.10546875 15.9619140625 -8.2353515625 -3.1904296875 15.208984375 -6.9541015625 1.296875 22.78125 7.1298828125 1.3779296875 25.205078125 -4.02734375 -0.33203125 25.34765625 1.611328125 0.0859375 14.384765625 -3.1904296875 -2.5927734375 14.779296875 1.9833984375 -2.267578125 14.3359375 0.2578125 0.4384765625 18.8388671875 1.6591796875 -0.119140625 24.2861328125 -2.1171875 -4.880859375 18.9365234375 -4.7216796875 -6.2001953125 18.7568359375 -3.005859375 -1.4521484375 18.408203125 -4.2724609375 -0.7216796875 20.078125 -6.8330078125 0.515625 22.33203125 -2.7099609375 -0.5087890625 22.1240234375 -0.4287109375 -3.3515625 14.091796875 6.703125 -1.3115234375 13.83984375 1.6982421875 -1.5068359375 25.22265625 1.8115234375 0.419921875 19.7607421875 1.5244140625 2.912109375 14.3017578125 -4.685546875 0.1123046875 15.681640625 -2.6337890625 -2.357421875 18.37890625 -3.5732421875 1.8251953125 19.2431640625 1.52734375 3.2119140625 17.8232421875 1.814453125 2.3837890625 15.07421875 2.998046875 2.92578125 13.77734375 5.232421875 1.7314453125 17.7431640625 7.0888671875 3.9873046875 -0.6298828125 1.134765625 7.173828125 14.3447265625 8 2.62890625 17.05078125 6.970703125 2.1884765625 18.658203125 -3.62109375 -0.2626953125 15.87109375 -1.81640625 1.36328125 19.4501953125 -3.9658203125 2.5234375</float_array>
                    <technique_common>
                        <accessor count="88" source="#pointarray0_1" stride="3">
                            <param name="X" type="float"/>
                            <param name="Y" type="float"/>
                            <param name="Z" type="float"/>
                        </accessor>
                    </technique_common>
                </source>
                <source id="uvs0_1">
                    <float_array id="uvarray0_1" count="262">0.1563200056552887 0.9125989973545074 0.20874600112438202 0.8749199956655502 0.21567699313163757 0.8895429968833923 0.3192879855632782 0.9385830014944077 0.4221769869327545 0.9528720006346703 0.533519983291626 0.9241020008921623 0.5410839915275574 0.9440499991178513 0.6866139769554138 0.9463200010359287 0.6883270144462585 0.945117998868227 0.8288739919662476 0.945082999765873 0.830606997013092 0.9426660016179085 0.876757025718689 0.9162999987602234 0.8259350061416626 0.8745270073413849 0.7433559894561768 0.5819750130176544 0.5652430057525635 0.5794219970703125 0.5512509942054749 0.5748020112514496 0.4393639862537384 0.5618599951267242 0.3330180048942566 0.5825609862804413 0.29699400067329407 0.5541020035743713 0.2227180004119873 0.6171090006828308 0.21882399916648865 0.6664460003376007 0.1666799932718277 0.5993059873580933 0.16336700320243835 0.6630400121212006 0.09501300007104874 0.6185410022735596 0.09831000119447708 0.6737439930438995 0.8788459897041321 0.5806820094585419 0.7451679706573486 0.5746940076351166 0.5578709840774536 0.6671270132064819 0.36913999915122986 0.7616430073976517 0.5558969974517822 0.76494500041008 0.5491999983787537 0.8576070070266724 0.7303500175476074 0.8603460043668747 0.8793830275535583 0.8591669946908951 0.09666299819946289 0.39040398597717285 0.09895099699497223 0.20235300064086914 0.15308299660682678 0.41269999742507935 0.15308299660682678 0.18735402822494507 0.1917950063943863 0.3908489942550659 0.20158100128173828 0.195514976978302 0.33318498730659485 0.372497022151947 0.3229930102825165 0.2763519883155823 0.5429610013961792 0.3712639808654785 0.5448629856109619 0.2791749835014343 0.22332799434661865 0.7640330046415329 0.17072899639606476 0.7786359935998917 0.16213199496269226 0.9343359991908073 0.09504300355911255 0.8954320028424263 0.09595300257205963 0.874443992972374 0.543491005897522 0.008723020553588867 0.5452929735183716 0.04865598678588867 0.39998099207878113 0.042266011238098145 0.39755699038505554 0.06656098365783691 0.28834399580955505 0.11613601446151733 0.406046986579895 0.12254601716995239 0.2925809919834137 0.163083016872406 0.44828900694847107 0.14412200450897217 0.5597540140151978 0.6690529882907867 0.736536979675293 0.6662569940090179 0.7382490038871765 0.6650550067424774 0.8781970143318176 0.5757229924201965 0.9429240226745605 0.6090019941329956 0.6920830011367798 0.8713400065898895 0.7487350106239319 0.6707940101623535 0.7505760192871094 0.7656629979610443 0.9120190143585205 0.6762419939041138 0.9063469767570496 0.7633240073919296 0.9677469730377197 0.738303005695343 0.8989859819412231 0.7630410045385361 0.6548190116882324 0.018621981143951416 0.5762720108032227 0.09036898612976074 0.5965319871902466 0.10248798131942749 0.5265200138092041 0.5744900107383728 0.5058590173721313 0.5246739983558655 0.6112059950828552 0.5671609938144684 0.6325070261955261 0.5106070041656494 0.6929789781570435 0.5204580128192902 0.671235978603363 0.47765398025512695 0.8776699900627136 0.8603689968585968 0.8773459792137146 0.7764569967985153 0.7316989898681641 0.7776650041341782 0.5579910278320312 0.755733996629715 0.7556549906730652 0.7657050043344498 0.9463599920272827 0.6422359943389893 0.888696014881134 0.6702739894390106 0.881164014339447 0.669169008731842 0.730085015296936 0.7727870047092438 0.8891770243644714 0.77777299284935 0.9396529793739319 0.797654002904892 0.937345027923584 0.8353330045938492 0.5560320019721985 0.8540160059928894 0.6917409896850586 0.8709660023450851 0.10362699627876282 0.7656700015068054 0.4087759852409363 0.5028890073299408 0.2937979996204376 0.5817280113697052 0.521103024482727 0.4369320273399353 0.31309300661087036 0.450501024723053 0.5565779805183411 0.4670889973640442 0.8543699979782104 0.42962199449539185 0.8078780174255371 0.45659101009368896 0.856419026851654 0.40571099519729614 0.8032649755477905 0.3881880044937134 0.712215006351471 0.37719398736953735 0.7119579911231995 0.29515302181243896 0.9057400226593018 0.6745440065860748 0.9699040055274963 0.7057470083236694 0.551904022693634 0.11397498846054077 0.5465750098228455 0.19795799255371094 0.5143049955368042 0.10935497283935547 0.8241230249404907 0.872078999876976 0.878866970539093 0.8907810002565384 0.6697499752044678 0.45774900913238525 0.6747289896011353 0.3871449828147888 0.9131979942321777 0.35375797748565674 0.8569200038909912 0.37608999013900757 0.9154390096664429 0.3184540271759033 0.8664299845695496 0.2998250126838684 0.6759300231933594 0.05872797966003418 0.7248439788818359 0.11636799573898315 0.718222975730896 0.19533801078796387 0.8586500287055969 0.19806599617004395 0.8563989996910095 0.11515599489212036 0.9219509959220886 0.1728309988975525 0.9186149835586548 0.14169102907180786 0.9427170157432556 0.2628430128097534 0.8759539723396301 0.28602200746536255 0.944811999797821 0.2323390245437622 0.8825110197067261 0.20310300588607788 0.7367849946022034 0.2885180115699768 0.7365480065345764 0.20191997289657593 0.7554100155830383 0.6732819974422455 0.4585280120372772 0.6115959882736206</float_array>
                    <technique_common>
                        <accessor count="131" source="#uvarray0_1" stride="2">
                            <param name="S" type="float"/>
                            <param name="T" type="float"/>
                        </accessor>
                    </technique_common>
                </source>
                <vertices id="vertices0_1">
                    <input semantic="POSITION" source="#points0_1"/>
                </vertices>
                <polylist count="169" material="Material1">
                    <input offset="0" semantic="VERTEX" source="#vertices0_1"/>
                    <input offset="1" semantic="TEXCOORD" source="#uvs0_1" set="0"/>
                    <vcount>3 3 3 3 3 3 3 3 3 3 3 3 3 3 3 3 3 3 3 3 3 3 3 3 3 3 3 3 3 3 3 3 3 3 3 3 3 3 3 3 3 3 3 3 3 3 3 3 3 3 3 3 3 3 3 3 3 3 3 3 3 3 3 3 3 3 3 3 3 3 3 3 3 3 3 3 3 3 3 3 3 3 3 3 3 3 3 3 3 3 3 3 3 3 3 3 3 3 3 3 3 3 3 3 3 3 3 3 3 3 3 3 3 3 3 3 3 3 3 3 3 3 3 3 3 3 3 3 3 3 3 3 3 3 3 3 3 3 3 3 3 3 3 3 3 3 3 3 3 3 3 3 3 3 3 3 3 3 3 3 3 3 3 3 3 3 3 3 3</vcount>
                    <p>2 2 1 1 0 0 3 3 1 1 2 2 4 4 3 3 2 2 5 5 3 3 4 4 6 6 5 5 4 4 7 7 5 5 6 6 8 8 7 7 6 6 9 9 7 7 8 8 10 10 9 9 8 8 11 11 9 9 10 10 12 12 11 11 10 10 15 15 14 14 13 13 16 16 14 14 15 15 17 17 16 16 15 15 18 18 16 16 17 17 19 19 18 18 17 17 20 20 18 18 19 19 21 21 20 20 19 19 22 22 20 20 21 21 23 23 22 22 21 21 24 24 22 22 23 23 26 26 13 13 25 25 15 15 13 13 26 26 27 27 15 15 26 26 28 28 15 15 27 27 29 29 28 28 27 27 30 30 28 28 29 29 31 31 30 30 29 29 32 31 30 30 31 31 33 32 32 31 31 31 0 35 24 34 34 33 22 36 24 34 0 35 1 37 22 36 0 35 20 38 22 36 1 37 35 39 20 38 1 37 36 40 20 38 35 39 37 41 36 40 35 39 38 42 36 40 37 41 28 28 17 17 15 15 19 19 17 17 28 28 39 43 19 19 28 28 40 44 19 19 39 43 41 45 40 44 39 43 42 46 40 44 41 45 34 47 42 46 41 45 45 50 44 49 43 48 46 51 44 49 45 50 47 52 46 51 45 50 48 53 46 51 47 52 49 54 48 53 47 52 50 55 48 53 49 54 36 40 50 55 49 54 27 27 52 57 51 56 53 58 52 57 27 27 26 26 53 58 27 27 54 59 53 58 26 26 25 25 54 59 26 26 55 60 54 59 25 25 28 28 4 4 2 2 6 6 4 4 28 28 30 30 6 6 28 28 8 8 6 6 30 30 56 61 8 8 30 30 12 12 8 8 56 61 57 62 27 27 51 56 58 63 27 27 57 62 59 64 58 63 57 62 60 65 58 63 59 64 61 66 60 65 59 64 62 67 60 65 61 66 44 49 63 68 43 48 64 69 63 68 44 49 48 53 64 69 44 49 65 70 64 69 48 53 50 55 65 70 48 53 67 72 66 71 16 16 65 73 66 71 67 72 68 74 65 73 67 72 69 75 65 73 68 74 63 76 69 75 68 74 31 31 71 78 70 77 72 79 71 78 31 31 29 29 72 79 31 31 38 80 72 79 29 29 73 81 38 80 29 29 74 82 54 59 55 60 75 83 54 59 74 82 76 84 75 83 74 82 53 58 75 83 76 84 52 57 53 58 76 84 77 85 72 79 38 80 71 78 72 79 77 85 78 86 71 78 77 85 79 87 71 78 78 86 80 88 71 78 79 87 70 77 71 78 80 88 33 32 70 77 80 88 31 31 70 77 33 32 41 45 0 0 34 47 2 2 0 0 41 45 39 43 2 2 41 45 28 28 2 2 39 43 37 89 30 30 32 31 56 61 30 30 37 89 81 90 56 61 37 89 12 12 56 61 81 90 40 44 21 21 19 19 82 91 21 21 40 44 42 46 82 91 40 44 18 18 67 72 16 16 45 92 67 72 18 18 47 93 45 92 18 18 35 39 5 94 37 41 3 95 5 94 35 39 1 37 3 95 35 39 58 63 29 29 27 27 73 81 29 29 58 63 62 67 73 81 58 63 45 92 68 74 67 72 43 96 68 74 45 92 83 99 9 98 11 97 84 100 9 98 83 99 77 102 37 41 32 101 38 42 37 41 77 102 86 104 59 64 85 103 61 66 59 64 86 104 66 107 51 106 14 105 50 55 51 106 66 107 83 109 12 12 84 108 11 11 12 12 83 109 84 100 7 110 9 98 81 111 7 110 84 100 81 111 5 94 7 110 37 41 5 94 81 111 79 114 33 113 80 112 78 115 33 113 79 114 51 106 36 40 38 42 50 55 36 40 51 106 78 115 32 101 33 113 77 102 32 101 78 115 64 69 69 116 63 68 65 70 69 116 64 69 51 106 13 117 14 105 52 118 13 117 51 106 20 38 49 54 47 52 36 40 49 54 20 38 76 119 13 117 52 118 25 120 13 117 76 119 55 122 76 119 74 121 25 120 76 119 55 122 86 125 62 124 61 123 85 126 62 124 86 125 85 126 73 127 62 124 87 128 73 127 85 126 87 129 57 62 51 56 59 64 57 62 87 129 87 128 38 42 73 127 51 106 38 42 87 128 12 12 10 10 8 8 81 90 84 108 12 12 54 59 75 83 53 58 44 49 46 51 48 53 66 71 14 14 16 16 87 129 85 103 59 64 82 91 23 23 21 21 63 76 68 74 43 96 50 130 66 71 65 73 20 20 47 93 18 18 58 63 60 65 62 67</p>
                </polylist>
            </mesh>
        </geometry>
        <geometry id="mesh0_2">
            <mesh>
                <source id="points0_2">
                    <float_array id="pointarray0_2" count="264">1.6240234375 9.8955078125 -7.0888671875 3.8681640625 7.6484375 -5.54296875 4.1650390625 8.5205078125 3.0322265625 9.9794921875 11.4443359375 -2.1220703125 11.892578125 12.296875 8.8447265625 15.0771484375 10.3544921875 6.4580078125 19.314453125 12.021484375 9.6669921875 18.0244140625 11.583984375 3.6005859375 22.9599609375 11.525390625 0.9892578125 16.54296875 11.2861328125 1.787109375 13.7275390625 10.748046875 -1.283203125 13.3427734375 9.3701171875 1.3115234375 14.353515625 6.7412109375 -0.7529296875 18.37890625 -8.8466796875 1.765625 15.888671875 -9.283203125 4.1806640625 19.107421875 -10.626953125 9.306640625 13.4296875 -11.0166015625 5.5712890625 8.44140625 -9.7822265625 6.86328125 11.5634765625 -10.384765625 0.75390625 4.4658203125 -7.72265625 2.92578125 4.2998046875 -4.78125 -6.927734375 2.0673828125 -8.7841796875 3.3134765625 1.92578125 -4.984375 -8.623046875 -0.9990234375 -7.6376953125 2.671875 -0.857421875 -4.345703125 -6.86328125 18.3505859375 -8.8232421875 1.18359375 23.9892578125 -9.3037109375 0.072265625 20.62890625 -5.4716796875 11.3681640625 8.91796875 0.89453125 11.5322265625 20.4765625 0.703125 11.4580078125 19.5859375 6.6416015625 10.7119140625 24.9501953125 6.7421875 0.564453125 19.4482421875 6.7470703125 3.0615234375 18.2587890625 6.66796875 2.169921875 -0.958984375 7.6201171875 -5.755859375 11.404296875 6.48046875 -4.2783203125 7.8095703125 0.6865234375 -5.8759765625 15.98828125 6.376953125 5.0634765625 18.8232421875 0.5419921875 4.8427734375 4.4921875 1.037109375 7.1064453125 2.2412109375 1.9072265625 8.6572265625 1.873046875 11.19140625 3.564453125 -0.998046875 8.87109375 2.9736328125 23.8173828125 -7.0390625 -4.4912109375 21.146484375 -6.77734375 -7.1328125 17.82421875 -11.0927734375 -2.501953125 16.28125 -10.462890625 -5.8701171875 10.19140625 -9.32421875 -5.2255859375 14.7548828125 -7.10546875 -6.583984375 9.150390625 -6.552734375 -6.3427734375 16.3134765625 -4.9228515625 -3.6015625 15.6943359375 -3.9560546875 4.8486328125 18.83984375 -3.955078125 2.8671875 24.9609375 -4.0595703125 1.10546875 15.9619140625 -8.2353515625 -3.1904296875 15.208984375 -6.9541015625 1.296875 22.78125 7.1298828125 1.3779296875 25.205078125 -4.02734375 -0.33203125 25.34765625 1.611328125 0.0859375 14.384765625 -3.1904296875 -2.5927734375 14.779296875 1.9833984375 -2.267578125 14.3359375 0.2578125 0.4384765625 18.8388671875 1.6591796875 -0.119140625 24.2861328125 -2.1171875 -4.880859375 18.9365234375 -4.7216796875 -6.2001953125 18.7568359375 -3.005859375 -1.4521484375 18.408203125 -4.2724609375 -0.7216796875 20.078125 -6.8330078125 0.515625 22.33203125 -2.7099609375 -0.5087890625 22.1240234375 -0.4287109375 -3.3515625 14.091796875 6.703125 -1.3115234375 13.83984375 1.6982421875 -1.5068359375 25.22265625 1.8115234375 0.419921875 19.7607421875 1.5244140625 2.912109375 14.3017578125 -4.685546875 0.1123046875 15.681640625 -2.6337890625 -2.357421875 18.37890625 -3.5732421875 1.8251953125 19.2431640625 1.52734375 3.2119140625 17.8232421875 1.814453125 2.3837890625 15.07421875 2.998046875 2.92578125 13.77734375 5.232421875 1.7314453125 17.7431640625 7.0888671875 3.9873046875 -0.6298828125 1.134765625 7.173828125 14.3447265625 8 2.62890625 17.05078125 6.970703125 2.1884765625 18.658203125 -3.62109375 -0.2626953125 15.87109375 -1.81640625 1.36328125 19.4501953125 -3.9658203125 2.5234375</float_array>
                    <technique_common>
                        <accessor count="88" source="#pointarray0_2" stride="3">
                            <param name="X" type="float"/>
                            <param name="Y" type="float"/>
                            <param name="Z" type="float"/>
                        </accessor>
                    </technique_common>
                </source>
                <source id="uvs0_2">
                    <float_array id="uvarray0_2" count="262">0.5272459983825684 0.35296398401260376 0.5414829850196838 0.3384310007095337 0.5433650016784668 0.3440709710121155 0.5715010166168213 0.3629850149154663 0.5994409918785095 0.36849600076675415 0.6296769976615906 0.35740000009536743 0.6317300200462341 0.36509400606155396 0.6712499856948853 0.3659690022468567 0.6717150211334229 0.36550599336624146 0.7098810076713562 0.3654929995536804 0.7103520035743713 0.36456000804901123 0.7228839993476868 0.3543909788131714 0.7090830206871033 0.33827900886535645 0.6866580247879028 0.2254440188407898 0.6382910013198853 0.22446000576019287 0.6344919800758362 0.22267800569534302 0.6041079759597778 0.2176859974861145 0.5752289891242981 0.22567099332809448 0.5654469728469849 0.21469402313232422 0.5452769994735718 0.2389950156211853 0.5442190170288086 0.2580239772796631 0.5300589799880981 0.23212897777557373 0.5291600227355957 0.2567110061645508 0.5105980038642883 0.23954802751541138 0.5114930272102356 0.26083898544311523 0.7234510183334351 0.2249460220336914 0.6871510148048401 0.22263598442077637 0.6362890005111694 0.2582870125770569 0.5850380063056946 0.2947409749031067 0.6357529759407043 0.29601502418518066 0.6339349746704102 0.33175402879714966 0.6831269860267639 0.3328099846839905 0.72359699010849 0.3323550224304199 0.5110459923744202 0.15155702829360962 0.511667013168335 0.07902699708938599 0.5263670086860657 0.1601560115814209 0.5263670086860657 0.07324200868606567 0.5368800163269043 0.15172898769378662 0.5395370125770569 0.07639002799987793 0.5752750039100647 0.14464998245239258 0.5725070238113403 0.10756802558898926 0.6322399973869324 0.1441749930381775 0.6327570080757141 0.10865700244903564 0.5454419851303101 0.2956629991531372 0.531158983707428 0.3012949824333191 0.5288249850273132 0.3613470196723938 0.5106059908866882 0.3463420271873474 0.5108529925346375 0.33824801445007324 0.6323840022087097 0.00434499979019165 0.6328740119934082 0.019747018814086914 0.5934140086174011 0.01728302240371704 0.5927550196647644 0.026652991771697998 0.5630980134010315 0.045773983001708984 0.5950610041618347 0.048246026039123535 0.5642489790916443 0.06388098001480103 0.6065319776535034 0.056568026542663574 0.63680100440979 0.25902998447418213 0.6848070025444031 0.257951021194458 0.6852719783782959 0.2574880123138428 0.7232750058174133 0.22303301095962524 0.7408519983291626 0.23586899042129517 0.6727349758148193 0.33705002069473267 0.6881189942359924 0.2597010135650635 0.6886190176010132 0.2962909936904907 0.7324600219726562 0.2618029713630676 0.7309190034866333 0.29538899660110474 0.7475929856300354 0.285739004611969 0.7289209961891174 0.29527997970581055 0.6626160144805908 0.008163988590240479 0.6412860155105591 0.035835981369018555 0.6467880010604858 0.04050999879837036 0.627776026725769 0.22255802154541016 0.6221650242805481 0.20334398746490479 0.6507729887962341 0.21973097324371338 0.656557023525238 0.19791799783706665 0.6729779839515686 0.20171797275543213 0.6670740246772766 0.1852089762687683 0.7231320142745972 0.33281898498535156 0.7230439782142639 0.3004549741744995 0.6834930181503296 0.3009200096130371 0.636322021484375 0.29246199131011963 0.6899979710578918 0.2963079810142517 0.7417849898338318 0.2486870288848877 0.7261260151863098 0.25950098037719727 0.7240809798240662 0.25907397270202637 0.6830549836158752 0.29903900623321533 0.7262570261955261 0.300961971282959 0.7399640083312988 0.30862998962402344 0.7393370270729065 0.3231629729270935 0.6357899904251099 0.3303689956665039 0.6726419925689697 0.3369060158729553 0.5129370093345642 0.2962939739227295 0.5958020091056824 0.19494199752807617 0.5645790100097656 0.22534900903701782 0.6263049840927124 0.16950297355651855 0.5698189735412598 0.17473602294921875 0.6359379887580872 0.18113398551940918 0.7168049812316895 0.16668301820755005 0.7041800022125244 0.17708498239517212 0.7173609733581543 0.1574609875679016 0.7029269933700562 0.15070199966430664 0.6782019734382629 0.14646202325820923 0.6781319975852966 0.11482000350952148 0.730754017829895 0.26114797592163086 0.748179018497467 0.2731819748878479 0.6346690058708191 0.0449410080909729 0.6332219839096069 0.0773320198059082 0.6244590282440186 0.043157994747161865 0.7085909843444824 0.3373349905014038 0.7234569787979126 0.34454798698425293 0.666670024394989 0.17753201723098755 0.6680219769477844 0.1503000259399414 0.7327799797058105 0.13742297887802124 0.7174969911575317 0.1460360288619995 0.7333880066871643 0.12380599975585938 0.7200800180435181 0.11662101745605469 0.668349027633667 0.0236319899559021 0.6816310286521912 0.04586297273635864 0.6798329949378967 0.07632100582122803 0.7179669737815857 0.07737398147583008 0.7173560261726379 0.04539597034454346 0.7351570129394531 0.06764101982116699 0.7342510223388672 0.05563002824783325 0.7407960295677185 0.10235798358917236 0.7226660251617432 0.11129701137542725 0.7413650155067444 0.09059202671051025 0.7244470119476318 0.07931602001190186 0.6848739981651306 0.11226099729537964 0.6848099827766418 0.07885998487472534 0.6899319887161255 0.2606610059738159 0.6093119978904724 0.2368689775466919</float_array>
                    <technique_common>
                        <accessor count="131" source="#uvarray0_2" stride="2">
                            <param name="S" type="float"/>
                            <param name="T" type="float"/>
                        </accessor>
                    </technique_common>
                </source>
                <vertices id="vertices0_2">
                    <input semantic="POSITION" source="#points0_2"/>
                </vertices>
                <polylist count="169" material="Material1">
                    <input offset="0" semantic="VERTEX" source="#vertices0_2"/>
                    <input offset="1" semantic="TEXCOORD" source="#uvs0_2" set="0"/>
                    <vcount>3 3 3 3 3 3 3 3 3 3 3 3 3 3 3 3 3 3 3 3 3 3 3 3 3 3 3 3 3 3 3 3 3 3 3 3 3 3 3 3 3 3 3 3 3 3 3 3 3 3 3 3 3 3 3 3 3 3 3 3 3 3 3 3 3 3 3 3 3 3 3 3 3 3 3 3 3 3 3 3 3 3 3 3 3 3 3 3 3 3 3 3 3 3 3 3 3 3 3 3 3 3 3 3 3 3 3 3 3 3 3 3 3 3 3 3 3 3 3 3 3 3 3 3 3 3 3 3 3 3 3 3 3 3 3 3 3 3 3 3 3 3 3 3 3 3 3 3 3 3 3 3 3 3 3 3 3 3 3 3 3 3 3 3 3 3 3 3 3</vcount>
                    <p>2 2 1 1 0 0 3 3 1 1 2 2 4 4 3 3 2 2 5 5 3 3 4 4 6 6 5 5 4 4 7 7 5 5 6 6 8 8 7 7 6 6 9 9 7 7 8 8 10 10 9 9 8 8 11 11 9 9 10 10 12 12 11 11 10 10 15 15 14 14 13 13 16 16 14 14 15 15 17 17 16 16 15 15 18 18 16 16 17 17 19 19 18 18 17 17 20 20 18 18 19 19 21 21 20 20 19 19 22 22 20 20 21 21 23 23 22 22 21 21 24 24 22 22 23 23 26 26 13 13 25 25 15 15 13 13 26 26 27 27 15 15 26 26 28 28 15 15 27 27 29 29 28 28 27 27 30 30 28 28 29 29 31 31 30 30 29 29 32 31 30 30 31 31 33 32 32 31 31 31 0 35 24 34 34 33 22 36 24 34 0 35 1 37 22 36 0 35 20 38 22 36 1 37 35 39 20 38 1 37 36 40 20 38 35 39 37 41 36 40 35 39 38 42 36 40 37 41 28 28 17 17 15 15 19 19 17 17 28 28 39 43 19 19 28 28 40 44 19 19 39 43 41 45 40 44 39 43 42 46 40 44 41 45 34 47 42 46 41 45 45 50 44 49 43 48 46 51 44 49 45 50 47 52 46 51 45 50 48 53 46 51 47 52 49 54 48 53 47 52 50 55 48 53 49 54 36 40 50 55 49 54 27 27 52 57 51 56 53 58 52 57 27 27 26 26 53 58 27 27 54 59 53 58 26 26 25 25 54 59 26 26 55 60 54 59 25 25 28 28 4 4 2 2 6 6 4 4 28 28 30 30 6 6 28 28 8 8 6 6 30 30 56 61 8 8 30 30 12 12 8 8 56 61 57 62 27 27 51 56 58 63 27 27 57 62 59 64 58 63 57 62 60 65 58 63 59 64 61 66 60 65 59 64 62 67 60 65 61 66 44 49 63 68 43 48 64 69 63 68 44 49 48 53 64 69 44 49 65 70 64 69 48 53 50 55 65 70 48 53 67 72 66 71 16 16 65 73 66 71 67 72 68 74 65 73 67 72 69 75 65 73 68 74 63 76 69 75 68 74 31 31 71 78 70 77 72 79 71 78 31 31 29 29 72 79 31 31 38 80 72 79 29 29 73 81 38 80 29 29 74 82 54 59 55 60 75 83 54 59 74 82 76 84 75 83 74 82 53 58 75 83 76 84 52 57 53 58 76 84 77 85 72 79 38 80 71 78 72 79 77 85 78 86 71 78 77 85 79 87 71 78 78 86 80 88 71 78 79 87 70 77 71 78 80 88 33 32 70 77 80 88 31 31 70 77 33 32 41 45 0 0 34 47 2 2 0 0 41 45 39 43 2 2 41 45 28 28 2 2 39 43 37 89 30 30 32 31 56 61 30 30 37 89 81 90 56 61 37 89 12 12 56 61 81 90 40 44 21 21 19 19 82 91 21 21 40 44 42 46 82 91 40 44 18 18 67 72 16 16 45 92 67 72 18 18 47 93 45 92 18 18 35 39 5 94 37 41 3 95 5 94 35 39 1 37 3 95 35 39 58 63 29 29 27 27 73 81 29 29 58 63 62 67 73 81 58 63 45 92 68 74 67 72 43 96 68 74 45 92 83 99 9 98 11 97 84 100 9 98 83 99 77 102 37 41 32 101 38 42 37 41 77 102 86 104 59 64 85 103 61 66 59 64 86 104 66 107 51 106 14 105 50 55 51 106 66 107 83 109 12 12 84 108 11 11 12 12 83 109 84 100 7 110 9 98 81 111 7 110 84 100 81 111 5 94 7 110 37 41 5 94 81 111 79 114 33 113 80 112 78 115 33 113 79 114 51 106 36 40 38 42 50 55 36 40 51 106 78 115 32 101 33 113 77 102 32 101 78 115 64 69 69 116 63 68 65 70 69 116 64 69 51 106 13 117 14 105 52 118 13 117 51 106 20 38 49 54 47 52 36 40 49 54 20 38 76 119 13 117 52 118 25 120 13 117 76 119 55 122 76 119 74 121 25 120 76 119 55 122 86 125 62 124 61 123 85 126 62 124 86 125 85 126 73 127 62 124 87 128 73 127 85 126 87 129 57 62 51 56 59 64 57 62 87 129 87 128 38 42 73 127 51 106 38 42 87 128 12 12 10 10 8 8 81 90 84 108 12 12 54 59 75 83 53 58 44 49 46 51 48 53 66 71 14 14 16 16 87 129 85 103 59 64 82 91 23 23 21 21 63 76 68 74 43 96 50 130 66 71 65 73 20 20 47 93 18 18 58 63 60 65 62 67</p>
                </polylist>
            </mesh>
        </geometry>
    </library_geometries>
    <library_visual_scenes>
        <visual_scene id="VisualSceneNode">
            <node id="node0" name="m0" type="NODE">
                <instance_geometry url="#mesh0">
                    <bind_material>
                        <technique_common>
                            <instance_material symbol="Material1" target="#mat0">
                                <bind_vertex_input semantic="UVSET0" input_semantic="TEXCOORD" input_set="0"></bind_vertex_input>
                            </instance_material>
                        </technique_common>
                    </bind_material>
                </instance_geometry>
            </node>
            <node id="node0_1" name="m0_1" type="NODE">
                <instance_geometry url="#mesh0_1">
                    <bind_material>
                        <technique_common>
                            <instance_material symbol="Material1" target="#mat0_1">
                                <bind_vertex_input semantic="UVSET0" input_semantic="TEXCOORD" input_set="0"></bind_vertex_input>
                            </instance_material>
                        </technique_common>
                    </bind_material>
                </instance_geometry>
            </node>
            <node id="node0_2" name="m0_2" type="NODE">
                <instance_geometry url="#mesh0_2">
                    <bind_material>
                        <technique_common>
                            <instance_material symbol="Material1" target="#mat0_2">
                                <bind_vertex_input semantic="UVSET0" input_semantic="TEXCOORD" input_set="0"></bind_vertex_input>
                            </instance_material>
                        </technique_common>
                    </bind_material>
                </instance_geometry>
            </node>
        </visual_scene>
    </library_visual_scenes>
    <scene>
        <instance_visual_scene url="#VisualSceneNode"></instance_visual_scene>
    </scene>
</COLLADA>
