<?xml version="1.0"?>
<COLLADA xmlns="http://www.collada.org/2005/11/COLLADASchema" version="1.4.1">
    <asset>
        <contributor>
            <authoring_tool>J3D Ripoff Exporter</authoring_tool>
        </contributor>
        <created>2026-07-03T01:46:38.616Z</created>
        <modified>2026-07-03T01:46:38.616Z</modified>
		<unit meter="0.01" name="centimeter" ></unit>
        <up_axis>Y_UP</up_axis>
    </asset>
    <library_images>
        <image id="tex0">
            <init_from>H_ma_new_main_s3tc.png</init_from>
        </image>
        <image id="tex1">
            <init_from>H_ma_polmask_hand_i4.png</init_from>
        </image>
        <image id="tex2">
            <init_from>H_ma_rak_dummy.png</init_from>
        </image>
        <image id="tex3">
            <init_from>H_toon_2_4i.png</init_from>
        </image>
    </library_images>
    <library_effects>
        <effect id="effect0">
            <profile_COMMON>
                <newparam sid="surface0">
                    <surface type="2D">
                        <init_from>tex0</init_from>
                    </surface>
                </newparam>
                <newparam sid="sampler0">
                    <sampler2D>
                        <source>surface0</source>
                    </sampler2D>
                </newparam>
                <technique sid="COMMON">
                    <blinn>
                        <diffuse>
                            <texture texture="sampler0" texcoord="UVSET0"></texture>
                        </diffuse>
                    </blinn>
                </technique>
            </profile_COMMON>
        </effect>
        <effect id="effect0_1">
            <profile_COMMON>
                <newparam sid="surface0_1">
                    <surface type="2D">
                        <init_from>tex1</init_from>
                    </surface>
                </newparam>
                <newparam sid="sampler0_1">
                    <sampler2D>
                        <source>surface0_1</source>
                    </sampler2D>
                </newparam>
                <technique sid="COMMON">
                    <blinn>
                        <diffuse>
                            <texture texture="sampler0_1" texcoord="UVSET0"></texture>
                        </diffuse>
                    </blinn>
                </technique>
            </profile_COMMON>
        </effect>
        <effect id="effect0_2">
            <profile_COMMON>
                <newparam sid="surface0_2">
                    <surface type="2D">
                        <init_from>tex2</init_from>
                    </surface>
                </newparam>
                <newparam sid="sampler0_2">
                    <sampler2D>
                        <source>surface0_2</source>
                    </sampler2D>
                </newparam>
                <technique sid="COMMON">
                    <blinn>
                        <diffuse>
                            <texture texture="sampler0_2" texcoord="UVSET0"></texture>
                        </diffuse>
                    </blinn>
                </technique>
            </profile_COMMON>
        </effect>
    </library_effects>
    <library_materials>
        <material id="mat0" name="_mat_hand3_R">
            <instance_effect url="#effect0"></instance_effect>
        </material>
        <material id="mat0_1" name="_mat_hand3_R_uv2">
            <instance_effect url="#effect0_1"></instance_effect>
        </material>
        <material id="mat0_2" name="_mat_hand3_R_uv3">
            <instance_effect url="#effect0_2"></instance_effect>
        </material>
    </library_materials>
    <library_geometries>
        <geometry id="mesh0">
            <mesh>
                <source id="points0">
                    <float_array id="pointarray0" count="264">13.3427734375 9.3701171875 -1.3115234375 14.3447265625 8 -2.62890625 16.54296875 11.2861328125 -1.787109375 17.05078125 6.970703125 -2.1884765625 18.0244140625 11.583984375 -3.6005859375 17.7431640625 7.0888671875 -3.9873046875 15.0771484375 10.3544921875 -6.4580078125 15.98828125 6.376953125 -5.0634765625 11.404296875 6.48046875 4.2783203125 7.8095703125 0.6865234375 5.8759765625 4.2998046875 -4.78125 6.927734375 9.150390625 -6.552734375 6.3427734375 10.19140625 -9.32421875 5.2255859375 14.7548828125 -7.10546875 6.583984375 16.28125 -10.462890625 5.8701171875 18.9365234375 -4.7216796875 6.2001953125 21.146484375 -6.77734375 7.1328125 24.2861328125 -2.1171875 4.880859375 23.8173828125 -7.0390625 4.4912109375 14.353515625 6.7412109375 0.7529296875 13.7275390625 10.748046875 1.283203125 22.9599609375 11.525390625 -0.9892578125 19.314453125 12.021484375 -9.6669921875 11.892578125 12.296875 -8.8447265625 9.9794921875 11.4443359375 2.1220703125 4.1650390625 8.5205078125 -3.0322265625 3.8681640625 7.6484375 5.54296875 1.873046875 11.19140625 -3.564453125 1.6240234375 9.8955078125 7.0888671875 -0.998046875 8.87109375 -2.9736328125 -0.958984375 7.6201171875 5.755859375 18.658203125 -3.62109375 0.2626953125 15.87109375 -1.81640625 -1.36328125 14.384765625 -3.1904296875 2.5927734375 14.3359375 0.2578125 -0.4384765625 14.779296875 1.9833984375 2.267578125 18.8388671875 1.6591796875 0.119140625 25.34765625 1.611328125 -0.0859375 19.7607421875 1.5244140625 -2.912109375 20.4765625 0.703125 -11.4580078125 18.8232421875 0.5419921875 -4.8427734375 25.22265625 1.8115234375 -0.419921875 19.2431640625 1.52734375 -3.2119140625 13.83984375 1.6982421875 1.5068359375 17.8232421875 1.814453125 -2.3837890625 15.07421875 2.998046875 -2.92578125 18.408203125 -4.2724609375 0.7216796875 15.888671875 -9.283203125 -4.1806640625 13.4296875 -11.0166015625 -5.5712890625 19.107421875 -10.626953125 -9.306640625 8.44140625 -9.7822265625 -6.86328125 8.91796875 0.89453125 -11.5322265625 4.4658203125 -7.72265625 -2.92578125 4.4921875 1.037109375 -7.1064453125 2.0673828125 -8.7841796875 -3.3134765625 2.2412109375 1.9072265625 -8.6572265625 -0.9990234375 -7.6376953125 -2.671875 -0.6298828125 1.134765625 -7.173828125 13.77734375 5.232421875 -1.7314453125 18.2587890625 6.66796875 -2.169921875 19.4482421875 6.7470703125 -3.0615234375 15.6943359375 -3.9560546875 -4.8486328125 20.62890625 -5.4716796875 -11.3681640625 18.83984375 -3.955078125 -2.8671875 24.9609375 -4.0595703125 -1.10546875 18.37890625 -3.5732421875 -1.8251953125 15.681640625 -2.6337890625 2.357421875 14.3017578125 -4.685546875 -0.1123046875 15.9619140625 -8.2353515625 3.1904296875 15.208984375 -6.9541015625 -1.296875 18.3505859375 -8.8232421875 -1.18359375 -0.857421875 -4.345703125 6.86328125 1.92578125 -4.984375 8.623046875 11.5634765625 -10.384765625 -0.75390625 17.82421875 -11.0927734375 2.501953125 19.4501953125 -3.9658203125 -2.5234375 16.3134765625 -4.9228515625 3.6015625 18.7568359375 -3.005859375 1.4521484375 22.1240234375 -0.4287109375 3.3515625 19.5859375 6.6416015625 -10.7119140625 24.9501953125 6.7421875 -0.564453125 14.091796875 6.703125 1.3115234375 20.078125 -6.8330078125 -0.515625 22.33203125 -2.7099609375 0.5087890625 25.205078125 -4.02734375 0.33203125 23.9892578125 -9.3037109375 -0.072265625 18.37890625 -8.8466796875 -1.765625 22.78125 7.1298828125 -1.3779296875</float_array>
                    <technique_common>
                        <accessor count="88" source="#pointarray0" stride="3">
                            <param name="X" type="float"/>
                            <param name="Y" type="float"/>
                            <param name="Z" type="float"/>
                        </accessor>
                    </technique_common>
                </source>
                <source id="uvs0">
                    <float_array id="uvarray0" count="262">0.7168049812316895 0.16668301820755005 0.7173609733581543 0.1574609875679016 0.7041800022125244 0.17708498239517212 0.7029269933700562 0.15070199966430664 0.666670024394989 0.17753201723098755 0.6680219769477844 0.1503000259399414 0.6263049840927124 0.16950297355651855 0.6322399973869324 0.1441749930381775 0.5752750039100647 0.14464998245239258 0.5725070238113403 0.10756802558898926 0.5395370125770569 0.07639002799987793 0.5642489790916443 0.06388098001480103 0.5630980134010315 0.045773983001708984 0.5950610041618347 0.048246026039123535 0.5927550196647644 0.026652991771697998 0.6412860155105591 0.035835981369018555 0.6328740119934082 0.019747018814086914 0.6626160144805908 0.008163988590240479 0.6323840022087097 0.00434499979019165 0.7085909843444824 0.3373349905014038 0.7234569787979126 0.34454798698425293 0.7090830206871033 0.33827900886535645 0.7228839993476868 0.3543909788131714 0.7103520035743713 0.36456000804901123 0.7098810076713562 0.3654929995536804 0.6717150211334229 0.36550599336624146 0.6712499856948853 0.3659690022468567 0.6317300200462341 0.36509400606155396 0.6296769976615906 0.35740000009536743 0.5994409918785095 0.36849600076675415 0.5715010166168213 0.3629850149154663 0.5433650016784668 0.3440709710121155 0.5414829850196838 0.3384310007095337 0.5288249850273132 0.3613470196723938 0.5272459983825684 0.35296398401260376 0.5106059908866882 0.3463420271873474 0.5108529925346375 0.33824801445007324 0.730754017829895 0.26114797592163086 0.748179018497467 0.2731819748878479 0.7324600219726562 0.2618029713630676 0.7475929856300354 0.285739004611969 0.7309190034866333 0.29538899660110474 0.7289209961891174 0.29527997970581055 0.6886190176010132 0.2962909936904907 0.6899979710578918 0.2963079810142517 0.6357529759407043 0.29601502418518066 0.636322021484375 0.29246199131011963 0.6834930181503296 0.3009200096130371 0.6830549836158752 0.29903900623321533 0.7230439782142639 0.3004549741744995 0.7262570261955261 0.300961971282959 0.7399640083312988 0.30862998962402344 0.627776026725769 0.22255802154541016 0.6382910013198853 0.22446000576019287 0.6041079759597778 0.2176859974861145 0.6344919800758362 0.22267800569534302 0.5752289891242981 0.22567099332809448 0.5850380063056946 0.2947409749031067 0.5452769994735718 0.2389950156211853 0.5454419851303101 0.2956629991531372 0.5300589799880981 0.23212897777557373 0.531158983707428 0.3012949824333191 0.5105980038642883 0.23954802751541138 0.5129370093345642 0.2962939739227295 0.7327799797058105 0.13742297887802124 0.7333880066871643 0.12380599975585938 0.7174969911575317 0.1460360288619995 0.7200800180435181 0.11662101745605469 0.6782019734382629 0.14646202325820923 0.6781319975852966 0.11482000350952148 0.6327570080757141 0.10865700244903564 0.6332219839096069 0.0773320198059082 0.63680100440979 0.25902998447418213 0.6362890005111694 0.2582870125770569 0.6848070025444031 0.257951021194458 0.6852719783782959 0.2574880123138428 0.7240809798240662 0.25907397270202637 0.7261260151863098 0.25950098037719727 0.7417849898338318 0.2486870288848877 0.7232750058174133 0.22303301095962524 0.7408519983291626 0.23586899042129517 0.7234510183334351 0.2249460220336914 0.5114930272102356 0.26083898544311523 0.5291600227355957 0.2567110061645508 0.5442190170288086 0.2580239772796631 0.5654469728469849 0.21469402313232422 0.5645790100097656 0.22534900903701782 0.5958020091056824 0.19494199752807617 0.6848099827766418 0.07885998487472534 0.6848739981651306 0.11226099729537964 0.7244470119476318 0.07931602001190186 0.7226660251617432 0.11129701137542725 0.7413650155067444 0.09059202671051025 0.7407960295677185 0.10235798358917236 0.6065319776535034 0.056568026542663574 0.6467880010604858 0.04050999879837036 0.668349027633667 0.0236319899559021 0.6339349746704102 0.33175402879714966 0.6831269860267639 0.3328099846839905 0.7393370270729065 0.3231629729270935 0.7231320142745972 0.33281898498535156 0.72359699010849 0.3323550224304199 0.6221650242805481 0.20334398746490479 0.656557023525238 0.19791799783706665 0.6670740246772766 0.1852089762687683 0.6729779839515686 0.20171797275543213 0.6881189942359924 0.2597010135650635 0.6899319887161255 0.2606610059738159 0.6871510148048401 0.22263598442077637 0.6866580247879028 0.2254440188407898 0.6346690058708191 0.0449410080909729 0.6244590282440186 0.043157994747161865 0.6727349758148193 0.33705002069473267 0.6726419925689697 0.3369060158729553 0.6357899904251099 0.3303689956665039 0.7351570129394531 0.06764101982116699 0.7342510223388672 0.05563002824783325 0.7179669737815857 0.07737398147583008 0.7173560261726379 0.04539597034454346 0.6816310286521912 0.04586297273635864 0.6507729887962341 0.21973097324371338 0.6093119978904724 0.2368689775466919 0.5934140086174011 0.01728302240371704 0.6798329949378967 0.07632100582122803 0.5263670086860657 0.07324200868606567 0.5263670086860657 0.1601560115814209 0.5110459923744202 0.15155702829360962 0.5698189735412598 0.17473602294921875 0.5368800163269043 0.15172898769378662 0.511667013168335 0.07902699708938599 0.6359379887580872 0.18113398551940918</float_array>
                    <technique_common>
                        <accessor count="131" source="#uvarray0" stride="2">
                            <param name="S" type="float"/>
                            <param name="T" type="float"/>
                        </accessor>
                    </technique_common>
                </source>
                <vertices id="vertices0">
                    <input semantic="POSITION" source="#points0"/>
                </vertices>
                <polylist count="169" material="Material1">
                    <input offset="0" semantic="VERTEX" source="#vertices0"/>
                    <input offset="1" semantic="TEXCOORD" source="#uvs0" set="0"/>
                    <vcount>3 3 3 3 3 3 3 3 3 3 3 3 3 3 3 3 3 3 3 3 3 3 3 3 3 3 3 3 3 3 3 3 3 3 3 3 3 3 3 3 3 3 3 3 3 3 3 3 3 3 3 3 3 3 3 3 3 3 3 3 3 3 3 3 3 3 3 3 3 3 3 3 3 3 3 3 3 3 3 3 3 3 3 3 3 3 3 3 3 3 3 3 3 3 3 3 3 3 3 3 3 3 3 3 3 3 3 3 3 3 3 3 3 3 3 3 3 3 3 3 3 3 3 3 3 3 3 3 3 3 3 3 3 3 3 3 3 3 3 3 3 3 3 3 3 3 3 3 3 3 3 3 3 3 3 3 3 3 3 3 3 3 3 3 3 3 3 3 3</vcount>
                    <p>2 2 1 1 0 0 3 3 1 1 2 2 4 4 3 3 2 2 5 5 3 3 4 4 6 6 5 5 4 4 7 7 5 5 6 6 8 8 7 7 6 6 9 9 7 7 8 8 10 10 9 9 8 8 11 11 9 9 10 10 12 12 11 11 10 10 13 13 11 11 12 12 14 14 13 13 12 12 15 15 13 13 14 14 16 16 15 15 14 14 17 17 15 15 16 16 18 18 17 17 16 16 19 21 1 20 3 19 0 22 1 20 19 21 20 23 0 22 19 21 2 24 0 22 20 23 21 25 2 24 20 23 4 26 2 24 21 25 22 27 4 26 21 25 6 28 4 26 22 27 23 29 6 28 22 27 24 30 6 28 23 29 25 31 24 30 23 29 26 32 24 30 25 31 27 33 26 32 25 31 28 34 26 32 27 33 29 35 28 34 27 33 30 36 28 34 29 35 33 39 32 38 31 37 34 40 32 38 33 39 35 41 34 40 33 39 36 42 34 40 35 41 37 43 36 42 35 41 38 44 36 42 37 43 39 45 38 44 37 43 40 46 38 44 39 45 41 47 40 46 39 45 42 48 40 46 41 47 43 49 42 48 41 47 44 50 42 48 43 49 45 51 44 50 43 49 48 54 47 53 46 52 49 55 47 53 48 54 50 56 49 55 48 54 51 57 49 55 50 56 52 58 51 57 50 56 53 59 51 57 52 58 54 60 53 59 52 58 55 61 53 59 54 60 56 62 55 61 54 60 57 63 55 61 56 62 59 66 45 65 58 64 44 67 45 65 59 66 60 68 44 67 59 66 42 69 44 67 60 68 7 7 42 69 60 68 40 70 42 69 7 7 9 9 40 70 7 7 61 71 40 70 9 9 63 74 62 73 61 72 64 75 62 73 63 74 65 76 64 75 63 74 66 77 64 75 65 76 67 78 66 77 65 76 68 79 66 77 67 78 69 80 68 79 67 78 70 81 68 79 69 80 54 60 71 82 56 62 72 83 71 82 54 60 52 58 72 83 54 60 10 84 72 83 52 58 73 85 10 84 52 58 12 86 10 84 73 85 74 87 12 86 73 85 75 88 40 70 61 71 38 89 40 70 75 88 31 90 38 89 75 88 36 91 38 89 31 90 32 92 36 91 31 90 34 93 36 91 32 92 13 13 76 94 11 11 77 95 76 94 13 13 15 15 77 95 13 13 78 96 77 95 15 15 17 17 78 96 15 15 51 57 62 73 49 55 39 45 62 73 51 57 79 97 39 45 51 57 80 98 39 45 79 97 60 98 80 98 79 97 43 49 58 99 45 51 81 100 58 99 43 49 80 98 81 100 43 49 59 101 81 100 80 98 60 98 59 101 80 98 82 102 73 85 48 54 74 87 73 85 82 102 83 103 74 87 82 102 17 104 74 87 83 103 78 105 17 104 83 103 33 39 37 43 35 41 84 106 37 43 33 39 75 107 84 106 33 39 61 72 84 106 75 107 68 79 64 75 66 77 85 108 64 75 68 79 70 81 85 108 68 79 86 109 85 108 70 81 85 108 62 73 64 75 49 55 62 73 85 108 86 109 49 55 85 108 47 53 49 55 86 109 51 57 23 29 22 27 25 31 23 29 51 57 53 59 25 31 51 57 55 61 25 31 53 59 61 71 46 111 47 110 76 94 46 111 61 71 9 9 76 94 61 71 11 11 76 94 9 9 19 21 21 25 20 23 87 112 21 25 19 21 5 113 87 112 19 21 7 114 87 112 5 113 65 117 69 116 67 115 70 118 69 116 65 117 86 119 70 118 65 117 62 73 84 106 61 72 37 43 84 106 62 73 39 45 37 43 62 73 79 97 7 114 60 98 87 112 7 114 79 97 21 25 87 112 79 97 83 103 77 120 78 105 76 121 77 120 83 103 82 102 76 121 83 103 74 122 14 14 12 12 18 18 14 14 74 122 63 123 86 119 65 117 61 71 86 119 63 123 79 97 22 27 21 25 51 57 22 27 79 97 46 52 82 102 48 54 76 121 82 102 46 52 55 61 27 33 25 31 57 63 27 33 55 61 28 125 72 124 10 10 30 126 72 124 28 125 41 47 80 98 43 49 39 45 80 98 41 47 50 56 73 85 52 58 48 54 73 85 50 56 24 127 8 8 6 6 26 128 8 8 24 127 26 128 10 10 8 8 28 125 10 10 26 128 16 16 14 14 18 18 57 63 29 35 27 33 30 126 71 129 72 124 47 110 86 119 61 71 33 39 31 37 75 107 58 99 81 100 59 101 19 21 3 19 5 113 18 130 74 87 17 104</p>
                </polylist>
            </mesh>
        </geometry>
        <geometry id="mesh0_1">
            <mesh>
                <source id="points0_1">
                    <float_array id="pointarray0_1" count="264">13.3427734375 9.3701171875 -1.3115234375 14.3447265625 8 -2.62890625 16.54296875 11.2861328125 -1.787109375 17.05078125 6.970703125 -2.1884765625 18.0244140625 11.583984375 -3.6005859375 17.7431640625 7.0888671875 -3.9873046875 15.0771484375 10.3544921875 -6.4580078125 15.98828125 6.376953125 -5.0634765625 11.404296875 6.48046875 4.2783203125 7.8095703125 0.6865234375 5.8759765625 4.2998046875 -4.78125 6.927734375 9.150390625 -6.552734375 6.3427734375 10.19140625 -9.32421875 5.2255859375 14.7548828125 -7.10546875 6.583984375 16.28125 -10.462890625 5.8701171875 18.9365234375 -4.7216796875 6.2001953125 21.146484375 -6.77734375 7.1328125 24.2861328125 -2.1171875 4.880859375 23.8173828125 -7.0390625 4.4912109375 14.353515625 6.7412109375 0.7529296875 13.7275390625 10.748046875 1.283203125 22.9599609375 11.525390625 -0.9892578125 19.314453125 12.021484375 -9.6669921875 11.892578125 12.296875 -8.8447265625 9.9794921875 11.4443359375 2.1220703125 4.1650390625 8.5205078125 -3.0322265625 3.8681640625 7.6484375 5.54296875 1.873046875 11.19140625 -3.564453125 1.6240234375 9.8955078125 7.0888671875 -0.998046875 8.87109375 -2.9736328125 -0.958984375 7.6201171875 5.755859375 18.658203125 -3.62109375 0.2626953125 15.87109375 -1.81640625 -1.36328125 14.384765625 -3.1904296875 2.5927734375 14.3359375 0.2578125 -0.4384765625 14.779296875 1.9833984375 2.267578125 18.8388671875 1.6591796875 0.119140625 25.34765625 1.611328125 -0.0859375 19.7607421875 1.5244140625 -2.912109375 20.4765625 0.703125 -11.4580078125 18.8232421875 0.5419921875 -4.8427734375 25.22265625 1.8115234375 -0.419921875 19.2431640625 1.52734375 -3.2119140625 13.83984375 1.6982421875 1.5068359375 17.8232421875 1.814453125 -2.3837890625 15.07421875 2.998046875 -2.92578125 18.408203125 -4.2724609375 0.7216796875 15.888671875 -9.283203125 -4.1806640625 13.4296875 -11.0166015625 -5.5712890625 19.107421875 -10.626953125 -9.306640625 8.44140625 -9.7822265625 -6.86328125 8.91796875 0.89453125 -11.5322265625 4.4658203125 -7.72265625 -2.92578125 4.4921875 1.037109375 -7.1064453125 2.0673828125 -8.7841796875 -3.3134765625 2.2412109375 1.9072265625 -8.6572265625 -0.9990234375 -7.6376953125 -2.671875 -0.6298828125 1.134765625 -7.173828125 13.77734375 5.232421875 -1.7314453125 18.2587890625 6.66796875 -2.169921875 19.4482421875 6.7470703125 -3.0615234375 15.6943359375 -3.9560546875 -4.8486328125 20.62890625 -5.4716796875 -11.3681640625 18.83984375 -3.955078125 -2.8671875 24.9609375 -4.0595703125 -1.10546875 18.37890625 -3.5732421875 -1.8251953125 15.681640625 -2.6337890625 2.357421875 14.3017578125 -4.685546875 -0.1123046875 15.9619140625 -8.2353515625 3.1904296875 15.208984375 -6.9541015625 -1.296875 18.3505859375 -8.8232421875 -1.18359375 -0.857421875 -4.345703125 6.86328125 1.92578125 -4.984375 8.623046875 11.5634765625 -10.384765625 -0.75390625 17.82421875 -11.0927734375 2.501953125 19.4501953125 -3.9658203125 -2.5234375 16.3134765625 -4.9228515625 3.6015625 18.7568359375 -3.005859375 1.4521484375 22.1240234375 -0.4287109375 3.3515625 19.5859375 6.6416015625 -10.7119140625 24.9501953125 6.7421875 -0.564453125 14.091796875 6.703125 1.3115234375 20.078125 -6.8330078125 -0.515625 22.33203125 -2.7099609375 0.5087890625 25.205078125 -4.02734375 0.33203125 23.9892578125 -9.3037109375 -0.072265625 18.37890625 -8.8466796875 -1.765625 22.78125 7.1298828125 -1.3779296875</float_array>
                    <technique_common>
                        <accessor count="88" source="#pointarray0_1" stride="3">
                            <param name="X" type="float"/>
                            <param name="Y" type="float"/>
                            <param name="Z" type="float"/>
                        </accessor>
                    </technique_common>
                </source>
                <source id="uvs0_1">
                    <float_array id="uvarray0_1" count="262">0.12606200575828552 0.4476739764213562 0.12393099814653397 0.4235919713973999 0.1744229942560196 0.4748370051383972 0.1792220026254654 0.40594297647476196 0.318107008934021 0.4760029911994934 0.3129290044307709 0.4048929810523987 0.4727320075035095 0.455036997795105 0.4499950110912323 0.38889700174331665 0.6682069897651672 0.39013999700546265 0.6788089871406555 0.293304979801178 0.8051049709320068 0.21188902854919434 0.710444986820221 0.17922502756118774 0.7148510217666626 0.131941020488739 0.5924140214920044 0.1383969783782959 0.6012449860572815 0.08200997114181519 0.4153439998626709 0.10598897933959961 0.44756901264190674 0.06397700309753418 0.3336380124092102 0.03372800350189209 0.4494430124759674 0.023757994174957275 0.1575240045785904 0.8933039978146553 0.10057999938726425 0.9121389985084534 0.15564000606536865 0.8957680016756058 0.1027740016579628 0.9378420002758503 0.15078000724315643 0.9643959999084473 0.15258300304412842 0.9668309986591339 0.29878300428390503 0.966864999383688 0.3005639910697937 0.9680760018527508 0.45194798707962036 0.9657899998128414 0.45981401205062866 0.9456989988684654 0.5756360292434692 0.9746749997138977 0.6826630234718323 0.9602839983999729 0.7904419898986816 0.9108920022845268 0.7976509928703308 0.8961640000343323 0.8461390137672424 0.9560060016810894 0.852183997631073 0.9341140016913414 0.915926992893219 0.916822999715805 0.9149799942970276 0.895685002207756 0.0726270005106926 0.694352000951767 0.005880999844521284 0.7257789969444275 0.06609500199556351 0.6960619986057281 0.008124999701976776 0.7585680037736893 0.07199499756097794 0.7837689965963364 0.07965099811553955 0.7834829986095428 0.23402999341487885 0.7861240059137344 0.22874599695205688 0.7861669957637787 0.4365380108356476 0.785401001572609 0.43435901403427124 0.7761240005493164 0.2536660134792328 0.798212006688118 0.2553449869155884 0.7932990044355392 0.1021609976887703 0.796995997428894 0.08985400199890137 0.7983209937810898 0.037349000573158264 0.8183449953794479 0.4670970141887665 0.5935809910297394 0.426815003156662 0.5985479950904846 0.5577579736709595 0.5808599889278412 0.44137099385261536 0.5938949882984161 0.6683819890022278 0.6017099916934967 0.630806028842926 0.7820760011672974 0.7831159830093384 0.6365050077438354 0.7824820280075073 0.7844830006361008 0.8414080142974854 0.6185739934444427 0.8371959924697876 0.7991899996995926 0.915956974029541 0.6379480063915253 0.9069979786872864 0.7861309945583344 0.0648680031299591 0.3712660074234009 0.06253699958324432 0.33570897579193115 0.12340900301933289 0.39375799894332886 0.11351700127124786 0.31694698333740234 0.2739329934120178 0.3948709964752197 0.27420100569725037 0.31224197149276733 0.4480159878730774 0.29614901542663574 0.4462350010871887 0.21434897184371948 0.43252599239349365 0.6888220012187958 0.43448498845100403 0.6868819892406464 0.2486329972743988 0.6860060095787048 0.24685199558734894 0.6847949922084808 0.09818899631500244 0.6889379918575287 0.09035500138998032 0.6900520026683807 0.030372999608516693 0.6618129909038544 0.10127600282430649 0.5948230028152466 0.033946000039577484 0.6283400058746338 0.10060100257396698 0.5998179912567139 0.9125279784202576 0.6935470104217529 0.844855010509491 0.6827659904956818 0.7871670126914978 0.6861959993839264 0.7058539986610413 0.573047012090683 0.7091779708862305 0.6008709967136383 0.589576005935669 0.521467000246048 0.24862100183963776 0.2183399796485901 0.24837499856948853 0.305558979511261 0.09678900241851807 0.21953099966049194 0.10361000150442123 0.30304402112960815 0.03198299929499626 0.24897700548171997 0.0341619998216629 0.27969998121261597 0.5484740138053894 0.16012799739837646 0.3942689895629883 0.11819499731063843 0.3116779923439026 0.07412201166152954 0.4435040056705475 0.8787269964814186 0.2550700008869171 0.8814859986305237 0.03974900022149086 0.8562940061092377 0.10182499885559082 0.8815089985728264 0.10004299879074097 0.8802980035543442 0.48858800530433655 0.5434080064296722 0.35684698820114136 0.5292400121688843 0.3165610134601593 0.49605101346969604 0.29394298791885376 0.5391620099544525 0.23594599962234497 0.6905750036239624 0.2290010005235672 0.6930809915065765 0.239655002951622 0.5937860012054443 0.24154099822044373 0.6011199951171875 0.4406909942626953 0.12976497411727905 0.4798020124435425 0.12511098384857178 0.29487600922584534 0.8925589993596077 0.29523101449012756 0.8921819999814034 0.4363979995250702 0.875110998749733 0.05576299875974655 0.18904298543930054 0.05923299863934517 0.15767902135849 0.12161000072956085 0.21445798873901367 0.1239520013332367 0.13095402717590332 0.26079699397087097 0.13217401504516602 0.3790050148963928 0.5861999988555908 0.5378230214118958 0.6309530138969421 0.5987240076065063 0.05754202604293823 0.2676849961280823 0.21170997619628906 0.85555100440979 0.20367002487182617 0.85555100440979 0.43063098192214966 0.9142410159111023 0.408174991607666 0.6891070008277893 0.4687020182609558 0.815284013748169 0.40862399339675903 0.911861002445221 0.21877598762512207 0.4358299970626831 0.4854099750518799</float_array>
                    <technique_common>
                        <accessor count="131" source="#uvarray0_1" stride="2">
                            <param name="S" type="float"/>
                            <param name="T" type="float"/>
                        </accessor>
                    </technique_common>
                </source>
                <vertices id="vertices0_1">
                    <input semantic="POSITION" source="#points0_1"/>
                </vertices>
                <polylist count="169" material="Material1">
                    <input offset="0" semantic="VERTEX" source="#vertices0_1"/>
                    <input offset="1" semantic="TEXCOORD" source="#uvs0_1" set="0"/>
                    <vcount>3 3 3 3 3 3 3 3 3 3 3 3 3 3 3 3 3 3 3 3 3 3 3 3 3 3 3 3 3 3 3 3 3 3 3 3 3 3 3 3 3 3 3 3 3 3 3 3 3 3 3 3 3 3 3 3 3 3 3 3 3 3 3 3 3 3 3 3 3 3 3 3 3 3 3 3 3 3 3 3 3 3 3 3 3 3 3 3 3 3 3 3 3 3 3 3 3 3 3 3 3 3 3 3 3 3 3 3 3 3 3 3 3 3 3 3 3 3 3 3 3 3 3 3 3 3 3 3 3 3 3 3 3 3 3 3 3 3 3 3 3 3 3 3 3 3 3 3 3 3 3 3 3 3 3 3 3 3 3 3 3 3 3 3 3 3 3 3 3</vcount>
                    <p>2 2 1 1 0 0 3 3 1 1 2 2 4 4 3 3 2 2 5 5 3 3 4 4 6 6 5 5 4 4 7 7 5 5 6 6 8 8 7 7 6 6 9 9 7 7 8 8 10 10 9 9 8 8 11 11 9 9 10 10 12 12 11 11 10 10 13 13 11 11 12 12 14 14 13 13 12 12 15 15 13 13 14 14 16 16 15 15 14 14 17 17 15 15 16 16 18 18 17 17 16 16 19 21 1 20 3 19 0 22 1 20 19 21 20 23 0 22 19 21 2 24 0 22 20 23 21 25 2 24 20 23 4 26 2 24 21 25 22 27 4 26 21 25 6 28 4 26 22 27 23 29 6 28 22 27 24 30 6 28 23 29 25 31 24 30 23 29 26 32 24 30 25 31 27 33 26 32 25 31 28 34 26 32 27 33 29 35 28 34 27 33 30 36 28 34 29 35 33 39 32 38 31 37 34 40 32 38 33 39 35 41 34 40 33 39 36 42 34 40 35 41 37 43 36 42 35 41 38 44 36 42 37 43 39 45 38 44 37 43 40 46 38 44 39 45 41 47 40 46 39 45 42 48 40 46 41 47 43 49 42 48 41 47 44 50 42 48 43 49 45 51 44 50 43 49 48 54 47 53 46 52 49 55 47 53 48 54 50 56 49 55 48 54 51 57 49 55 50 56 52 58 51 57 50 56 53 59 51 57 52 58 54 60 53 59 52 58 55 61 53 59 54 60 56 62 55 61 54 60 57 63 55 61 56 62 59 66 45 65 58 64 44 67 45 65 59 66 60 68 44 67 59 66 42 69 44 67 60 68 7 7 42 69 60 68 40 70 42 69 7 7 9 9 40 70 7 7 61 71 40 70 9 9 63 74 62 73 61 72 64 75 62 73 63 74 65 76 64 75 63 74 66 77 64 75 65 76 67 78 66 77 65 76 68 79 66 77 67 78 69 80 68 79 67 78 70 81 68 79 69 80 54 60 71 82 56 62 72 83 71 82 54 60 52 58 72 83 54 60 10 84 72 83 52 58 73 85 10 84 52 58 12 86 10 84 73 85 74 87 12 86 73 85 75 88 40 70 61 71 38 89 40 70 75 88 31 90 38 89 75 88 36 91 38 89 31 90 32 92 36 91 31 90 34 93 36 91 32 92 13 13 76 94 11 11 77 95 76 94 13 13 15 15 77 95 13 13 78 96 77 95 15 15 17 17 78 96 15 15 51 57 62 73 49 55 39 45 62 73 51 57 79 97 39 45 51 57 80 98 39 45 79 97 60 98 80 98 79 97 43 49 58 99 45 51 81 100 58 99 43 49 80 98 81 100 43 49 59 101 81 100 80 98 60 98 59 101 80 98 82 102 73 85 48 54 74 87 73 85 82 102 83 103 74 87 82 102 17 104 74 87 83 103 78 105 17 104 83 103 33 39 37 43 35 41 84 106 37 43 33 39 75 107 84 106 33 39 61 72 84 106 75 107 68 79 64 75 66 77 85 108 64 75 68 79 70 81 85 108 68 79 86 109 85 108 70 81 85 108 62 73 64 75 49 55 62 73 85 108 86 109 49 55 85 108 47 53 49 55 86 109 51 57 23 29 22 27 25 31 23 29 51 57 53 59 25 31 51 57 55 61 25 31 53 59 61 71 46 111 47 110 76 94 46 111 61 71 9 9 76 94 61 71 11 11 76 94 9 9 19 21 21 25 20 23 87 112 21 25 19 21 5 113 87 112 19 21 7 114 87 112 5 113 65 117 69 116 67 115 70 118 69 116 65 117 86 119 70 118 65 117 62 73 84 106 61 72 37 43 84 106 62 73 39 45 37 43 62 73 79 97 7 114 60 98 87 112 7 114 79 97 21 25 87 112 79 97 83 103 77 120 78 105 76 121 77 120 83 103 82 102 76 121 83 103 74 122 14 14 12 12 18 18 14 14 74 122 63 123 86 119 65 117 61 71 86 119 63 123 79 97 22 27 21 25 51 57 22 27 79 97 46 52 82 102 48 54 76 121 82 102 46 52 55 61 27 33 25 31 57 63 27 33 55 61 28 125 72 124 10 10 30 126 72 124 28 125 41 47 80 98 43 49 39 45 80 98 41 47 50 56 73 85 52 58 48 54 73 85 50 56 24 127 8 8 6 6 26 128 8 8 24 127 26 128 10 10 8 8 28 125 10 10 26 128 16 16 14 14 18 18 57 63 29 35 27 33 30 126 71 129 72 124 47 110 86 119 61 71 33 39 31 37 75 107 58 99 81 100 59 101 19 21 3 19 5 113 18 130 74 87 17 104</p>
                </polylist>
            </mesh>
        </geometry>
        <geometry id="mesh0_2">
            <mesh>
                <source id="points0_2">
                    <float_array id="pointarray0_2" count="264">13.3427734375 9.3701171875 -1.3115234375 14.3447265625 8 -2.62890625 16.54296875 11.2861328125 -1.787109375 17.05078125 6.970703125 -2.1884765625 18.0244140625 11.583984375 -3.6005859375 17.7431640625 7.0888671875 -3.9873046875 15.0771484375 10.3544921875 -6.4580078125 15.98828125 6.376953125 -5.0634765625 11.404296875 6.48046875 4.2783203125 7.8095703125 0.6865234375 5.8759765625 4.2998046875 -4.78125 6.927734375 9.150390625 -6.552734375 6.3427734375 10.19140625 -9.32421875 5.2255859375 14.7548828125 -7.10546875 6.583984375 16.28125 -10.462890625 5.8701171875 18.9365234375 -4.7216796875 6.2001953125 21.146484375 -6.77734375 7.1328125 24.2861328125 -2.1171875 4.880859375 23.8173828125 -7.0390625 4.4912109375 14.353515625 6.7412109375 0.7529296875 13.7275390625 10.748046875 1.283203125 22.9599609375 11.525390625 -0.9892578125 19.314453125 12.021484375 -9.6669921875 11.892578125 12.296875 -8.8447265625 9.9794921875 11.4443359375 2.1220703125 4.1650390625 8.5205078125 -3.0322265625 3.8681640625 7.6484375 5.54296875 1.873046875 11.19140625 -3.564453125 1.6240234375 9.8955078125 7.0888671875 -0.998046875 8.87109375 -2.9736328125 -0.958984375 7.6201171875 5.755859375 18.658203125 -3.62109375 0.2626953125 15.87109375 -1.81640625 -1.36328125 14.384765625 -3.1904296875 2.5927734375 14.3359375 0.2578125 -0.4384765625 14.779296875 1.9833984375 2.267578125 18.8388671875 1.6591796875 0.119140625 25.34765625 1.611328125 -0.0859375 19.7607421875 1.5244140625 -2.912109375 20.4765625 0.703125 -11.4580078125 18.8232421875 0.5419921875 -4.8427734375 25.22265625 1.8115234375 -0.419921875 19.2431640625 1.52734375 -3.2119140625 13.83984375 1.6982421875 1.5068359375 17.8232421875 1.814453125 -2.3837890625 15.07421875 2.998046875 -2.92578125 18.408203125 -4.2724609375 0.7216796875 15.888671875 -9.283203125 -4.1806640625 13.4296875 -11.0166015625 -5.5712890625 19.107421875 -10.626953125 -9.306640625 8.44140625 -9.7822265625 -6.86328125 8.91796875 0.89453125 -11.5322265625 4.4658203125 -7.72265625 -2.92578125 4.4921875 1.037109375 -7.1064453125 2.0673828125 -8.7841796875 -3.3134765625 2.2412109375 1.9072265625 -8.6572265625 -0.9990234375 -7.6376953125 -2.671875 -0.6298828125 1.134765625 -7.173828125 13.77734375 5.232421875 -1.7314453125 18.2587890625 6.66796875 -2.169921875 19.4482421875 6.7470703125 -3.0615234375 15.6943359375 -3.9560546875 -4.8486328125 20.62890625 -5.4716796875 -11.3681640625 18.83984375 -3.955078125 -2.8671875 24.9609375 -4.0595703125 -1.10546875 18.37890625 -3.5732421875 -1.8251953125 15.681640625 -2.6337890625 2.357421875 14.3017578125 -4.685546875 -0.1123046875 15.9619140625 -8.2353515625 3.1904296875 15.208984375 -6.9541015625 -1.296875 18.3505859375 -8.8232421875 -1.18359375 -0.857421875 -4.345703125 6.86328125 1.92578125 -4.984375 8.623046875 11.5634765625 -10.384765625 -0.75390625 17.82421875 -11.0927734375 2.501953125 19.4501953125 -3.9658203125 -2.5234375 16.3134765625 -4.9228515625 3.6015625 18.7568359375 -3.005859375 1.4521484375 22.1240234375 -0.4287109375 3.3515625 19.5859375 6.6416015625 -10.7119140625 24.9501953125 6.7421875 -0.564453125 14.091796875 6.703125 1.3115234375 20.078125 -6.8330078125 -0.515625 22.33203125 -2.7099609375 0.5087890625 25.205078125 -4.02734375 0.33203125 23.9892578125 -9.3037109375 -0.072265625 18.37890625 -8.8466796875 -1.765625 22.78125 7.1298828125 -1.3779296875</float_array>
                    <technique_common>
                        <accessor count="88" source="#pointarray0_2" stride="3">
                            <param name="X" type="float"/>
                            <param name="Y" type="float"/>
                            <param name="Z" type="float"/>
                        </accessor>
                    </technique_common>
                </source>
                <source id="uvs0_2">
                    <float_array id="uvarray0_2" count="262">0.7168049812316895 0.16668301820755005 0.7173609733581543 0.1574609875679016 0.7041800022125244 0.17708498239517212 0.7029269933700562 0.15070199966430664 0.666670024394989 0.17753201723098755 0.6680219769477844 0.1503000259399414 0.6263049840927124 0.16950297355651855 0.6322399973869324 0.1441749930381775 0.5752750039100647 0.14464998245239258 0.5725070238113403 0.10756802558898926 0.5395370125770569 0.07639002799987793 0.5642489790916443 0.06388098001480103 0.5630980134010315 0.045773983001708984 0.5950610041618347 0.048246026039123535 0.5927550196647644 0.026652991771697998 0.6412860155105591 0.035835981369018555 0.6328740119934082 0.019747018814086914 0.6626160144805908 0.008163988590240479 0.6323840022087097 0.00434499979019165 0.7085909843444824 0.3373349905014038 0.7234569787979126 0.34454798698425293 0.7090830206871033 0.33827900886535645 0.7228839993476868 0.3543909788131714 0.7103520035743713 0.36456000804901123 0.7098810076713562 0.3654929995536804 0.6717150211334229 0.36550599336624146 0.6712499856948853 0.3659690022468567 0.6317300200462341 0.36509400606155396 0.6296769976615906 0.35740000009536743 0.5994409918785095 0.36849600076675415 0.5715010166168213 0.3629850149154663 0.5433650016784668 0.3440709710121155 0.5414829850196838 0.3384310007095337 0.5288249850273132 0.3613470196723938 0.5272459983825684 0.35296398401260376 0.5106059908866882 0.3463420271873474 0.5108529925346375 0.33824801445007324 0.730754017829895 0.26114797592163086 0.748179018497467 0.2731819748878479 0.7324600219726562 0.2618029713630676 0.7475929856300354 0.285739004611969 0.7309190034866333 0.29538899660110474 0.7289209961891174 0.29527997970581055 0.6886190176010132 0.2962909936904907 0.6899979710578918 0.2963079810142517 0.6357529759407043 0.29601502418518066 0.636322021484375 0.29246199131011963 0.6834930181503296 0.3009200096130371 0.6830549836158752 0.29903900623321533 0.7230439782142639 0.3004549741744995 0.7262570261955261 0.300961971282959 0.7399640083312988 0.30862998962402344 0.627776026725769 0.22255802154541016 0.6382910013198853 0.22446000576019287 0.6041079759597778 0.2176859974861145 0.6344919800758362 0.22267800569534302 0.5752289891242981 0.22567099332809448 0.5850380063056946 0.2947409749031067 0.5452769994735718 0.2389950156211853 0.5454419851303101 0.2956629991531372 0.5300589799880981 0.23212897777557373 0.531158983707428 0.3012949824333191 0.5105980038642883 0.23954802751541138 0.5129370093345642 0.2962939739227295 0.7327799797058105 0.13742297887802124 0.7333880066871643 0.12380599975585938 0.7174969911575317 0.1460360288619995 0.7200800180435181 0.11662101745605469 0.6782019734382629 0.14646202325820923 0.6781319975852966 0.11482000350952148 0.6327570080757141 0.10865700244903564 0.6332219839096069 0.0773320198059082 0.63680100440979 0.25902998447418213 0.6362890005111694 0.2582870125770569 0.6848070025444031 0.257951021194458 0.6852719783782959 0.2574880123138428 0.7240809798240662 0.25907397270202637 0.7261260151863098 0.25950098037719727 0.7417849898338318 0.2486870288848877 0.7232750058174133 0.22303301095962524 0.7408519983291626 0.23586899042129517 0.7234510183334351 0.2249460220336914 0.5114930272102356 0.26083898544311523 0.5291600227355957 0.2567110061645508 0.5442190170288086 0.2580239772796631 0.5654469728469849 0.21469402313232422 0.5645790100097656 0.22534900903701782 0.5958020091056824 0.19494199752807617 0.6848099827766418 0.07885998487472534 0.6848739981651306 0.11226099729537964 0.7244470119476318 0.07931602001190186 0.7226660251617432 0.11129701137542725 0.7413650155067444 0.09059202671051025 0.7407960295677185 0.10235798358917236 0.6065319776535034 0.056568026542663574 0.6467880010604858 0.04050999879837036 0.668349027633667 0.0236319899559021 0.6339349746704102 0.33175402879714966 0.6831269860267639 0.3328099846839905 0.7393370270729065 0.3231629729270935 0.7231320142745972 0.33281898498535156 0.72359699010849 0.3323550224304199 0.6221650242805481 0.20334398746490479 0.656557023525238 0.19791799783706665 0.6670740246772766 0.1852089762687683 0.6729779839515686 0.20171797275543213 0.6881189942359924 0.2597010135650635 0.6899319887161255 0.2606610059738159 0.6871510148048401 0.22263598442077637 0.6866580247879028 0.2254440188407898 0.6346690058708191 0.0449410080909729 0.6244590282440186 0.043157994747161865 0.6727349758148193 0.33705002069473267 0.6726419925689697 0.3369060158729553 0.6357899904251099 0.3303689956665039 0.7351570129394531 0.06764101982116699 0.7342510223388672 0.05563002824783325 0.7179669737815857 0.07737398147583008 0.7173560261726379 0.04539597034454346 0.6816310286521912 0.04586297273635864 0.6507729887962341 0.21973097324371338 0.6093119978904724 0.2368689775466919 0.5934140086174011 0.01728302240371704 0.6798329949378967 0.07632100582122803 0.5263670086860657 0.07324200868606567 0.5263670086860657 0.1601560115814209 0.5110459923744202 0.15155702829360962 0.5698189735412598 0.17473602294921875 0.5368800163269043 0.15172898769378662 0.511667013168335 0.07902699708938599 0.6359379887580872 0.18113398551940918</float_array>
                    <technique_common>
                        <accessor count="131" source="#uvarray0_2" stride="2">
                            <param name="S" type="float"/>
                            <param name="T" type="float"/>
                        </accessor>
                    </technique_common>
                </source>
                <vertices id="vertices0_2">
                    <input semantic="POSITION" source="#points0_2"/>
                </vertices>
                <polylist count="169" material="Material1">
                    <input offset="0" semantic="VERTEX" source="#vertices0_2"/>
                    <input offset="1" semantic="TEXCOORD" source="#uvs0_2" set="0"/>
                    <vcount>3 3 3 3 3 3 3 3 3 3 3 3 3 3 3 3 3 3 3 3 3 3 3 3 3 3 3 3 3 3 3 3 3 3 3 3 3 3 3 3 3 3 3 3 3 3 3 3 3 3 3 3 3 3 3 3 3 3 3 3 3 3 3 3 3 3 3 3 3 3 3 3 3 3 3 3 3 3 3 3 3 3 3 3 3 3 3 3 3 3 3 3 3 3 3 3 3 3 3 3 3 3 3 3 3 3 3 3 3 3 3 3 3 3 3 3 3 3 3 3 3 3 3 3 3 3 3 3 3 3 3 3 3 3 3 3 3 3 3 3 3 3 3 3 3 3 3 3 3 3 3 3 3 3 3 3 3 3 3 3 3 3 3 3 3 3 3 3 3</vcount>
                    <p>2 2 1 1 0 0 3 3 1 1 2 2 4 4 3 3 2 2 5 5 3 3 4 4 6 6 5 5 4 4 7 7 5 5 6 6 8 8 7 7 6 6 9 9 7 7 8 8 10 10 9 9 8 8 11 11 9 9 10 10 12 12 11 11 10 10 13 13 11 11 12 12 14 14 13 13 12 12 15 15 13 13 14 14 16 16 15 15 14 14 17 17 15 15 16 16 18 18 17 17 16 16 19 21 1 20 3 19 0 22 1 20 19 21 20 23 0 22 19 21 2 24 0 22 20 23 21 25 2 24 20 23 4 26 2 24 21 25 22 27 4 26 21 25 6 28 4 26 22 27 23 29 6 28 22 27 24 30 6 28 23 29 25 31 24 30 23 29 26 32 24 30 25 31 27 33 26 32 25 31 28 34 26 32 27 33 29 35 28 34 27 33 30 36 28 34 29 35 33 39 32 38 31 37 34 40 32 38 33 39 35 41 34 40 33 39 36 42 34 40 35 41 37 43 36 42 35 41 38 44 36 42 37 43 39 45 38 44 37 43 40 46 38 44 39 45 41 47 40 46 39 45 42 48 40 46 41 47 43 49 42 48 41 47 44 50 42 48 43 49 45 51 44 50 43 49 48 54 47 53 46 52 49 55 47 53 48 54 50 56 49 55 48 54 51 57 49 55 50 56 52 58 51 57 50 56 53 59 51 57 52 58 54 60 53 59 52 58 55 61 53 59 54 60 56 62 55 61 54 60 57 63 55 61 56 62 59 66 45 65 58 64 44 67 45 65 59 66 60 68 44 67 59 66 42 69 44 67 60 68 7 7 42 69 60 68 40 70 42 69 7 7 9 9 40 70 7 7 61 71 40 70 9 9 63 74 62 73 61 72 64 75 62 73 63 74 65 76 64 75 63 74 66 77 64 75 65 76 67 78 66 77 65 76 68 79 66 77 67 78 69 80 68 79 67 78 70 81 68 79 69 80 54 60 71 82 56 62 72 83 71 82 54 60 52 58 72 83 54 60 10 84 72 83 52 58 73 85 10 84 52 58 12 86 10 84 73 85 74 87 12 86 73 85 75 88 40 70 61 71 38 89 40 70 75 88 31 90 38 89 75 88 36 91 38 89 31 90 32 92 36 91 31 90 34 93 36 91 32 92 13 13 76 94 11 11 77 95 76 94 13 13 15 15 77 95 13 13 78 96 77 95 15 15 17 17 78 96 15 15 51 57 62 73 49 55 39 45 62 73 51 57 79 97 39 45 51 57 80 98 39 45 79 97 60 98 80 98 79 97 43 49 58 99 45 51 81 100 58 99 43 49 80 98 81 100 43 49 59 101 81 100 80 98 60 98 59 101 80 98 82 102 73 85 48 54 74 87 73 85 82 102 83 103 74 87 82 102 17 104 74 87 83 103 78 105 17 104 83 103 33 39 37 43 35 41 84 106 37 43 33 39 75 107 84 106 33 39 61 72 84 106 75 107 68 79 64 75 66 77 85 108 64 75 68 79 70 81 85 108 68 79 86 109 85 108 70 81 85 108 62 73 64 75 49 55 62 73 85 108 86 109 49 55 85 108 47 53 49 55 86 109 51 57 23 29 22 27 25 31 23 29 51 57 53 59 25 31 51 57 55 61 25 31 53 59 61 71 46 111 47 110 76 94 46 111 61 71 9 9 76 94 61 71 11 11 76 94 9 9 19 21 21 25 20 23 87 112 21 25 19 21 5 113 87 112 19 21 7 114 87 112 5 113 65 117 69 116 67 115 70 118 69 116 65 117 86 119 70 118 65 117 62 73 84 106 61 72 37 43 84 106 62 73 39 45 37 43 62 73 79 97 7 114 60 98 87 112 7 114 79 97 21 25 87 112 79 97 83 103 77 120 78 105 76 121 77 120 83 103 82 102 76 121 83 103 74 122 14 14 12 12 18 18 14 14 74 122 63 123 86 119 65 117 61 71 86 119 63 123 79 97 22 27 21 25 51 57 22 27 79 97 46 52 82 102 48 54 76 121 82 102 46 52 55 61 27 33 25 31 57 63 27 33 55 61 28 125 72 124 10 10 30 126 72 124 28 125 41 47 80 98 43 49 39 45 80 98 41 47 50 56 73 85 52 58 48 54 73 85 50 56 24 127 8 8 6 6 26 128 8 8 24 127 26 128 10 10 8 8 28 125 10 10 26 128 16 16 14 14 18 18 57 63 29 35 27 33 30 126 71 129 72 124 47 110 86 119 61 71 33 39 31 37 75 107 58 99 81 100 59 101 19 21 3 19 5 113 18 130 74 87 17 104</p>
                </polylist>
            </mesh>
        </geometry>
    </library_geometries>
    <library_visual_scenes>
        <visual_scene id="VisualSceneNode">
            <node id="node0" name="m0" type="NODE">
                <instance_geometry url="#mesh0">
                    <bind_material>
                        <technique_common>
                            <instance_material symbol="Material1" target="#mat0">
                                <bind_vertex_input semantic="UVSET0" input_semantic="TEXCOORD" input_set="0"></bind_vertex_input>
                            </instance_material>
                        </technique_common>
                    </bind_material>
                </instance_geometry>
            </node>
            <node id="node0_1" name="m0_1" type="NODE">
                <instance_geometry url="#mesh0_1">
                    <bind_material>
                        <technique_common>
                            <instance_material symbol="Material1" target="#mat0_1">
                                <bind_vertex_input semantic="UVSET0" input_semantic="TEXCOORD" input_set="0"></bind_vertex_input>
                            </instance_material>
                        </technique_common>
                    </bind_material>
                </instance_geometry>
            </node>
            <node id="node0_2" name="m0_2" type="NODE">
                <instance_geometry url="#mesh0_2">
                    <bind_material>
                        <technique_common>
                            <instance_material symbol="Material1" target="#mat0_2">
                                <bind_vertex_input semantic="UVSET0" input_semantic="TEXCOORD" input_set="0"></bind_vertex_input>
                            </instance_material>
                        </technique_common>
                    </bind_material>
                </instance_geometry>
            </node>
        </visual_scene>
    </library_visual_scenes>
    <scene>
        <instance_visual_scene url="#VisualSceneNode"></instance_visual_scene>
    </scene>
</COLLADA>
